<svg width="374" height="268" viewBox="0 0 374 268" fill="none" xmlns="http://www.w3.org/2000/svg">
<g opacity="0.5">
<mask id="mask0_2195_18867" style="mask-type:luminance" maskUnits="userSpaceOnUse" x="59" y="0" width="105" height="86">
<path d="M163.194 0.666992V84.5312H59.7988V0.666992H163.194Z" fill="white" stroke="white" stroke-width="1.33333"/>
</mask>
<g mask="url(#mask0_2195_18867)">
<path d="M157.717 40.3981L157.714 44.3982L157.71 46.0557L157.706 47.3288L157.699 48.3983L157.687 49.3418L157.672 50.1948L157.661 50.9799L157.642 51.7069L157.624 52.3919L157.601 53.0381L157.575 53.652L157.548 54.2401L157.518 54.8023L157.488 55.3419L157.455 55.8621L157.417 56.3662L157.38 56.8508L157.338 57.3258L157.297 57.7814L157.252 58.2273L157.203 58.6635L157.154 59.0867L157.098 59.4971L157.046 59.901L156.989 60.2952L156.929 60.6797L156.865 61.0577L156.802 61.4261L156.734 61.7879L156.666 62.1434L156.595 62.4923L156.52 62.8348L156.445 63.1708L156.366 63.5004L156.284 63.8235L156.201 64.1402L156.115 64.4536L156.028 64.7605L155.938 65.0643L155.845 65.3615L155.649 65.9431L155.548 66.2275L155.447 66.5053L155.342 66.78L155.233 67.0514L155.124 67.3196L155.011 67.5813L154.895 67.8398L154.779 68.095L154.658 68.3471L154.535 68.5958L154.411 68.8414L154.283 69.0805L154.152 69.3196L154.02 69.5522L153.885 69.7849L153.746 70.0111L153.461 70.457L153.168 70.8899L153.015 71.1032L152.864 71.31L152.707 71.5168L152.549 71.7203L152.388 71.9206L152.223 72.1177L151.885 72.5055L151.712 72.6929L151.536 72.8803L151.359 73.0645L151.179 73.2454L150.992 73.4231L150.808 73.6008L150.425 73.9433L150.23 74.1113L150.031 74.2793L149.832 74.4409L149.625 74.6024L149.419 74.7608L149.209 74.9159L148.995 75.071L148.777 75.2228L148.56 75.3714L148.338 75.5168L147.88 75.8012L147.647 75.9401L147.411 76.0791L147.175 76.2115L146.931 76.344L146.683 76.4765L146.435 76.6025L146.18 76.7285L145.925 76.8513L145.666 76.9741L145.399 77.0936L145.133 77.2099L144.585 77.4361L144.303 77.546L144.022 77.6526L143.733 77.7592L143.44 77.8626L143.144 77.966L142.843 78.063L142.539 78.1599L142.228 78.2568L141.913 78.3505L141.594 78.441L141.271 78.5282L140.941 78.6155L140.606 78.6995L140.265 78.7835L139.923 78.861L139.571 78.9418L139.214 79.0161L138.85 79.0904L138.482 79.1615L138.107 79.2326L137.724 79.3005L137.334 79.3651L136.936 79.4297L136.534 79.4911L136.121 79.5525L135.701 79.6074L135.273 79.6623L134.834 79.7173L134.387 79.769L133.933 79.8174L133.464 79.8659L132.984 79.9111L132.496 79.9531L131.993 79.9951L131.475 80.0339L130.942 80.0727L130.398 80.1082L129.831 80.1405L129.249 80.1729L128.645 80.2019L128.018 80.2278L127.369 80.2536L126.69 80.2762L125.976 80.2989L125.23 80.3183L124.438 80.3344L123.593 80.3506L122.689 80.3635L121.705 80.3732L120.621 80.3829L119.39 80.3893L117.933 80.3958L116.06 80.399H106.771L104.79 80.3958L103.288 80.3893L102.027 80.3829L100.924 80.3764L99.9254 80.3635L99.0096 80.3506L98.1577 80.3376L97.3582 80.3183L96.6038 80.3021L95.8832 80.2795L95.2001 80.2569L94.5471 80.231L93.9165 80.2052L93.3085 80.1761L92.723 80.147L92.1563 80.1147L91.6046 80.0791L91.0716 80.0404L90.5537 80.0016L90.047 79.9628L89.5553 79.9176L89.0749 79.8724L88.6057 79.8271L88.1478 79.7787L87.6975 79.727L87.2583 79.672L86.8267 79.6171L86.4064 79.5589L85.9935 79.5008L85.5882 79.4394L85.1903 79.3748L84.8 79.3101L84.4172 79.2423L84.0418 79.1744L83.6703 79.1034L83.3062 79.029L82.9497 78.9515L82.5968 78.874L82.2516 78.7964L81.91 78.7124L81.576 78.6284L81.2457 78.5411L80.9192 78.4539L80.6001 78.3634L80.2849 78.2697L79.9734 78.176L79.6656 78.0791L79.3653 77.9822L79.0688 77.8788L78.7761 77.7754L78.4871 77.672L78.2018 77.5621L77.6464 77.3424L77.3724 77.2261L76.8394 76.9935L76.3215 76.7479L76.0663 76.6219L75.8186 76.4959L75.5708 76.3666L75.3269 76.2341L75.0867 76.0984L74.8502 75.9627L74.6175 75.8238L74.3886 75.6816L74.1634 75.5395L73.9382 75.3941L73.7205 75.2454L73.5028 75.0936L73.2889 74.9417L73.0787 74.7866L72.8685 74.6283L72.4632 74.3052L72.2643 74.1404L72.0691 73.9724L71.8739 73.8011L71.4986 73.4522L71.3147 73.2745L71.1345 73.0935L70.9544 72.9094L70.778 72.7252L70.6053 72.5345L70.4365 72.3439L70.2676 72.15L70.1024 71.953L69.941 71.7526L69.7796 71.5491L69.6258 71.3455L69.4719 71.1355L69.318 70.9222L69.1716 70.709L69.0252 70.4925L68.8789 70.2695L68.74 70.0466L68.6011 69.8204L68.466 69.591L68.3309 69.3552L68.1995 69.1193L68.0719 68.8769L67.9481 68.6346L67.8242 68.3858L67.7041 68.137L67.584 67.8818L67.4714 67.6233L67.3588 67.3616L67.2462 67.0934L67.1374 66.8252L67.0323 66.5506L66.8296 65.9884L66.7283 65.7008L66.5406 65.1127L66.4505 64.809L66.3605 64.502L66.2741 64.1919L66.1916 63.8752L66.109 63.5521L66.0302 63.2225L65.9551 62.8865L65.88 62.5472L65.8087 62.2015L65.7374 61.8461L65.6699 61.4842L65.6061 61.1159L65.546 60.7411L65.486 60.3566L65.4259 59.9656L65.3696 59.5617L65.3171 59.1514L65.2683 58.7313L65.2195 58.2983L65.1744 57.8557L65.1294 57.3969L65.0881 56.9284L65.0506 56.4437L65.0131 55.9429L64.9793 55.4259L64.9493 54.8895L64.9192 54.3306L64.893 53.749L64.8667 53.1383L64.8442 52.4953L64.8254 51.82L64.8066 51.0962L64.7916 50.324L64.7766 49.4839L64.7653 48.5566L64.7578 47.5097L64.7503 46.2787L64.7466 44.7051V36.7308L64.7503 34.9731L64.7578 33.658L64.7653 32.5627L64.7729 31.5998L64.7879 30.7339L64.8029 29.9423L64.8179 29.2056L64.8367 28.5141L64.8592 27.8615L64.8817 27.2411L64.908 26.653L64.938 26.0844L64.968 25.5415L65.0018 25.0181L65.0393 24.514L65.0769 24.0229L65.1181 23.5479L65.1594 23.0891L65.2045 22.64L65.2533 22.2038L65.3021 21.7805L65.3546 21.367L65.4071 20.9598L65.4672 20.5656L65.5235 20.1779L65.5873 19.7999L65.6511 19.4315L65.7187 19.0664L65.7862 18.711L65.8575 18.362L65.9288 18.0195L66.0077 17.6835L66.0827 17.3539L66.1653 17.0276L66.2479 16.7077L66.3342 16.3943L66.4205 16.0873L66.5106 15.7836L66.6044 15.4864L66.6982 15.1923L66.7958 14.9015L66.8972 14.6172L66.9985 14.3393L67.1036 14.0615L67.2124 13.79L67.3213 13.5219L67.4339 13.2601L67.5502 12.9984L67.6666 12.7432L67.7867 12.4911L67.9068 12.2423L68.0344 11.9968L68.2896 11.5186L68.421 11.2827L68.5561 11.0533L68.695 10.8239L68.8338 10.5977L68.9765 10.378L69.1228 10.1583L69.4231 9.73179L69.577 9.52177L69.7308 9.31498L69.8885 9.11142L70.0499 8.91109L70.215 8.71076L70.3801 8.5169L70.549 8.32626L70.7217 8.13563L70.8981 7.94822L71.0745 7.76405L71.2546 7.58311L71.4386 7.40217L71.8139 7.05321L72.0053 6.88196L72.2005 6.71395L72.3994 6.54593L72.5983 6.38438L72.8047 6.22282L73.0111 6.0645L73.2213 5.90617L73.4315 5.75431L73.6492 5.60245L73.8669 5.45382L74.0921 5.30519L74.3173 5.16302L74.5462 5.02085L74.7789 4.87869L75.0116 4.74298L75.2518 4.60727L75.492 4.4748L75.9874 4.21631L76.2389 4.0903L76.7569 3.84474L77.0196 3.72519L77.2861 3.60887L77.56 3.49255L77.834 3.38269L78.1118 3.2696L78.6822 3.05635L78.975 2.95295L79.2715 2.84956L79.5718 2.7494L79.8758 2.65246L80.1835 2.55876L80.4988 2.46506L80.8178 2.37459L81.1406 2.28412L81.4671 2.19688L81.8012 2.11287L82.1427 2.02886L82.4843 1.95132L82.8371 1.87054L83.1936 1.79622L83.5539 1.72191L83.9217 1.64759L84.2971 1.57651L84.6761 1.50866L85.0665 1.44403L85.4606 1.37941L85.8659 1.31802L86.275 1.25663L86.6916 1.19847L87.1195 1.14354L87.5548 1.08861L88.0015 1.03692L88.4594 0.988449L88.9248 0.939983L89.4014 0.894748L89.8893 0.852744L90.3885 0.810739L90.9065 0.771966L91.4357 0.733193L91.9799 0.697651L92.5391 0.662109L93.1209 0.63303L93.7214 0.60395L94.3444 0.57487L94.9899 0.549021L95.6655 0.526403L96.3711 0.503786L97.1105 0.484399L97.8949 0.468243L98.7281 0.452088L99.6252 0.439163L100.593 0.426239L101.663 0.416546L102.864 0.410084L104.275 0.403622L106.058 0.400391H115.287L117.4 0.403622L118.954 0.406853L120.245 0.413315L121.371 0.423008L122.385 0.432702L123.315 0.445626L124.175 0.458551L124.982 0.477937L125.744 0.494092L126.464 0.51671L127.155 0.539327L127.816 0.561945L128.45 0.587794L129.058 0.616874L129.647 0.649185L130.218 0.681496L130.769 0.717037L131.306 0.75258L131.828 0.791353L132.334 0.830126L132.83 0.875361L133.314 0.917365L133.783 0.965832L134.245 1.0143L134.695 1.066L135.134 1.11769L135.566 1.17262L135.99 1.23078L136.403 1.28894L136.808 1.35033L137.21 1.41172L137.6 1.47634L137.983 1.5442L138.362 1.61528L138.734 1.68637L139.098 1.75745L139.458 1.835L139.811 1.91254L140.156 1.99009L140.498 2.0741L140.835 2.15811L141.166 2.24211L141.492 2.32935L141.811 2.41982L142.13 2.51353L142.442 2.60723L142.746 2.70416L143.05 2.80432L143.346 2.90449L143.639 3.00788L143.928 3.11128L144.213 3.2179L144.495 3.32776L144.773 3.44085L145.047 3.55394L145.579 3.78658L145.842 3.90936L146.101 4.03214L146.353 4.15492L146.604 4.28416L146.852 4.41341L147.096 4.54265L147.336 4.67836L147.572 4.81406L147.809 4.953L148.038 5.09517L148.263 5.23734L148.488 5.38274L148.71 5.53137L148.927 5.68L149.141 5.83186L149.351 5.99018L149.562 6.14527L149.967 6.46838L150.166 6.63317L150.365 6.80119L150.748 7.14368L150.935 7.31816L151.119 7.49587L151.299 7.67681L151.48 7.86098L151.656 8.04516L151.829 8.23256L152.001 8.42643L152.17 8.62029L152.335 8.81416L152.497 9.01449L152.658 9.21804L152.812 9.4216L152.97 9.63162L153.12 9.84164L153.27 10.0549L153.416 10.2714L153.701 10.7173L153.84 10.9434L153.975 11.1729L154.111 11.4055L154.242 11.6414L154.497 12.126L154.621 12.3716L154.741 12.6236L154.857 12.8756L154.974 13.1341L155.086 13.3958L155.199 13.664L155.308 13.9322L155.413 14.2069L155.518 14.4847L155.619 14.7658L155.717 15.0534L155.814 15.3442L155.908 15.6415L155.998 15.9419L156.088 16.2489L156.175 16.5591L156.257 16.8757L156.34 17.1956L156.419 17.5252L156.498 17.858L156.573 18.1973L156.644 18.543L156.715 18.8952L156.779 19.2571L156.847 19.6222L156.91 19.997L156.97 20.3815L157.027 20.7724L157.083 21.1731L157.136 21.5802L157.188 22.0002L157.237 22.43L157.282 22.8726L157.327 23.3282L157.368 23.7935L157.406 24.2782L157.443 24.7758L157.477 25.2895L157.511 25.8226L157.541 26.3784L157.567 26.9567L157.593 27.561L157.616 28.1975L157.635 28.8696L157.654 29.5836L157.669 30.3494L157.684 31.1766L157.695 32.0877L157.702 33.112L157.71 34.3107L157.714 35.8067L157.717 38.1428V40.3981Z" stroke="#057B8C" stroke-width="1.28984"/>
</g>
</g>
<path opacity="0.5" d="M204 80.5V84.55L203.996 86.2282L203.989 87.5139L203.981 88.6L203.97 89.5552L203.959 90.4189L203.944 91.2106L203.925 91.9499L203.906 92.6435L203.884 93.2977L203.861 93.9193L203.831 94.5147L203.805 95.0807L203.771 95.6302L203.737 96.1569L203.703 96.664L203.662 97.158L203.621 97.6356L203.58 98.1002L203.534 98.5516L203.486 98.9933L203.437 99.4185L203.384 99.8373L203.328 100.246L203.272 100.645L203.212 101.035L203.152 101.417L203.084 101.79L203.02 102.157L202.949 102.517L202.877 102.87L202.802 103.213L202.727 103.554L202.648 103.887L202.57 104.218L202.483 104.538L202.401 104.856L202.311 105.166L202.22 105.474L202.127 105.775L202.033 106.069L201.935 106.36L201.834 106.648L201.729 106.933L201.623 107.211L201.518 107.486L201.293 108.022L201.177 108.284L201.06 108.542L200.94 108.798L200.816 109.05L200.692 109.295L200.565 109.54L200.302 110.018L200.167 110.25L200.028 110.482L199.889 110.708L199.743 110.934L199.6 111.153L199.45 111.372L199.3 111.585L199.146 111.798L198.988 112.007L198.83 112.213L198.669 112.416L198.504 112.615L198.166 113.008L197.993 113.198L197.817 113.387L197.64 113.574L197.46 113.757L197.276 113.937L197.088 114.117L196.9 114.29L196.705 114.464L196.51 114.634L196.112 114.968L195.906 115.131L195.699 115.291L195.489 115.448L195.061 115.756L194.618 116.057L194.393 116.201L194.16 116.345L193.931 116.485L193.694 116.623L193.454 116.76L193.21 116.894L192.966 117.025L192.714 117.156L192.463 117.284L192.204 117.408L191.945 117.529L191.682 117.65L191.141 117.886L190.863 118L190.586 118.111L190.3 118.219L190.011 118.327L189.718 118.432L189.425 118.533L189.121 118.635L188.817 118.733L188.506 118.831L188.194 118.923L187.875 119.014L187.548 119.106L187.218 119.194L186.884 119.279L186.546 119.361L186.2 119.443L185.848 119.521L185.491 119.6L185.127 119.675L184.759 119.747L184.383 119.819L184 119.888L183.61 119.953L183.216 120.019L182.81 120.081L182.397 120.14L181.977 120.199L181.549 120.254L181.113 120.31L180.666 120.362L180.208 120.411L179.739 120.46L179.262 120.506L178.771 120.549L178.267 120.591L177.749 120.63L177.216 120.67L176.672 120.706L176.105 120.738L175.523 120.768L174.918 120.797L174.292 120.827L173.642 120.853L172.962 120.876L172.249 120.895L171.502 120.915L170.71 120.935L169.869 120.948L168.964 120.964L167.98 120.974L166.892 120.984L165.66 120.99L164.207 120.997H162.33L158.812 121H153.038L151.056 120.997L149.554 120.99L148.296 120.984L147.189 120.974L146.19 120.964L145.274 120.951L144.422 120.935L143.622 120.918L142.867 120.899L142.15 120.879L141.463 120.856L140.81 120.83L140.179 120.804L139.571 120.774L138.985 120.742L138.418 120.709L137.87 120.673L137.333 120.637L136.815 120.598L136.308 120.555L135.817 120.513L135.336 120.467L134.867 120.418L134.409 120.369L133.958 120.316L133.519 120.264L133.091 120.208L132.667 120.149L132.254 120.091L131.848 120.028L131.454 119.963L131.063 119.898L130.677 119.829L130.301 119.76L129.93 119.685L129.569 119.613L129.209 119.534L128.856 119.456L128.51 119.374L128.169 119.292L127.835 119.207L127.504 119.119L127.178 119.031L126.859 118.939L126.543 118.844L126.232 118.749L125.927 118.651L125.623 118.55L125.327 118.448L125.034 118.344L124.745 118.236L124.463 118.128L124.182 118.016L123.904 117.902L123.634 117.787L123.363 117.67L123.097 117.549L122.838 117.428L122.579 117.303L122.075 117.048L121.828 116.917L121.584 116.783L121.111 116.508L120.874 116.368L120.645 116.224L120.42 116.08L120.195 115.929L119.977 115.782L119.759 115.628L119.545 115.475L119.335 115.318L119.128 115.157L118.922 114.994L118.719 114.827L118.52 114.66L118.325 114.49L118.133 114.32L117.942 114.143L117.754 113.966L117.57 113.787L117.39 113.603L117.21 113.417L117.033 113.227L116.861 113.037L116.692 112.844L116.523 112.645L116.358 112.449L116.196 112.246L116.038 112.04L115.881 111.83L115.727 111.621L115.426 111.189L115.28 110.967L115.137 110.744L114.995 110.518L114.856 110.286L114.721 110.054L114.585 109.818L114.458 109.58L114.202 109.089L114.079 108.837L113.958 108.585L113.842 108.327L113.726 108.065L113.5 107.528L113.392 107.254L113.286 106.975L113.185 106.694L113.084 106.406L112.986 106.115L112.888 105.821L112.795 105.52L112.704 105.215L112.614 104.905L112.532 104.587L112.445 104.267L112.363 103.94L112.284 103.609L112.209 103.269L112.134 102.925L112.062 102.572L111.995 102.216L111.927 101.849L111.86 101.476L111.8 101.097L111.74 100.707L111.68 100.308L111.627 99.9027L111.574 99.4872L111.522 99.0619L111.473 98.6236L111.428 98.1721L111.387 97.7109L111.342 97.2365L111.304 96.7458L111.267 96.2387L111.237 95.7153L111.203 95.1722L111.173 94.6063L111.146 94.0142L111.12 93.3992L111.098 92.7481L111.079 92.0611L111.06 91.3316L111.045 90.5498L111.034 89.6959L111.023 88.7603L111.011 87.6971L111.008 86.4507L111.004 84.8608L111 82.1161L111.004 76.787V75.0073L111.011 73.6758L111.019 72.5636L111.03 71.592L111.041 70.7152L111.056 69.9137L111.071 69.1646L111.094 68.4678L111.113 67.8069L111.139 67.1788L111.165 66.5802L111.191 66.0077L111.225 65.4581L111.259 64.9281L111.293 64.4145L111.33 63.9205L111.372 63.4396L111.413 62.9751L111.458 62.5204L111.507 62.0787L111.556 61.6502L111.608 61.2281L111.665 60.8192L111.721 60.4201L111.781 60.0275L111.841 59.6448L111.905 59.2686L111.972 58.9022L112.04 58.5423L112.111 58.189L112.186 57.8422L112.261 57.4987L112.34 57.1651L112.419 56.8379L112.502 56.5141L112.588 56.1967L112.674 55.8859L112.765 55.5784L112.858 55.2742L113.054 54.6853L113.151 54.3975L113.256 54.1128L113.362 53.8348L113.467 53.56L113.576 53.2884L113.688 53.0235L113.805 52.7585L113.921 52.5L114.041 52.2449L114.165 51.993L114.289 51.7443L114.416 51.499L114.544 51.2602L114.679 51.0214L114.814 50.7858L114.95 50.5568L115.092 50.3278L115.235 50.1054L115.381 49.8829L115.528 49.6637L115.678 49.4478L115.986 49.0291L116.309 48.6169L116.47 48.4173L116.808 48.0248L117.153 47.6453L117.514 47.2723L117.882 46.9125L118.07 46.7391L118.265 46.5657L118.655 46.2255L118.858 46.0586L119.061 45.8983L119.267 45.7348L119.477 45.5777L119.691 45.4207L119.905 45.2702L120.127 45.1165L120.348 44.9693L120.574 44.8221L120.803 44.6781L121.035 44.5374L121.509 44.2626L121.997 43.9944L122.244 43.8668L122.755 43.6116L123.014 43.4906L123.281 43.3695L123.547 43.2518L123.817 43.134L124.092 43.0195L124.373 42.9083L124.655 42.8003L124.944 42.6924L125.233 42.5877L125.529 42.483L125.83 42.3816L126.134 42.2834L126.442 42.1886L126.757 42.0937L127.076 41.9988L127.399 41.9105L127.73 41.8222L128.064 41.7371L128.402 41.6521L128.747 41.5703L129.096 41.4918L129.453 41.4132L129.813 41.338L130.557 41.1941L130.94 41.1254L131.326 41.0599L131.72 40.9945L132.126 40.9323L132.535 40.8702L132.956 40.8113L133.384 40.7557L133.819 40.7001L134.262 40.6477L134.72 40.5987L135.186 40.5496L135.663 40.5038L136.151 40.458L136.654 40.4155L137.168 40.3762L137.697 40.3402L138.242 40.3042L138.805 40.2683L139.383 40.2355L139.984 40.2061L140.607 40.1799L141.253 40.1538L141.929 40.1309L142.634 40.108L143.378 40.0883L144.163 40.0687L144.996 40.0556L145.89 40.0425L146.858 40.0294L147.928 40.0196L149.133 40.0131L150.545 40.0065L152.325 40.0033L155.227 40L161.557 40.0033H163.67L165.228 40.0098L166.516 40.0164L167.646 40.0262L168.66 40.036L169.587 40.0491L170.447 40.0622L171.254 40.0785L172.016 40.0981L172.741 40.1178L173.428 40.1407L174.089 40.1668L174.723 40.193L175.331 40.2225L175.921 40.2519L176.492 40.2879L177.047 40.3206L177.584 40.3599L178.102 40.3991L178.613 40.4384L179.105 40.4809L179.589 40.5267L180.058 40.5758L180.52 40.6248L180.971 40.6739L181.41 40.7295L181.842 40.7851L182.266 40.8408L182.683 40.9029L183.088 40.9651L183.486 41.0272L183.876 41.0927L184.263 41.1613L184.639 41.23L185.01 41.302L185.374 41.3773L185.735 41.4558L186.088 41.5343L186.437 41.6128L186.779 41.6946L187.113 41.7796L187.443 41.868L187.77 41.9563L188.093 42.0479L188.408 42.1428L188.72 42.2376L189.027 42.3358L189.328 42.4339L189.624 42.5353L189.921 42.64L190.21 42.748L190.495 42.8559L190.777 42.9672L191.051 43.0784L191.325 43.1962L191.596 43.3107L191.862 43.4317L192.121 43.5527L192.38 43.6771L192.635 43.8046L192.887 43.9322L193.131 44.0631L193.375 44.1972L193.619 44.3346L193.852 44.472L194.088 44.6127L194.317 44.7534L194.546 44.9006L194.989 45.195L195.207 45.3487L195.421 45.5025L195.635 45.6595L196.048 45.9801L196.251 46.147L196.45 46.3138L196.645 46.4839L196.837 46.654L197.028 46.8307L197.216 47.0074L197.4 47.1873L197.584 47.3705L197.764 47.5537L197.937 47.7434L198.113 47.9332L198.282 48.1262L198.451 48.3225L198.616 48.522L198.939 48.9277L199.097 49.137L199.251 49.3464L199.551 49.7782L199.697 49.9974L199.84 50.2199L199.983 50.4456L200.122 50.6779L200.257 50.9101L200.392 51.1457L200.523 51.3845L200.651 51.6266L200.779 51.8752L200.903 52.1238L201.023 52.3757L201.139 52.6342L201.256 52.8959L201.372 53.1609L201.481 53.4291L201.59 53.7039L201.695 53.9787L201.8 54.2601L201.901 54.5479L201.999 54.8391L202.097 55.1335L202.19 55.4312L202.371 56.0462L202.543 56.6809L202.622 57.008L202.705 57.3384L202.78 57.6787L202.855 58.0222L202.926 58.3722L202.998 58.7288L203.065 59.0919L203.129 59.4649L203.193 59.8443L203.253 60.2304L203.309 60.6262L203.366 61.0319L203.418 61.4473L203.471 61.8726L203.519 62.3077L203.564 62.7559L203.61 63.2139L203.651 63.6882L203.688 64.1757L203.726 64.6795L203.76 65.2029L203.794 65.7427L203.824 66.3054L203.85 66.891L203.876 67.5027L203.899 68.1472L203.917 68.8276L203.936 69.5506L203.955 70.3227L203.966 71.1634L203.977 72.0859L203.985 73.123L203.992 74.3334L203.996 75.8513L204 78.2133V80.5Z" stroke="#057B8C" stroke-width="1.28984"/>
<g opacity="0.5">
<mask id="mask1_2195_18867" style="mask-type:luminance" maskUnits="userSpaceOnUse" x="0" y="86" width="100" height="91">
<path d="M98.8193 87.5186V175.519H0.666992V87.5186H98.8193Z" fill="white" stroke="white" stroke-width="1.33333"/>
</mask>
<g mask="url(#mask1_2195_18867)">
<path d="M93.5672 131.599V135.599L93.5635 137.257L93.556 138.527L93.5484 139.599L93.5372 140.543L93.5259 141.396L93.5109 142.178L93.4921 142.908L93.4734 143.593L93.4509 144.239L93.4283 144.853L93.3983 145.441L93.3721 146L93.3383 146.543L93.3045 147.063L93.2707 147.564L93.2294 148.052L93.1881 148.524L93.1469 148.983L93.1018 149.428L93.053 149.865L93.0042 150.285L92.9517 150.698L92.8954 151.102L92.8391 151.496L92.779 151.881L92.719 152.259L92.6514 152.627L92.5876 152.989L92.5163 153.345L92.445 153.693L92.3699 154.033L92.2949 154.369L92.2161 154.698L92.1372 155.025L92.0509 155.341L91.9683 155.655L91.8783 155.962L91.7882 156.265L91.6944 156.563L91.6005 156.853L91.4992 157.141L91.4016 157.425L91.2965 157.706L91.1914 157.981L91.0863 158.253L90.8611 158.782L90.7448 159.041L90.6284 159.296L90.5083 159.548L90.3845 159.797L90.2606 160.039L90.133 160.282L89.8703 160.753L89.7352 160.983L89.5963 161.212L89.4575 161.435L89.3111 161.658L89.1685 161.875L89.0183 162.091L88.8682 162.301L88.7143 162.511L88.5567 162.718L88.399 162.921L88.2377 163.122L88.0725 163.319L87.7347 163.707L87.3894 164.081L87.2093 164.266L87.0291 164.447L86.8452 164.624L86.6576 164.802L86.4699 164.973L86.2747 165.144L86.0796 165.312L85.8844 165.477L85.6817 165.642L85.4753 165.804L85.2689 165.962L85.0587 166.117L84.6308 166.421L84.1879 166.718L83.9627 166.86L83.73 167.002L83.4973 167.141L83.2647 167.277L83.0244 167.413L82.7805 167.545L82.5365 167.674L82.2851 167.804L82.0336 167.93L81.7746 168.052L81.5157 168.172L80.9827 168.411L80.7125 168.524L80.4347 168.637L80.157 168.747L79.8718 168.854L79.5828 168.96L79.2938 169.064L78.9972 169.164L78.6932 169.264L78.3892 169.361L78.0777 169.458L77.7662 169.548L77.4472 169.639L77.1206 169.729L76.7904 169.817L76.4563 169.901L76.1185 169.981L75.7732 170.062L75.4204 170.14L75.0639 170.217L74.6998 170.292L74.332 170.363L73.9567 170.434L73.5739 170.502L73.1835 170.566L72.7894 170.631L72.3841 170.692L71.9712 170.75L71.5546 170.809L71.123 170.864L70.6876 170.918L70.241 170.97L69.7831 171.019L69.314 171.067L68.8373 171.112L68.3456 171.154L67.8427 171.196L67.3248 171.235L66.7956 171.274L66.2476 171.309L65.6809 171.342L65.0991 171.371L64.4948 171.403L63.8681 171.429L63.2188 171.455L62.5394 171.477L61.8263 171.497L61.0794 171.516L60.2875 171.536L59.4468 171.549L58.5423 171.565L57.5552 171.574L56.4705 171.584L55.2394 171.591L53.7869 171.597H51.9141L48.3936 171.6H42.6211L40.6394 171.597L39.1382 171.591L37.8808 171.584L36.7736 171.574L35.7753 171.565L34.8595 171.552L34.0075 171.536L33.2081 171.519L32.4537 171.5L31.7368 171.481L31.0537 171.458L30.3969 171.432L29.7664 171.406L29.1584 171.377L28.5729 171.345L28.0061 171.313L27.4582 171.277L26.9215 171.242L26.4035 171.203L25.8968 171.161L25.4052 171.119L24.9247 171.074L24.4556 171.025L23.9977 170.977L23.5473 170.925L23.1082 170.873L22.6803 170.818L22.2562 170.76L21.8434 170.702L21.438 170.641L21.0439 170.576L20.6536 170.511L20.267 170.443L19.8917 170.376L19.5201 170.301L19.1561 170.23L18.7995 170.153L18.4467 170.075L18.1014 169.994L17.7599 169.914L17.4258 169.83L17.0955 169.742L16.769 169.655L16.45 169.565L16.1347 169.471L15.8232 169.377L15.5192 169.28L15.2152 169.18L14.9187 169.08L14.6259 168.977L14.3369 168.87L14.0554 168.763L13.774 168.653L13.4962 168.54L13.226 168.427L12.9558 168.311L12.4303 168.072L12.1713 167.949L11.6684 167.697L11.4207 167.568L11.1805 167.435L10.9403 167.3L10.7038 167.164L10.4711 167.025L10.2384 166.883L10.0132 166.741L9.7918 166.592L9.57036 166.447L9.35268 166.295L9.13874 166.143L8.92856 165.988L8.72214 165.829L8.51571 165.668L8.31304 165.503L8.11412 165.338L7.91895 165.17L7.72753 165.002L7.53612 164.828L7.34846 164.653L7.16455 164.476L6.9844 164.295L6.80425 164.111L6.62784 163.923L6.4552 163.736L6.2863 163.545L6.11741 163.348L5.95227 163.154L5.79088 162.954L5.63324 162.75L5.47561 162.543L5.32173 162.337L5.02147 161.91L4.8751 161.69L4.73247 161.471L4.58985 161.248L4.45098 161.018L4.31587 160.789L4.1845 160.556L4.05314 160.32L3.79792 159.836L3.67407 159.587L3.55397 159.338L3.43762 159.083L3.32127 158.824L3.09607 158.295L2.99098 158.023L2.88214 157.749L2.7808 157.471L2.67947 157.19L2.4843 156.608L2.39047 156.311L2.30039 156.01L2.21032 155.703L2.12399 155.39L2.04142 155.073L1.95885 154.75L1.88003 154.424L1.80497 154.088L1.72991 153.748L1.65859 153.399L1.59104 153.047L1.52348 152.685L1.45592 152.317L1.39587 151.942L1.33582 151.558L1.27952 151.164L1.22322 150.763L1.17068 150.353L1.11813 149.932L1.06934 149.5L1.0243 149.054L0.983016 148.598L0.941731 148.13L0.900446 147.645L0.866666 147.144L0.829135 146.627L0.799108 146.091L0.769083 145.532L0.742811 144.947L0.716538 144.339L0.694019 143.696L0.675253 143.018L0.656487 142.297L0.641474 141.525L0.630214 140.682L0.618955 139.758L0.607695 138.708L0.603942 137.477L0.600189 135.906L0.596436 133.195L0.600189 127.932V126.174L0.607695 124.859L0.615201 123.761L0.626461 122.801L0.63772 121.935L0.652734 121.143L0.667747 120.404L0.690266 119.715L0.709032 119.063L0.735305 118.442L0.761577 117.851L0.787849 117.286L0.821628 116.743L0.855407 116.219L0.889185 115.712L0.926718 115.224L0.968003 114.749L1.00929 114.29L1.05433 113.841L1.10312 113.405L1.15191 112.982L1.20446 112.565L1.26075 112.161L1.31705 111.767L1.3771 111.379L1.43715 111.001L1.50096 110.629L1.56852 110.268L1.63608 109.912L1.70739 109.563L1.78245 109.221L1.85751 108.885L1.93633 108.552L2.01515 108.229L2.09772 107.909L2.18404 107.595L2.27037 107.289L2.3642 106.985L2.45428 106.684L2.64944 106.103L2.74702 105.818L2.85211 105.537L2.95345 105.263L3.06229 104.991L3.17114 104.723L3.28373 104.461L3.40008 104.2L3.51643 103.944L3.63654 103.692L3.76039 103.444L3.88425 103.198L4.01186 102.956L4.13947 102.72L4.27458 102.484L4.4097 102.251L4.54481 102.025L4.68744 101.799L4.97268 101.359L5.12281 101.143L5.27294 100.93L5.5807 100.516L5.90348 100.109L6.06486 99.9119L6.40265 99.5242L6.5753 99.3336L6.74795 99.1494L7.10825 98.7811L7.47607 98.4256L7.8589 98.0831L8.24923 97.7471L8.65458 97.424L8.86101 97.2624L9.07118 97.1073L9.28512 96.9523L9.49905 96.8036L9.72049 96.6518L9.94193 96.5064L10.1671 96.361L10.3961 96.2188L10.6288 96.0799L11.1017 95.8084L11.5896 95.5435L11.8373 95.4175L12.3477 95.1655L12.6067 95.0459L12.8732 94.9264L13.1397 94.81L13.4099 94.6937L13.6839 94.5806L14.2469 94.3609L14.8249 94.1541L15.1214 94.0507L15.4216 93.9506L15.7256 93.8536L16.3487 93.6662L16.6677 93.5758L16.9905 93.4853L17.3207 93.3981L17.6548 93.314L17.9926 93.23L18.3379 93.1493L18.6869 93.0717L19.0435 92.9942L19.4038 92.9199L19.7716 92.8488L20.1469 92.7777L20.5297 92.7098L20.9163 92.6452L21.3142 92.5806L21.7158 92.5192L22.1249 92.4578L22.5452 92.3996L22.9731 92.3447L23.4084 92.2898L23.8513 92.2381L24.3092 92.1896L24.7746 92.1412L25.2513 92.0959L25.7392 92.0507L26.2421 92.0119L26.7563 91.9699L27.2855 91.9344L27.8297 91.8988L28.3927 91.8633L28.9707 91.831L29.5712 91.8019L30.1943 91.776L30.8398 91.7502L31.5154 91.7276L32.221 91.705L32.9641 91.6856L33.7485 91.6694L34.5818 91.6533L35.475 91.6403L36.4434 91.6274L37.513 91.6177L38.7178 91.6113L40.1253 91.6048L41.908 91.6016H51.1372L53.2502 91.6048L54.8041 91.608L56.0952 91.6145L57.2249 91.621L58.2382 91.6339L59.1653 91.6468L60.0248 91.6597L60.8317 91.6759L61.5936 91.6953L62.318 91.7147L63.0048 91.7373L63.6654 91.7631L64.2997 91.789L64.9077 91.818L65.497 91.8504L66.0674 91.8827L66.6229 91.915L67.1559 91.9538L67.6776 91.9925L68.188 92.0313L68.6797 92.0733L69.1638 92.1185L69.633 92.167L70.0946 92.2155L70.545 92.2672L70.9842 92.3189L71.4158 92.3738L71.8399 92.432L72.2527 92.4901L72.6618 92.5515L73.0597 92.6129L73.45 92.6775L73.8366 92.7454L74.2119 92.8132L74.5835 92.8843L74.9475 92.9586L75.3078 93.0329L75.6607 93.1105L76.0097 93.1913L76.3512 93.272L76.6853 93.356L77.0156 93.4433L77.3421 93.5305L77.6649 93.621L77.9801 93.7147L78.2916 93.8084L78.5994 93.9053L78.8997 94.0023L79.1962 94.1024L79.4927 94.2058L79.7817 94.3125L80.0669 94.4191L80.3484 94.5289L80.6224 94.6388L80.8964 94.7551L81.1666 94.8682L81.4331 94.9878L81.6921 95.1073L81.951 95.2301L82.2062 95.3561L82.4577 95.4821L82.7017 95.6113L82.9456 95.7438L83.426 96.0152L83.6587 96.1542L83.8877 96.2931L84.1166 96.4353L84.3381 96.5839L84.5595 96.7293L84.7772 96.8812L84.9911 97.033L85.2013 97.1881L85.4115 97.3464L85.6179 97.508L85.8168 97.6696L86.0195 97.8343L86.2147 98.0024L86.4061 98.1704L86.5975 98.3449L86.7852 98.5193L86.9691 98.697L87.153 98.878L87.3294 99.0589L87.6822 99.4337L87.8511 99.6244L88.02 99.8182L88.1851 100.015L88.5079 100.416L88.6655 100.623L88.8194 100.83L89.1197 101.256L89.266 101.473L89.4087 101.692L89.5513 101.915L89.6902 102.145L89.8253 102.374L89.9604 102.607L90.0917 102.843L90.2194 103.082L90.347 103.324L90.4708 103.573L90.711 104.077L90.8236 104.335L90.94 104.597L91.0488 104.862L91.1577 105.133L91.2627 105.405L91.3678 105.683L91.4692 105.967L91.5668 106.255L91.6643 106.545L91.7582 106.839L91.9383 107.447L92.0246 107.757L92.111 108.074L92.1898 108.397L92.2724 108.726L92.3474 109.059L92.4225 109.398L92.4938 109.744L92.5651 110.096L92.6327 110.455L92.6965 110.823L92.7603 111.198L92.8203 111.579L92.8766 111.97L92.9329 112.371L92.9855 112.781L93.038 113.201L93.0868 113.631L93.1318 114.074L93.1769 114.529L93.2182 114.995L93.2557 115.476L93.2932 115.974L93.327 116.491L93.3608 117.024L93.3908 117.58L93.4171 118.158L93.4434 118.762L93.4659 119.399L93.4846 120.071L93.5034 120.785L93.5222 121.547L93.5334 122.378L93.5447 123.289L93.5522 124.313L93.5597 125.509L93.5635 127.008L93.5672 129.344V131.599Z" stroke="#057B8C" stroke-width="1.28984"/>
</g>
</g>
<path opacity="0.5" d="M204 190.502V194.552L203.996 196.23L203.989 197.516L203.981 198.599L203.97 199.554L203.959 200.418L203.944 201.213L203.925 201.952L203.906 202.642L203.884 203.297L203.861 203.918L203.831 204.514L203.805 205.083L203.771 205.629L203.737 206.159L203.703 206.666L203.662 207.16L203.621 207.638L203.58 208.103L203.534 208.554L203.486 208.992L203.437 209.421L203.384 209.84L203.328 210.245L203.272 210.644L203.212 211.037L203.152 211.417L203.084 211.793L203.02 212.159L202.949 212.519L202.877 212.869L202.802 213.216L202.727 213.556L202.648 213.89L202.57 214.217L202.483 214.538L202.401 214.855L202.311 215.166L202.22 215.473L202.127 215.774L202.033 216.072L201.935 216.363L201.834 216.651L201.729 216.932L201.623 217.21L201.518 217.485L201.406 217.757L201.293 218.022L201.177 218.284L201.06 218.542L200.94 218.797L200.816 219.049L200.692 219.298L200.565 219.543L200.433 219.782L200.302 220.017L200.167 220.253L199.889 220.711L199.743 220.933L199.6 221.156L199.3 221.588L199.146 221.8L198.83 222.213L198.669 222.415L198.504 222.615L198.335 222.815L198.166 223.008L197.993 223.201L197.64 223.574L197.46 223.757L197.276 223.94L196.9 224.293L196.705 224.467L196.51 224.637L196.311 224.804L196.112 224.967L195.906 225.131L195.699 225.291L195.489 225.448L195.275 225.605L195.061 225.759L194.839 225.909L194.618 226.057L194.393 226.204L194.16 226.348L193.931 226.489L193.694 226.626L193.454 226.763L193.21 226.897L192.966 227.028L192.714 227.159L192.463 227.287L192.204 227.411L191.945 227.532L191.682 227.653L191.412 227.771L191.141 227.885L190.863 228L190.586 228.111L190.3 228.222L190.011 228.327L189.425 228.537L189.121 228.635L188.817 228.736L188.194 228.926L187.875 229.017L187.548 229.106L187.218 229.194L186.884 229.279L186.546 229.364L186.2 229.446L185.848 229.525L185.491 229.6L185.127 229.675L184.759 229.747L184.383 229.819L184 229.888L183.61 229.956L183.216 230.019L182.81 230.081L182.397 230.143L181.977 230.202L181.549 230.257L181.113 230.31L180.666 230.362L180.208 230.411L179.739 230.46L179.262 230.506L178.771 230.552L178.267 230.591L177.749 230.634L177.216 230.67L176.672 230.706L176.105 230.738L175.523 230.771L174.918 230.8L174.292 230.827L173.642 230.853L172.962 230.876L172.249 230.899L171.502 230.918L170.71 230.935L169.869 230.951L168.964 230.964L167.98 230.977L166.892 230.984L165.66 230.99L164.207 230.997L162.33 231H153.038L151.056 230.997L149.554 230.993L148.296 230.987L147.189 230.977L146.19 230.967L145.274 230.954L144.422 230.938L143.622 230.921L142.867 230.902L142.15 230.882L141.463 230.856L140.81 230.833L140.179 230.807L139.571 230.774L138.985 230.745L138.418 230.712L137.87 230.676L137.333 230.64L136.815 230.598L136.308 230.558L135.817 230.513L135.336 230.47L134.867 230.421L134.409 230.372L133.958 230.32L133.519 230.264L133.091 230.208L132.667 230.153L132.254 230.09L131.848 230.028L131.454 229.966L131.063 229.897L130.677 229.832L130.301 229.76L129.93 229.688L129.209 229.538L128.856 229.459L128.51 229.377L128.169 229.292L127.835 229.207L127.504 229.122L127.178 229.031L126.859 228.939L126.543 228.847L126.232 228.749L125.623 228.553L125.327 228.451L125.034 228.347L124.745 228.239L124.463 228.128L124.182 228.02L123.904 227.905L123.634 227.791L123.363 227.673L123.097 227.552L122.838 227.431L122.579 227.303L122.327 227.179L122.075 227.048L121.828 226.917L121.584 226.783L121.347 226.649L120.874 226.367L120.645 226.227L120.195 225.932L119.977 225.782L119.759 225.628L119.545 225.474L119.335 225.317L118.922 224.997L118.719 224.83L118.52 224.663L118.325 224.493L117.942 224.146L117.754 223.966L117.57 223.786L117.39 223.603L117.21 223.417L117.033 223.23L116.861 223.037L116.692 222.844L116.523 222.648L116.358 222.448L116.196 222.245L115.881 221.833L115.727 221.62L115.577 221.408L115.426 221.189L115.28 220.969L115.137 220.747L114.995 220.518L114.856 220.289L114.721 220.057L114.585 219.818L114.458 219.579L114.33 219.337L114.202 219.088L114.079 218.84L113.958 218.585L113.842 218.326L113.726 218.064L113.613 217.799L113.5 217.528L113.392 217.256L113.286 216.978L113.185 216.697L113.084 216.409L112.986 216.118L112.888 215.823L112.795 215.522L112.614 214.907L112.532 214.59L112.445 214.269L112.363 213.942L112.284 213.609L112.209 213.272L112.134 212.925L112.062 212.575L111.995 212.215L111.927 211.852L111.86 211.479L111.8 211.096L111.74 210.707L111.68 210.311L111.627 209.905L111.574 209.486L111.522 209.061L111.473 208.623L111.428 208.174L111.387 207.713L111.342 207.236L111.304 206.745L111.267 206.241L111.237 205.714L111.203 205.171L111.173 204.605L111.146 204.016L111.12 203.398L111.098 202.75L111.079 202.063L111.06 201.334L111.045 200.549L111.034 199.698L111.023 198.759L111.011 197.699L111.008 196.453L111.004 194.863L111 192.118L111.004 186.788V185.005L111.011 183.674L111.019 182.565L111.03 181.59L111.041 180.716L111.056 179.912L111.071 179.166L111.094 178.466L111.113 177.805L111.139 177.18L111.165 176.581L111.191 176.009L111.225 175.456L111.259 174.926L111.293 174.415L111.33 173.921L111.372 173.441L111.413 172.973L111.458 172.518L111.507 172.08L111.556 171.648L111.608 171.229L111.665 170.82L111.721 170.418L111.781 170.028L111.841 169.642L111.905 169.269L111.972 168.9L112.04 168.54L112.111 168.186L112.186 167.84L112.261 167.499L112.34 167.166L112.419 166.835L112.502 166.515L112.588 166.197L112.674 165.883L112.765 165.576L112.858 165.275L112.956 164.977L113.054 164.686L113.151 164.398L113.256 164.113L113.362 163.832L113.467 163.561L113.576 163.289L113.688 163.021L113.921 162.497L114.041 162.242L114.165 161.99L114.289 161.745L114.416 161.499L114.544 161.257L114.814 160.786L114.95 160.554L115.235 160.103L115.381 159.88L115.528 159.664L115.678 159.448L115.832 159.236L115.986 159.026L116.147 158.82L116.309 158.617L116.47 158.418L116.639 158.218L116.808 158.025L116.981 157.832L117.153 157.642L117.334 157.456L117.514 157.273L117.882 156.913L118.07 156.736L118.265 156.563L118.46 156.393L118.655 156.226L118.858 156.059L119.061 155.895L119.267 155.735L119.477 155.578L119.691 155.421L119.905 155.267L120.127 155.117L120.348 154.969L120.574 154.822L120.803 154.678L121.035 154.538L121.272 154.397L121.509 154.26L121.753 154.125L121.997 153.995L122.244 153.864L122.5 153.736L122.755 153.612L123.014 153.487L123.281 153.37L123.547 153.249L123.817 153.134L124.092 153.02L124.655 152.797L124.944 152.689L125.233 152.585L125.529 152.483L125.83 152.382L126.134 152.284L126.442 152.185L126.757 152.091L127.076 151.999L127.399 151.907L127.73 151.822L128.064 151.734L128.402 151.652L128.747 151.57L129.096 151.489L129.453 151.413L129.813 151.338L130.557 151.194L130.94 151.125L131.326 151.057L131.72 150.991L132.126 150.929L132.535 150.867L132.956 150.811L133.384 150.752L133.819 150.7L134.262 150.648L134.72 150.595L135.186 150.55L135.663 150.501L136.151 150.458L136.654 150.415L137.168 150.376L137.697 150.337L138.242 150.301L138.805 150.268L139.383 150.236L139.984 150.206L140.607 150.177L141.253 150.15L141.929 150.128L142.634 150.105L143.378 150.088L144.163 150.069L144.996 150.052L145.89 150.039L146.858 150.026L147.928 150.02L149.133 150.01L150.545 150.007L152.325 150.003L155.227 150H161.557L163.67 150.003L165.228 150.007L166.516 150.016L167.646 150.023L168.66 150.033L169.587 150.046L170.447 150.062L171.254 150.079L172.016 150.098L172.741 150.118L173.428 150.141L174.089 150.167L174.723 150.193L175.331 150.222L175.921 150.252L176.492 150.285L177.047 150.321L177.584 150.357L178.102 150.396L178.613 150.438L179.105 150.481L179.589 150.527L180.058 150.573L180.52 150.622L180.971 150.674L181.41 150.726L181.842 150.782L182.266 150.841L182.683 150.9L183.088 150.962L183.486 151.027L183.876 151.093L184.263 151.161L184.639 151.23L185.01 151.302L185.374 151.377L185.735 151.453L186.088 151.531L186.437 151.613L186.779 151.695L187.113 151.78L187.443 151.868L187.77 151.956L188.093 152.048L188.408 152.14L188.72 152.234L189.027 152.333L189.328 152.434L189.624 152.535L189.921 152.64L190.21 152.745L190.495 152.856L190.777 152.967L191.051 153.079L191.325 153.193L191.596 153.311L191.862 153.432L192.121 153.553L192.38 153.677L192.635 153.805L192.887 153.932L193.131 154.063L193.619 154.332L193.852 154.469L194.088 154.61L194.546 154.897L194.768 155.045L194.989 155.195L195.207 155.346L195.635 155.66L196.048 155.98L196.251 156.144L196.45 156.311L196.645 156.481L197.028 156.828L197.216 157.008L197.4 157.184L197.584 157.368L197.764 157.554L197.937 157.74L198.113 157.933L198.282 158.126L198.451 158.323L198.616 158.522L198.778 158.722L198.939 158.928L199.097 159.134L199.251 159.347L199.401 159.559L199.551 159.779L199.697 159.998L199.84 160.22L199.983 160.446L200.122 160.675L200.257 160.907L200.392 161.143L200.523 161.382L200.779 161.872L200.903 162.124L201.023 162.376L201.139 162.635L201.372 163.158L201.59 163.701L201.695 163.979L201.8 164.261L201.901 164.545L201.999 164.836L202.097 165.131L202.19 165.432L202.28 165.736L202.371 166.047L202.457 166.361L202.543 166.682L202.622 167.009L202.705 167.339L202.78 167.676L202.855 168.02L202.926 168.37L202.998 168.726L203.065 169.093L203.129 169.466L203.193 169.842L203.253 170.231L203.309 170.627L203.366 171.033L203.418 171.448L203.471 171.87L203.519 172.309L203.564 172.754L203.61 173.215L203.651 173.689L203.688 174.177L203.726 174.68L203.76 175.201L203.794 175.744L203.824 176.303L203.85 176.889L203.876 177.504L203.899 178.145L203.917 178.826L203.936 179.549L203.955 180.324L203.966 181.165L203.977 182.087L203.985 183.124L203.992 184.335L203.996 185.85L204 188.215V190.502Z" stroke="#057B8C" stroke-width="1.28984"/>
<path opacity="0.5" d="M326 77.4984V81.5485L325.996 83.2268L325.989 84.5125L325.981 85.5987L325.97 86.554L325.959 87.4177L325.944 88.2094L325.926 88.9487L325.907 89.6423L325.885 90.2966L325.863 90.9182L325.837 91.5136L325.807 92.0796L325.773 92.6292L325.74 93.1559L325.707 93.663L325.666 94.157L325.629 94.6347L325.584 95.0992L325.539 95.5507L325.491 95.9924L325.443 96.4177L325.391 96.8364L325.335 97.2454L325.279 97.6445L325.22 98.0338L325.161 98.4166L325.097 98.7895L325.031 99.1559L324.96 99.5158L324.889 99.8691L324.819 100.216L324.741 100.553L324.663 100.887L324.585 101.217L324.503 101.538L324.418 101.855L324.329 102.166L324.239 102.473L324.147 102.774L324.054 103.069L323.957 103.36L323.857 103.648L323.753 103.932L323.649 104.21L323.545 104.485L323.322 105.022L323.211 105.284L323.092 105.542L322.973 105.797L322.85 106.049L322.728 106.294L322.602 106.54L322.342 107.017L322.208 107.25L322.07 107.482L321.933 107.708L321.792 107.933L321.647 108.153L321.498 108.372L321.35 108.585L321.198 108.797L321.042 109.007L320.886 109.213L320.726 109.415L320.562 109.615L320.399 109.811L320.228 110.008L319.886 110.387L319.708 110.574L319.53 110.757L319.348 110.937L319.162 111.117L318.977 111.29L318.787 111.463L318.594 111.634L318.397 111.8L318.197 111.967L317.996 112.131L317.788 112.291L317.58 112.448L317.372 112.602L317.157 112.756L316.718 113.057L316.495 113.201L316.269 113.345L316.039 113.485L315.805 113.623L315.567 113.76L315.325 113.894L315.084 114.025L314.835 114.156L314.586 114.284L314.33 114.408L314.074 114.529L313.814 114.65L313.546 114.771L313.279 114.885L313.004 115L312.729 115.111L312.165 115.327L311.875 115.432L311.582 115.533L311.284 115.635L310.675 115.831L310.363 115.923L310.048 116.014L309.725 116.106L309.398 116.194L309.071 116.279L308.733 116.361L308.391 116.443L308.042 116.521L307.689 116.6L307.333 116.675L306.965 116.747L306.593 116.819L306.215 116.888L305.832 116.953L305.438 117.019L305.037 117.081L304.632 117.14L304.216 117.198L303.789 117.254L303.358 117.31L302.916 117.362L302.463 117.411L301.999 117.46L301.527 117.506L301.041 117.549L300.543 117.591L300.031 117.63L299.507 117.67L298.965 117.706L298.404 117.738L297.828 117.768L297.23 117.8L296.613 117.827L295.967 117.853L295.295 117.876L294.593 117.895L293.85 117.915L293.066 117.935L292.234 117.948L291.339 117.964L290.366 117.974L289.289 117.984L288.071 117.99L286.634 117.997H284.78L281.296 118H275.588L273.623 117.997L272.137 117.99L270.893 117.984L269.797 117.977L268.809 117.964L267.903 117.951L267.06 117.935L266.269 117.918L265.522 117.899L264.813 117.879L264.137 117.856L263.487 117.83L262.863 117.804L262.265 117.774L261.682 117.742L261.121 117.709L260.579 117.673L260.051 117.637L259.535 117.598L259.037 117.555L258.547 117.513L258.072 117.467L257.607 117.418L257.154 117.369L256.708 117.316L256.274 117.264L255.85 117.208L255.434 117.149L255.026 117.091L254.625 117.028L254.231 116.963L253.845 116.897L253.462 116.829L253.091 116.76L252.727 116.685L252.367 116.613L252.01 116.534L251.661 116.456L251.319 116.374L250.981 116.292L250.651 116.207L250.324 116.119L250.004 116.031L249.685 115.939L249.373 115.844L249.065 115.749L248.764 115.651L248.463 115.55L248.17 115.448L247.88 115.344L247.315 115.128L247.037 115.016L246.762 114.902L246.494 114.787L246.227 114.67L245.707 114.427L245.451 114.303L244.953 114.048L244.712 113.917L244.47 113.783L244.233 113.646L243.999 113.508L243.768 113.368L243.538 113.224L243.315 113.08L243.096 112.929L242.877 112.782L242.661 112.628L242.45 112.474L242.242 112.317L242.037 112.157L241.833 111.993L241.633 111.83L241.436 111.66L241.243 111.493L241.053 111.32L240.864 111.143L240.678 110.966L240.496 110.786L240.318 110.603L240.14 110.417L239.798 110.037L239.627 109.844L239.46 109.644L239.3 109.448L239.137 109.245L238.981 109.039L238.825 108.83L238.672 108.621L238.375 108.189L238.23 107.966L238.089 107.744L237.948 107.518L237.814 107.286L237.677 107.053L237.547 106.818L237.417 106.579L237.164 106.088L237.042 105.836L236.923 105.585L236.808 105.326L236.693 105.064L236.581 104.796L236.474 104.528L236.366 104.253L236.262 103.975L236.158 103.694L236.058 103.409L235.865 102.82L235.775 102.519L235.683 102.215L235.597 101.904L235.512 101.587L235.426 101.266L235.348 100.939L235.27 100.609L235.192 100.268L235.118 99.9248L235.047 99.5714L234.981 99.2148L234.914 98.8484L234.851 98.4755L234.787 98.096L234.728 97.7067L234.672 97.3075L234.617 96.9019L234.565 96.4864L234.513 96.0611L234.468 95.6227L234.42 95.1712L234.379 94.7099L234.338 94.2356L234.301 93.7448L234.264 93.2377L234.23 92.7143L234.197 92.1712L234.167 91.6052L234.141 91.0131L234.115 90.398L234.097 89.747L234.074 89.06L234.056 88.3304L234.041 87.5485L234.03 86.6947L234.019 85.759L234.007 84.6958L234.004 83.4493L234 81.8593V73.7852L234.004 72.0055L234.007 70.6739L234.015 69.5616L234.026 68.59L234.037 67.7132L234.052 66.9117L234.071 66.1625L234.089 65.4657L234.108 64.8048L234.134 64.1767L234.16 63.578L234.189 63.0055L234.219 62.4558L234.253 61.9258L234.286 61.4122L234.323 60.9182L234.364 60.4373L234.405 59.9727L234.453 59.518L234.498 59.0763L234.546 58.6478L234.602 58.2257L234.654 57.8168L234.709 57.4177L234.769 57.0251L234.828 56.6423L234.891 56.2661L234.958 55.8997L235.025 55.5398L235.096 55.1865L235.17 54.8397L235.244 54.4962L235.322 54.1625L235.4 53.8353L235.486 53.5115L235.567 53.1941L235.657 52.8833L235.746 52.5758L235.835 52.2715L236.028 51.6827L236.125 51.3948L236.229 51.1101L236.332 50.8321L236.436 50.5573L236.544 50.2857L236.656 50.0207L236.771 49.7557L236.886 49.4973L237.005 49.2421L237.127 48.9902L237.25 48.7416L237.376 48.4962L237.636 48.0185L237.77 47.783L238.045 47.325L238.186 47.1025L238.331 46.88L238.476 46.6609L238.624 46.4449L238.929 46.0262L239.248 45.614L239.412 45.4144L239.575 45.2181L239.742 45.0218L240.084 44.6423L240.262 44.4558L240.44 44.2726L240.622 44.0894L240.804 43.9128L240.994 43.7361L241.183 43.5627L241.569 43.2225L241.77 43.0556L241.971 42.8953L242.175 42.7317L242.383 42.5747L242.595 42.4177L242.81 42.2672L243.025 42.1134L243.245 41.9662L243.467 41.819L243.694 41.675L243.924 41.5344L244.392 41.2595L244.875 40.9913L245.373 40.7361L245.625 40.6085L245.882 40.4875L246.145 40.3664L246.409 40.2486L246.676 40.1309L246.948 40.0164L247.226 39.9051L247.505 39.7972L247.791 39.6892L248.077 39.5845L248.37 39.4798L248.667 39.3784L248.968 39.2803L249.585 39.0905L249.9 38.9956L250.22 38.9073L250.547 38.819L250.877 38.7339L251.211 38.6489L251.553 38.5671L251.899 38.4886L252.251 38.41L252.612 38.3348L252.976 38.2628L253.347 38.1908L253.722 38.1221L254.105 38.0567L254.499 37.9913L254.896 37.9291L255.301 37.867L255.717 37.8081L256.14 37.7525L256.571 37.6968L257.013 37.6445L257.462 37.5954L257.923 37.5463L258.395 37.5005L258.878 37.4547L259.375 37.4122L259.884 37.373L260.408 37.337L260.946 37.301L261.503 37.265L262.075 37.2323L262.67 37.2028L263.286 37.1767L263.925 37.1505L264.594 37.1276L265.292 37.1047L266.027 37.0851L266.804 37.0687L267.628 37.0523L268.512 37.0393L269.474 37.0262L270.529 37.0164L271.721 37.0098L273.118 37.0033L274.878 37H286.102L287.644 37.0065L288.921 37.0131L290.036 37.0229L291.039 37.0327L291.956 37.0458L292.806 37.0589L293.605 37.0752L294.359 37.0949L295.076 37.1145L295.756 37.1374L296.409 37.1636L297.037 37.1898L297.642 37.2192L298.225 37.2486L298.786 37.2846L299.336 37.3173L299.867 37.3566L300.38 37.3959L300.885 37.4351L301.375 37.4776L301.85 37.5234L302.318 37.5725L302.772 37.6216L303.217 37.6707L303.656 37.7263L304.083 37.7819L304.499 37.8375L304.911 37.8997L305.312 37.9618L305.706 38.024L306.092 38.0894L306.475 38.1581L306.85 38.2268L307.214 38.3021L307.578 38.374L307.931 38.4526L308.28 38.5311L308.625 38.6096L308.963 38.6914L309.294 38.7764L309.621 38.8648L309.944 38.9531L310.263 39.0447L310.575 39.1396L310.883 39.2345L311.188 39.3326L311.485 39.4308L311.782 39.5322L312.072 39.6369L312.358 39.7448L312.64 39.8528L312.919 39.964L313.194 40.0752L313.728 40.3108L313.992 40.4286L314.248 40.5496L314.505 40.6739L314.757 40.8015L315.006 40.9291L315.251 41.06L315.493 41.1941L315.73 41.3315L315.964 41.4689L316.195 41.6096L316.421 41.7503L316.648 41.8975L316.871 42.0447L317.086 42.1919L317.301 42.3457L317.513 42.4995L317.725 42.6565L317.929 42.8168L318.133 42.9804L318.334 43.1439L318.531 43.3108L318.917 43.651L319.289 44.0044L319.471 44.1843L319.652 44.3675L319.831 44.5507L320.005 44.7405L320.176 44.9302L320.343 45.1232L320.51 45.3195L320.674 45.5191L320.993 45.9248L321.149 46.1341L321.302 46.3435L321.599 46.7754L321.744 46.9945L321.888 47.217L322.026 47.4427L322.301 47.9073L322.431 48.1429L322.561 48.3817L322.687 48.6238L322.813 48.8724L322.936 49.121L323.174 49.6314L323.289 49.8931L323.4 50.1581L323.512 50.4264L323.616 50.7012L323.723 50.976L323.824 51.2574L323.924 51.5453L324.024 51.8364L324.117 52.1309L324.21 52.4286L324.303 52.7361L324.388 53.0436L324.559 53.6783L324.637 54.0055L324.719 54.3359L324.793 54.6761L324.867 55.0196L324.938 55.3697L325.008 55.7263L325.075 56.0894L325.138 56.4624L325.201 56.8419L325.261 57.2279L325.32 57.6238L325.372 58.0294L325.428 58.4449L325.476 58.8702L325.525 59.3053L325.569 59.7535L325.614 60.2116L325.655 60.6859L325.695 61.1734L325.729 61.6772L325.762 62.2007L325.796 62.7405L325.825 63.3032L325.851 63.8888L325.877 64.5005L325.9 65.145L325.922 65.8255L325.941 66.5485L325.955 67.3206L325.967 68.1614L325.978 69.084L325.989 70.121L325.993 71.3315L326 72.8495V77.4984Z" stroke="#057B8C" stroke-width="1.28984"/>
<g opacity="0.5">
<mask id="mask2_2195_18867" style="mask-type:luminance" maskUnits="userSpaceOnUse" x="274" y="71" width="100" height="91">
<path d="M373.333 71.8018V160.629H275.023V71.8018H373.333Z" fill="white" stroke="white" stroke-width="1.33333"/>
</mask>
<g mask="url(#mask2_2195_18867)">
<path d="M373.403 116.399V120.399L373.4 122.057L373.396 123.327L373.385 124.4L373.377 125.343L373.362 126.193L373.347 126.978L373.332 127.708L373.309 128.39L373.287 129.036L373.264 129.653L373.238 130.238L373.208 130.8L373.178 131.34L373.144 131.863L373.107 132.364L373.069 132.852L373.028 133.324L372.983 133.783L372.938 134.229L372.893 134.662L372.84 135.085L372.788 135.498L372.735 135.902L372.675 136.296L372.619 136.681L372.555 137.059L372.491 137.427L372.424 137.789L372.356 138.145L372.285 138.49L372.21 138.833L372.135 139.169L372.056 139.498L371.973 139.822L371.891 140.141L371.718 140.762L371.624 141.062L371.534 141.36L371.437 141.654L371.339 141.941L371.238 142.225L371.136 142.503L371.031 142.781L370.922 143.053L370.814 143.318L370.701 143.579L370.585 143.841L370.468 144.096L370.344 144.348L370.224 144.594L370.1 144.839L369.969 145.082L369.842 145.318L369.571 145.783L369.294 146.235L369.151 146.455L369.005 146.675L368.858 146.888L368.704 147.101L368.55 147.311L368.397 147.518L368.074 147.919L367.909 148.119L367.743 148.313L367.575 148.504L367.402 148.694L367.049 149.062L366.681 149.424L366.497 149.599L366.306 149.773L366.115 149.945L365.919 150.113L365.72 150.277L365.518 150.442L365.315 150.6L365.109 150.759L364.899 150.917L364.685 151.069L364.467 151.221L364.249 151.369L363.799 151.66L363.57 151.802L363.337 151.941L363.101 152.077L362.861 152.213L362.62 152.345L362.125 152.604L361.87 152.73L361.614 152.853L361.089 153.092L360.549 153.324L360.275 153.434L359.993 153.544L359.708 153.654L359.423 153.761L359.13 153.864L358.833 153.964L358.533 154.064L358.229 154.161L357.918 154.255L357.602 154.349L357.283 154.439L356.96 154.53L356.63 154.614L356.296 154.698L355.955 154.782L355.609 154.862L355.26 154.94L354.904 155.017L354.54 155.092L354.172 155.163L353.797 155.231L353.023 155.366L352.626 155.428L352.224 155.492L351.811 155.551L351.391 155.609L350.963 155.664L350.524 155.715L350.077 155.77L349.619 155.819L349.154 155.864L348.673 155.909L348.182 155.954L347.679 155.996L347.165 156.035L346.632 156.071L346.084 156.106L345.521 156.139L344.935 156.171L344.335 156.2L343.708 156.229L343.059 156.252L342.376 156.274L341.666 156.297L340.919 156.316L340.127 156.332L339.283 156.349L338.378 156.362L337.395 156.374L336.307 156.381L335.076 156.391L333.623 156.394L331.75 156.397L328.233 156.4L322.461 156.397L320.479 156.394L318.978 156.391L317.717 156.384L316.61 156.374L315.615 156.365L314.696 156.352L313.844 156.336L313.044 156.32L312.29 156.3L311.573 156.281L310.89 156.258L310.237 156.232L309.606 156.206L308.998 156.177L308.413 156.145L307.846 156.113L307.294 156.077L306.761 156.042L306.243 156.003L305.737 155.961L305.245 155.919L304.765 155.874L304.292 155.825L303.834 155.777L303.387 155.725L302.948 155.673L302.516 155.615L302.096 155.56L301.683 155.502L301.278 155.441L300.88 155.376L300.49 155.311L300.107 155.244L299.728 155.172L299.36 155.101L298.996 155.027L298.639 154.953L298.287 154.875L297.941 154.794L297.6 154.71L297.262 154.626L296.932 154.542L296.609 154.452L296.286 154.365L295.971 154.271L295.663 154.177L295.355 154.08L295.055 153.98L294.759 153.88L294.466 153.777L294.177 153.67L293.892 153.563L293.61 153.454L293.062 153.227L292.796 153.111L292.529 152.992L292.266 152.872L292.011 152.749L291.756 152.623L291.504 152.494L291.261 152.365L291.017 152.232L290.776 152.1L290.54 151.961L290.307 151.825L290.078 151.683L289.628 151.392L289.406 151.243L289.189 151.095L288.975 150.94L288.765 150.785L288.558 150.626L288.356 150.468L288.153 150.303L287.954 150.138L287.755 149.97L287.564 149.799L287.376 149.628L287.188 149.453L286.821 149.092L286.644 148.911L286.468 148.723L286.295 148.536L285.957 148.148L285.792 147.951L285.631 147.751L285.469 147.547L285.315 147.344L285.158 147.134L285.008 146.924L284.858 146.71L284.715 146.491L284.569 146.271L284.43 146.048L284.291 145.818L284.156 145.589L284.021 145.356L283.889 145.117L283.762 144.878L283.638 144.636L283.514 144.387L283.394 144.135L283.274 143.88L283.157 143.621L283.045 143.36L282.936 143.095L282.827 142.823L282.722 142.549L282.617 142.271L282.516 141.986L282.418 141.699L282.324 141.408L282.23 141.111L282.14 140.81L282.05 140.503L281.964 140.19L281.878 139.873L281.799 139.55L281.72 139.221L281.641 138.888L281.57 138.549L281.495 138.2L281.427 137.844L281.36 137.485L281.296 137.117L281.232 136.742L281.172 136.358L281.116 135.964L281.059 135.563L281.007 135.153L280.958 134.729L280.909 134.296L280.864 133.854L280.819 133.398L280.778 132.926L280.74 132.442L280.703 131.944L280.669 131.424L280.639 130.888L280.609 130.332L280.579 129.747L280.556 129.136L280.534 128.497L280.511 127.818L280.496 127.098L280.478 126.322L280.466 125.482L280.455 124.555L280.448 123.508L280.44 122.277L280.436 120.706V112.732L280.44 110.971L280.444 109.656L280.451 108.561L280.463 107.601L280.474 106.735L280.489 105.94L280.508 105.204L280.526 104.512L280.549 103.863L280.571 103.242L280.598 102.651L280.628 102.086L280.658 101.543L280.692 101.016L280.729 100.512L280.767 100.024L280.804 99.5492L280.849 99.0872L280.894 98.6413L280.943 98.2051L280.992 97.7786L281.044 97.365L281.097 96.9611L281.153 96.5669L281.213 96.1792L281.273 95.8012L281.341 95.4296L281.405 95.0677L281.472 94.709L281.547 94.3601L281.619 94.0176L281.694 93.6816L281.772 93.352L281.855 93.0256L281.938 92.709L282.024 92.3956L282.11 92.0854L282.2 91.7817L282.294 91.4844L282.388 91.1904L282.486 90.9028L282.587 90.6185L282.688 90.3374L282.793 90.0627L282.898 89.7913L283.011 89.5231L283.124 89.2582L283.236 88.9997L283.356 88.7444L283.476 88.4924L283.596 88.2436L283.72 87.9981L283.848 87.7557L283.979 87.5166L284.111 87.284L284.246 87.0514L284.524 86.599L284.666 86.3761L284.959 85.9431L285.113 85.7298L285.263 85.5198L285.421 85.313L285.578 85.1095L285.74 84.9091L285.905 84.712L286.07 84.5182L286.239 84.3243L286.411 84.1337L286.588 83.9495L286.764 83.7621L286.944 83.5812L287.128 83.4034L287.316 83.2257L287.504 83.0513L287.695 82.88L287.89 82.712L288.288 82.3824L288.491 82.2209L288.701 82.0625L289.121 81.7524L289.339 81.6005L289.557 81.4519L289.778 81.3065L290.003 81.1611L290.232 81.0189L290.465 80.88L290.701 80.741L290.942 80.6086L291.182 80.4728L291.426 80.3436L291.677 80.2144L291.929 80.0884L292.188 79.9656L292.447 79.846L292.709 79.7265L292.976 79.6069L293.246 79.4938L293.524 79.3807L293.801 79.2709L294.087 79.161L294.372 79.0544L294.665 78.951L294.957 78.8508L295.258 78.7507L295.873 78.5568L296.189 78.4631L296.504 78.3726L297.157 78.1982L297.491 78.1109L297.829 78.0301L298.174 77.9494L298.523 77.8718L298.88 77.7943L299.244 77.72L299.611 77.6489L299.987 77.5778L300.366 77.5099L300.756 77.4421L301.15 77.3807L301.552 77.3161L301.965 77.2579L302.381 77.1997L302.809 77.1448L303.245 77.0899L303.691 77.0382L304.145 76.9897L304.611 76.9413L305.087 76.896L305.579 76.8508L306.078 76.8088L306.596 76.77L307.122 76.7312L307.666 76.6957L308.229 76.6634L308.811 76.6311L309.411 76.602L310.03 76.5761L310.68 76.5503L311.351 76.5245L312.061 76.5051L312.8 76.4857L313.585 76.4663L314.418 76.4501L315.311 76.4372L316.283 76.4275L317.349 76.4178L318.554 76.4081L319.965 76.4049L321.748 76.4017L324.649 76.3984H330.977L333.09 76.4017L334.644 76.4081L335.935 76.4146L337.061 76.4211L338.074 76.4307L339.001 76.4437L339.865 76.4598L340.672 76.476L341.433 76.4954L342.154 76.5148L342.845 76.5374L343.501 76.5632L344.136 76.5891L344.748 76.6182L345.337 76.6472L345.907 76.6795L346.459 76.7151L346.996 76.7506L347.517 76.7894L348.024 76.8314L348.52 76.8734L349 76.9186L349.473 76.9639L349.934 77.0123L350.381 77.064L350.824 77.119L351.256 77.1739L351.68 77.2288L352.093 77.287L352.498 77.3484L352.896 77.413L353.29 77.4776L353.673 77.5455L354.052 77.6133L354.423 77.6844L354.787 77.7587L355.144 77.833L355.5 77.9106L355.846 77.9914L356.187 78.0721L356.525 78.1562L356.855 78.2434L357.182 78.3306L357.501 78.4211L357.816 78.5116L358.128 78.6085L358.435 78.7022L358.739 78.8024L359.036 78.9025L359.329 79.0059L359.618 79.1093L359.903 79.2192L360.184 79.329L360.462 79.4389L360.736 79.552L361.003 79.6683L361.269 79.7879L361.532 79.9074L361.791 80.0302L362.294 80.2822L362.542 80.4115L362.785 80.5439L363.026 80.6764L363.262 80.8121L363.495 80.9511L363.728 81.0932L363.953 81.2354L364.178 81.3808L364.399 81.5294L364.617 81.6813L364.831 81.8331L365.041 81.9882L365.251 82.1466L365.454 82.3049L365.657 82.4664L365.856 82.6312L366.051 82.7992L366.246 82.9705L366.437 83.1417L366.625 83.3194L366.809 83.4971L366.989 83.6749L367.169 83.859L367.346 84.0432L367.518 84.2338L367.687 84.4245L367.856 84.6183L368.021 84.8154L368.186 85.0158L368.344 85.2161L368.502 85.4229L368.655 85.6297L368.809 85.8397L368.96 86.0562L369.106 86.2727L369.248 86.4924L369.391 86.7153L369.53 86.9415L369.665 87.1709L369.8 87.4068L369.928 87.6426L370.059 87.8817L370.183 88.1241L370.307 88.3729L370.427 88.6217L370.547 88.8769L370.663 89.1354L370.776 89.3971L370.889 89.6621L370.997 89.9335L371.103 90.2049L371.208 90.4828L371.309 90.7671L371.407 91.0514L371.594 91.6395L371.688 91.94L371.778 92.247L371.864 92.5571L371.947 92.8738L372.03 93.1969L372.108 93.5232L372.183 93.856L372.259 94.1953L372.334 94.5443L372.401 94.8964L372.469 95.2551L372.536 95.6234L372.596 95.9982L372.656 96.3795L372.716 96.7705L372.773 97.1711L372.825 97.5815L372.874 98.0015L372.923 98.4313L372.972 98.8739L373.013 99.3263L373.058 99.7948L373.096 100.276L373.133 100.774L373.167 101.288L373.197 101.824L373.227 102.376L373.257 102.955L373.279 103.562L373.302 104.199L373.324 104.868L373.343 105.582L373.358 106.347L373.373 107.178L373.385 108.089L373.392 109.113L373.4 110.309L373.403 111.805V116.399Z" stroke="#057B8C" stroke-width="1.28984"/>
</g>
</g>
<path opacity="0.5" d="M263 167.5V171.55L262.996 173.228L262.993 174.514L262.981 175.6L262.974 176.555L262.959 177.416L262.944 178.211L262.929 178.95L262.906 179.64L262.884 180.294L262.861 180.919L262.835 181.511L262.805 182.081L262.775 182.63L262.741 183.157L262.703 183.664L262.666 184.158L262.625 184.636L262.579 185.1L262.534 185.552L262.489 185.99L262.437 186.419L262.384 186.837L262.332 187.246L262.272 187.645L262.215 188.035L262.151 188.417L262.088 188.79L262.02 189.157L261.953 189.517L261.881 189.867L261.806 190.213L261.731 190.554L261.652 190.887L261.57 191.214L261.487 191.538L261.314 192.166L261.22 192.471L261.13 192.772L261.033 193.069L260.935 193.36L260.834 193.648L260.732 193.93L260.627 194.211L260.518 194.486L260.409 194.754L260.297 195.019L260.18 195.284L260.064 195.542L259.94 195.798L259.82 196.046L259.696 196.295L259.565 196.54L259.437 196.779L259.302 197.018L259.167 197.25L258.889 197.708L258.746 197.931L258.6 198.153L258.453 198.369L258.299 198.585L258.145 198.798L257.991 199.007L257.669 199.413L257.503 199.615L257.338 199.812L257.169 200.005L256.996 200.198L256.82 200.387L256.644 200.571L256.276 200.937L256.092 201.114L255.9 201.29L255.709 201.464L255.513 201.634L255.314 201.801L255.112 201.968L254.909 202.128L254.702 202.288L254.492 202.448L254.278 202.602L254.06 202.756L253.843 202.906L253.392 203.201L253.163 203.345L252.93 203.485L252.694 203.623L252.453 203.76L252.213 203.894L251.718 204.156L251.462 204.284L251.207 204.408L250.681 204.65L250.141 204.886L249.867 204.997L249.585 205.108L249.3 205.219L249.014 205.327L248.721 205.432L248.425 205.533L248.125 205.635L247.82 205.733L247.509 205.828L247.193 205.923L246.874 206.014L246.551 206.106L246.221 206.191L245.887 206.279L245.545 206.361L245.2 206.443L244.851 206.521L244.494 206.6L244.13 206.675L243.762 206.747L243.386 206.816L242.613 206.953L242.215 207.015L241.813 207.081L241.4 207.14L240.98 207.198L240.552 207.254L240.112 207.306L239.666 207.362L239.207 207.411L238.742 207.46L238.261 207.503L237.769 207.549L237.266 207.591L236.752 207.63L236.219 207.666L235.671 207.702L235.108 207.735L234.522 207.768L233.921 207.797L233.294 207.827L232.645 207.85L231.961 207.876L231.252 207.895L230.504 207.915L229.712 207.931L228.867 207.948L227.963 207.961L226.979 207.974L225.89 207.98L224.659 207.99L223.206 207.993L221.332 207.997L217.814 208L212.04 207.997L210.057 207.993L208.555 207.99L207.294 207.984L206.186 207.974L205.191 207.964L204.271 207.951L203.419 207.935L202.619 207.918L201.865 207.899L201.148 207.879L200.464 207.856L199.811 207.83L199.18 207.804L198.572 207.774L197.986 207.742L197.419 207.709L196.868 207.673L196.334 207.637L195.816 207.598L195.309 207.555L194.818 207.513L194.337 207.467L193.864 207.418L193.406 207.369L192.959 207.316L192.52 207.264L192.088 207.205L191.667 207.149L191.254 207.091L190.849 207.028L190.451 206.963L190.061 206.898L189.678 206.829L189.298 206.757L188.93 206.685L188.566 206.61L188.21 206.534L187.857 206.456L187.511 206.374L187.17 206.289L186.832 206.204L186.501 206.119L186.178 206.027L185.855 205.939L185.54 205.844L185.232 205.749L184.924 205.651L184.624 205.55L184.327 205.448L184.034 205.344L183.745 205.236L183.46 205.128L183.178 205.016L182.63 204.787L182.364 204.67L182.097 204.549L181.834 204.428L181.579 204.303L181.324 204.176L181.072 204.045L180.828 203.914L180.584 203.78L180.344 203.646L180.107 203.505L179.874 203.368L179.645 203.224L179.42 203.08L179.195 202.929L178.973 202.779L178.756 202.628L178.542 202.471L178.331 202.314L178.125 202.154L177.922 201.994L177.719 201.827L177.52 201.66L177.321 201.49L177.13 201.317L176.942 201.143L176.754 200.966L176.386 200.6L176.21 200.417L176.034 200.227L175.861 200.037L175.523 199.645L175.358 199.445L175.035 199.04L174.881 198.83L174.723 198.621L174.423 198.189L174.28 197.967L174.134 197.744L173.995 197.518L173.856 197.286L173.721 197.054L173.586 196.818L173.454 196.576L173.327 196.334L173.203 196.089L173.079 195.837L172.959 195.582L172.838 195.323L172.722 195.062L172.609 194.797L172.501 194.528L172.392 194.254L172.287 193.975L172.181 193.694L172.08 193.406L171.982 193.115L171.889 192.821L171.795 192.52L171.705 192.215L171.614 191.905L171.528 191.587L171.442 191.267L171.363 190.94L171.284 190.606L171.205 190.269L171.134 189.925L171.059 189.572L170.991 189.212L170.924 188.849L170.86 188.476L170.796 188.097L170.736 187.707L170.68 187.308L170.623 186.903L170.571 186.487L170.522 186.059L170.473 185.62L170.428 185.172L170.383 184.711L170.342 184.233L170.304 183.743L170.267 183.239L170.233 182.715L170.203 182.169L170.173 181.606L170.143 181.014L170.12 180.396L170.098 179.748L170.075 179.061L170.06 178.332L170.041 177.546L170.03 176.696L170.019 175.757L170.011 174.697L170.004 173.451L170 171.861V163.787L170.004 162.004L170.008 160.673L170.015 159.564L170.026 158.592L170.038 157.715L170.053 156.91L170.071 156.165L170.09 155.465L170.113 154.807L170.135 154.179L170.161 153.58L170.191 153.008L170.222 152.458L170.255 151.925L170.293 151.414L170.33 150.921L170.368 150.44L170.413 149.972L170.458 149.52L170.507 149.079L170.556 148.647L170.608 148.228L170.661 147.819L170.717 147.42L170.777 147.028L170.837 146.645L170.905 146.269L170.969 145.902L171.036 145.539L171.111 145.186L171.183 144.839L171.258 144.499L171.337 144.165L171.419 143.835L171.502 143.514L171.588 143.197L171.675 142.883L171.765 142.575L171.858 142.274L171.952 141.977L172.05 141.685L172.151 141.397L172.253 141.113L172.358 140.835L172.463 140.56L172.576 140.288L172.688 140.02L172.801 139.758L172.921 139.5L173.041 139.245L173.161 138.993L173.285 138.744L173.413 138.499L173.544 138.257L173.676 138.021L173.811 137.786L174.089 137.328L174.231 137.102L174.524 136.664L174.678 136.448L174.828 136.235L174.986 136.026L175.144 135.82L175.305 135.617L175.47 135.417L175.636 135.221L175.805 135.025L175.977 134.832L176.154 134.645L176.33 134.456L176.51 134.272L176.694 134.092L176.882 133.912L177.07 133.736L177.261 133.562L177.457 133.392L177.854 133.059L178.057 132.895L178.267 132.735L178.688 132.421L178.906 132.267L179.124 132.116L179.345 131.969L179.57 131.822L179.799 131.678L180.032 131.537L180.269 131.397L180.509 131.263L180.749 131.125L180.993 130.994L181.245 130.867L181.496 130.736L181.755 130.612L182.015 130.491L182.277 130.37L182.544 130.249L182.814 130.134L183.092 130.02L183.37 129.908L183.655 129.797L183.941 129.692L184.233 129.584L184.526 129.483L184.827 129.382L185.442 129.185L185.758 129.09L186.073 128.999L186.726 128.822L187.061 128.737L187.399 128.652L187.744 128.57L188.093 128.492L188.45 128.413L188.814 128.338L189.182 128.266L189.557 128.194L189.937 128.125L190.327 128.057L190.721 127.995L191.123 127.929L191.536 127.87L191.953 127.811L192.381 127.756L192.816 127.7L193.263 127.648L193.717 127.595L194.183 127.55L194.66 127.504L195.152 127.458L195.651 127.415L196.169 127.376L196.695 127.337L197.239 127.301L197.802 127.268L198.384 127.236L198.985 127.206L199.605 127.177L200.254 127.154L200.926 127.128L201.636 127.108L202.375 127.088L203.16 127.069L203.994 127.052L204.887 127.039L205.86 127.029L206.926 127.02L208.131 127.01L209.543 127.007L211.326 127.003L214.229 127H220.559L222.672 127.003L224.227 127.007L225.518 127.016L226.645 127.023L227.659 127.033L228.586 127.046L229.449 127.062L230.257 127.079L231.019 127.098L231.74 127.118L232.431 127.141L233.088 127.167L233.722 127.193L234.334 127.222L234.924 127.252L235.494 127.285L236.046 127.321L236.583 127.357L237.105 127.396L237.612 127.438L238.107 127.481L238.588 127.527L239.061 127.572L239.523 127.622L239.97 127.674L240.413 127.73L240.844 127.782L241.269 127.841L241.682 127.9L242.087 127.962L242.485 128.027L242.879 128.093L243.262 128.161L243.642 128.23L244.013 128.302L244.377 128.377L244.734 128.453L245.091 128.531L245.436 128.613L245.778 128.695L246.116 128.78L246.446 128.868L246.773 128.956L247.092 129.048L247.407 129.14L247.719 129.238L248.027 129.336L248.331 129.434L248.628 129.535L248.92 129.64L249.21 129.748L249.495 129.856L249.777 129.967L250.054 130.078L250.328 130.193L250.595 130.311L250.862 130.432L251.124 130.553L251.383 130.677L251.887 130.932L252.134 131.063L252.378 131.197L252.619 131.331L252.855 131.469L253.088 131.609L253.321 131.753L253.546 131.897L253.771 132.045L253.993 132.195L254.211 132.349L254.425 132.503L254.635 132.66L254.845 132.82L255.048 132.98L255.251 133.144L255.45 133.311L255.645 133.481L255.84 133.654L256.032 133.827L256.219 134.007L256.403 134.187L256.584 134.367L256.764 134.554L256.94 134.743L257.113 134.933L257.282 135.126L257.451 135.322L257.616 135.522L257.781 135.725L257.939 135.928L258.097 136.137L258.251 136.346L258.404 136.559L258.555 136.778L258.701 136.997L258.844 137.22L258.986 137.446L259.125 137.675L259.26 137.907L259.396 138.146L259.523 138.384L259.655 138.627L259.779 138.872L259.903 139.124L260.023 139.376L260.143 139.634L260.259 139.896L260.372 140.161L260.484 140.429L260.593 140.704L260.698 140.979L260.804 141.26L260.905 141.548L261.003 141.836L261.19 142.431L261.284 142.735L261.374 143.046L261.461 143.36L261.543 143.681L261.626 144.008L261.705 144.338L261.78 144.675L261.855 145.019L261.93 145.372L261.998 145.729L262.065 146.092L262.133 146.465L262.193 146.844L262.253 147.23L262.313 147.626L262.369 148.032L262.422 148.447L262.471 148.873L262.519 149.308L262.568 149.756L262.61 150.214L262.655 150.688L262.692 151.176L262.73 151.679L262.763 152.2L262.794 152.743L262.824 153.302L262.854 153.888L262.876 154.503L262.899 155.147L262.921 155.824L262.94 156.547L262.955 157.323L262.97 158.163L262.981 159.086L262.989 160.123L262.996 161.333L263 162.851V167.5Z" stroke="#057B8C" stroke-width="1.28984"/>
<g opacity="0.5">
<mask id="mask3_2195_18867" style="mask-type:luminance" maskUnits="userSpaceOnUse" x="274" y="182" width="100" height="86">
<path d="M373.333 183.47V267.334H275.023V183.47H373.333Z" fill="white" stroke="white" stroke-width="1.33333"/>
</mask>
<g mask="url(#mask3_2195_18867)">
<path d="M373.403 227.597V231.597L373.4 233.255L373.396 234.528L373.385 235.598L373.377 236.541L373.362 237.394L373.347 238.176L373.332 238.906L373.309 239.591L373.287 240.237L373.264 240.851L373.238 241.439L373.208 242.002L373.178 242.541L373.144 243.061L373.107 243.565L373.069 244.053L373.028 244.525L372.983 244.981L372.938 245.426L372.893 245.863L372.84 246.286L372.788 246.696L372.735 247.1L372.675 247.494L372.619 247.879L372.555 248.257L372.491 248.628L372.424 248.987L372.356 249.343L372.285 249.692L372.21 250.034L372.135 250.37L372.056 250.7L371.973 251.023L371.891 251.339L371.804 251.653L371.718 251.96L371.624 252.263L371.534 252.561L371.437 252.855L371.339 253.142L371.238 253.427L371.136 253.705L371.031 253.979L370.922 254.251L370.814 254.519L370.701 254.78L370.585 255.039L370.468 255.294L370.344 255.546L370.224 255.795L370.1 256.037L369.969 256.28L369.842 256.519L369.571 256.984L369.294 257.436L369.151 257.656L368.858 258.089L368.704 258.302L368.397 258.716L368.235 258.92L368.074 259.12L367.743 259.514L367.575 259.705L367.402 259.892L367.226 260.079L367.049 260.264L366.865 260.445L366.497 260.8L366.115 261.143L365.919 261.311L365.72 261.479L365.315 261.802L365.109 261.96L364.899 262.115L364.685 262.27L364.467 262.422L364.249 262.571L364.024 262.716L363.799 262.858L363.57 263L363.337 263.139L363.101 263.278L362.861 263.414L362.62 263.543L362.373 263.676L362.125 263.802L361.87 263.928L361.614 264.051L361.352 264.173L361.089 264.293L360.819 264.409L360.549 264.522L360.275 264.635L359.993 264.745L359.423 264.958L359.13 265.062L358.833 265.165L358.533 265.262L358.229 265.359L357.918 265.456L357.602 265.55L357.283 265.64L356.96 265.727L356.63 265.815L356.296 265.899L355.955 265.983L355.609 266.06L355.26 266.141L354.904 266.215L354.54 266.29L354.172 266.361L353.797 266.432L353.41 266.5L353.023 266.564L352.626 266.629L352.224 266.69L351.811 266.748L351.391 266.807L350.963 266.862L350.524 266.916L350.077 266.968L349.619 267.017L349.154 267.065L348.673 267.11L348.182 267.152L347.679 267.194L347.165 267.233L346.632 267.272L346.084 267.307L345.521 267.34L344.935 267.372L344.335 267.401L343.708 267.427L343.059 267.453L342.376 267.475L341.666 267.498L340.919 267.517L340.127 267.534L339.283 267.55L338.378 267.563L337.395 267.572L336.307 267.582L335.076 267.589L333.623 267.595L331.75 267.598H322.461L320.479 267.595L318.978 267.589L317.717 267.582L316.61 267.576L315.615 267.563L314.696 267.55L313.844 267.537L313.044 267.517L312.29 267.501L311.573 267.479L310.89 267.456L310.237 267.43L309.606 267.404L308.998 267.375L308.413 267.346L307.846 267.314L307.294 267.278L306.761 267.24L306.243 267.201L305.737 267.162L305.245 267.117L304.765 267.072L304.292 267.026L303.834 266.978L303.387 266.926L302.948 266.871L302.516 266.816L302.096 266.758L301.683 266.7L301.278 266.639L300.88 266.577L300.49 266.509L300.107 266.442L299.728 266.374L299.36 266.303L298.996 266.228L298.639 266.151L298.287 266.073L297.941 265.996L297.6 265.912L297.262 265.828L296.932 265.74L296.609 265.653L296.286 265.563L295.971 265.469L295.663 265.375L295.355 265.278L295.055 265.178L294.759 265.078L294.466 264.975L294.177 264.871L293.892 264.761L293.61 264.651L293.336 264.542L293.062 264.425L292.529 264.193L292.266 264.07L291.756 263.824L291.504 263.695L291.261 263.566L291.017 263.433L290.776 263.298L290.54 263.162L290.307 263.023L290.078 262.881L289.853 262.739L289.628 262.593L289.406 262.445L289.189 262.293L288.975 262.141L288.765 261.986L288.558 261.828L288.153 261.504L287.954 261.34L287.755 261.172L287.564 261L287.188 260.651L287.004 260.474L286.821 260.293L286.468 259.924L286.295 259.734L286.126 259.543L285.957 259.349L285.792 259.152L285.631 258.952L285.469 258.748L285.315 258.541L285.158 258.335L284.858 257.908L284.715 257.692L284.569 257.469L284.43 257.246L284.291 257.02L284.021 256.554L283.889 256.318L283.762 256.079L283.638 255.834L283.514 255.585L283.394 255.336L283.274 255.081L283.157 254.822L283.045 254.561L282.827 254.024L282.722 253.75L282.617 253.469L282.516 253.188L282.418 252.9L282.324 252.606L282.23 252.309L282.14 252.008L282.05 251.701L281.964 251.391L281.878 251.071L281.799 250.751L281.72 250.422L281.641 250.086L281.57 249.746L281.495 249.401L281.427 249.045L281.36 248.683L281.296 248.315L281.232 247.94L281.172 247.556L281.116 247.165L281.059 246.761L281.007 246.351L280.958 245.931L280.909 245.498L280.864 245.055L280.819 244.596L280.778 244.128L280.74 243.643L280.703 243.142L280.669 242.625L280.639 242.089L280.609 241.53L280.579 240.948L280.556 240.338L280.534 239.695L280.511 239.019L280.496 238.299L280.478 237.523L280.466 236.683L280.455 235.756L280.448 234.709L280.44 233.478L280.436 231.904V223.93L280.44 222.172L280.444 220.857L280.451 219.762L280.463 218.799L280.474 217.936L280.489 217.141L280.508 216.405L280.526 215.713L280.549 215.061L280.571 214.44L280.598 213.852L280.628 213.287L280.658 212.741L280.692 212.217L280.729 211.713L280.767 211.222L280.804 210.747L280.849 210.288L280.894 209.839L280.943 209.403L280.992 208.98L281.044 208.566L281.097 208.159L281.153 207.765L281.213 207.377L281.273 206.999L281.341 206.631L281.405 206.266L281.472 205.91L281.547 205.561L281.619 205.219L281.694 204.883L281.772 204.553L281.855 204.227L281.938 203.907L282.024 203.594L282.11 203.287L282.2 202.983L282.294 202.686L282.388 202.392L282.486 202.101L282.587 201.816L282.688 201.539L282.793 201.261L282.898 200.989L283.011 200.721L283.236 200.198L283.356 199.942L283.476 199.69L283.596 199.442L283.72 199.196L283.848 198.957L283.979 198.718L284.111 198.482L284.246 198.253L284.385 198.023L284.524 197.8L284.666 197.577L284.813 197.358L284.959 197.144L285.113 196.931L285.263 196.721L285.421 196.514L285.578 196.311L285.74 196.11L286.07 195.716L286.239 195.522L286.411 195.335L286.588 195.147L286.764 194.963L286.944 194.782L287.128 194.601L287.504 194.252L287.695 194.081L287.89 193.913L288.089 193.745L288.288 193.584L288.491 193.422L288.911 193.105L289.121 192.954L289.339 192.802L289.557 192.653L289.778 192.504L290.003 192.362L290.232 192.22L290.465 192.078L290.701 191.942L290.942 191.806L291.182 191.674L291.426 191.545L291.677 191.416L291.929 191.29L292.447 191.044L292.709 190.924L292.976 190.808L293.246 190.692L293.524 190.582L293.801 190.469L294.372 190.256L294.957 190.049L295.258 189.949L295.565 189.852L295.873 189.758L296.189 189.664L296.504 189.574L296.83 189.483L297.157 189.396L297.491 189.312L297.829 189.228L298.174 189.151L298.523 189.07L298.88 188.995L299.244 188.921L299.611 188.847L299.987 188.779L300.366 188.708L300.756 188.643L301.15 188.579L301.552 188.517L301.965 188.456L302.381 188.398L302.809 188.343L303.245 188.288L303.691 188.236L304.145 188.188L304.611 188.139L305.087 188.094L305.579 188.052L306.078 188.01L306.596 187.968L307.122 187.932L307.666 187.897L308.229 187.865L308.811 187.832L309.411 187.803L310.03 187.774L310.68 187.748L311.351 187.726L312.061 187.703L312.8 187.684L313.585 187.667L314.418 187.651L315.311 187.638L316.283 187.625L317.349 187.616L318.554 187.609L319.965 187.603L321.748 187.6H330.977L333.09 187.603L334.644 187.606L335.935 187.613L337.061 187.622L338.074 187.632L339.001 187.645L339.865 187.658L340.672 187.677L341.433 187.693L342.154 187.716L342.845 187.739L343.501 187.761L344.136 187.787L344.748 187.816L345.337 187.848L345.907 187.881L346.459 187.916L346.996 187.952L347.517 187.991L348.024 188.029L348.52 188.075L349 188.117L349.473 188.165L349.934 188.214L350.381 188.265L350.824 188.317L351.256 188.372L351.68 188.43L352.093 188.488L352.498 188.55L352.896 188.611L353.29 188.679L353.673 188.743L354.052 188.814L354.423 188.886L354.787 188.957L355.5 189.112L355.846 189.193L356.187 189.273L356.525 189.357L356.855 189.441L357.182 189.529L357.501 189.619L357.816 189.713L358.128 189.806L358.435 189.903L358.739 190.004L359.036 190.104L359.329 190.204L359.618 190.31L359.903 190.417L360.184 190.527L360.462 190.64L360.736 190.753L361.269 190.986L361.532 191.109L361.791 191.231L362.042 191.354L362.294 191.483L362.542 191.613L362.785 191.742L363.026 191.878L363.262 192.013L363.728 192.291L364.178 192.582L364.399 192.731L364.617 192.879L364.831 193.031L365.041 193.186L365.251 193.344L365.657 193.668L365.856 193.832L366.051 194L366.246 194.172L366.437 194.343L366.625 194.517L366.809 194.695L366.989 194.876L367.169 195.06L367.346 195.244L367.518 195.432L367.687 195.622L367.856 195.819L368.021 196.013L368.186 196.214L368.502 196.621L368.809 197.041L368.96 197.254L369.106 197.471L369.391 197.916L369.53 198.143L369.665 198.372L369.8 198.605L369.928 198.841L370.059 199.083L370.183 199.325L370.307 199.571L370.427 199.823L370.547 200.078L370.663 200.333L370.776 200.595L370.889 200.86L370.997 201.131L371.103 201.406L371.208 201.684L371.309 201.965L371.407 202.253L371.5 202.543L371.594 202.841L371.688 203.141L371.778 203.448L371.864 203.758L371.947 204.075L372.03 204.395L372.108 204.724L372.183 205.057L372.259 205.396L372.334 205.742L372.401 206.094L372.469 206.456L372.536 206.821L372.596 207.196L372.656 207.577L372.716 207.972L372.773 208.372L372.825 208.779L372.874 209.199L372.923 209.629L372.972 210.072L373.013 210.527L373.058 210.993L373.096 211.477L373.133 211.975L373.167 212.489L373.197 213.022L373.227 213.578L373.257 214.156L373.279 214.76L373.302 215.397L373.324 216.069L373.343 216.783L373.358 217.549L373.373 218.376L373.385 219.287L373.392 220.311L373.4 221.51L373.403 223.006V227.597Z" stroke="#057B8C" stroke-width="1.28984"/>
</g>
</g>
</svg>
