<svg width="520" height="520" viewBox="0 0 520 520" fill="none" xmlns="http://www.w3.org/2000/svg">
<path d="M96.3435 329.83L80.9172 330.12L73.1016 330.237C70.4912 330.286 67.8683 330.276 65.2506 330.294L64.7888 330.297L64.7868 329.83L64.7306 316.692L64.7285 316.17L65.2506 316.172L80.7965 316.238C85.9788 316.243 91.1601 316.354 96.3424 316.408L96.6284 316.411L96.6264 316.692C96.6066 318.917 96.5369 321.131 96.4901 323.322L96.3435 329.83ZM96.3435 329.83L96.1958 323.2C96.149 321.013 96.0793 318.847 96.0596 316.692L96.3435 316.976C91.1612 317.029 85.9799 317.141 80.7976 317.146L65.2516 317.212L65.7706 316.693L65.7144 329.831L65.2506 329.368C67.8152 329.386 70.3747 329.376 72.9466 329.425L80.6769 329.541L96.3435 329.83Z" fill="#EEEEEE"/>
<path d="M78.9978 346.397L63.5715 346.687L55.7559 346.803C53.1455 346.852 50.5226 346.843 47.9049 346.861L47.4431 346.864L47.4411 346.397L47.3849 333.258L47.3828 332.736L47.9049 332.738L63.4508 332.804C68.6331 332.809 73.8144 332.92 78.9967 332.974L79.2827 332.978L79.2807 333.258C79.2609 335.483 79.1912 337.697 79.1444 339.888L78.9978 346.397ZM78.9978 346.397L78.8501 339.767C78.8033 337.579 78.7336 335.413 78.7139 333.258L78.9978 333.542C73.8155 333.595 68.6342 333.708 63.4519 333.713L47.9059 333.778L48.4249 333.259L48.3687 346.398L47.9049 345.934C50.4695 345.953 53.029 345.942 55.6009 345.991L63.3312 346.108L78.9978 346.397Z" fill="#EEEEEE"/>
<path d="M78.9978 62.1018L63.5715 62.392L55.7559 62.5084C53.1455 62.5573 50.5226 62.5469 47.9049 62.5656L47.4431 62.5688L47.4411 62.1018L47.3849 48.9635L47.3828 48.4414L47.9049 48.4435L63.4508 48.509C68.6331 48.5142 73.8144 48.6255 78.9967 48.6796L79.2827 48.6827L79.2807 48.9635C79.2609 51.188 79.1912 53.4022 79.1444 55.5935L78.9978 62.1018ZM78.9978 62.1018L78.8501 55.4718C78.8033 53.2847 78.7336 51.1184 78.7139 48.9635L78.9978 49.2474C73.8155 49.3004 68.6342 49.4128 63.4519 49.418L47.9059 49.4824L48.4249 48.9635L48.3687 62.1018L47.9049 61.638C50.4695 61.6567 53.029 61.6463 55.6009 61.6952L63.3312 61.8116L78.9978 62.1018Z" fill="#EEEEEE"/>
<path d="M472.095 62.1018L456.669 62.392L448.854 62.5084C446.243 62.5573 443.62 62.5469 441.003 62.5656L440.541 62.5688L440.539 62.1018L440.483 48.9635L440.48 48.4414L441.003 48.4435L456.548 48.509C461.731 48.5142 466.912 48.6255 472.094 48.6796L472.38 48.6827L472.378 48.9635C472.359 51.188 472.289 53.4022 472.242 55.5935L472.095 62.1018ZM472.095 62.1018L471.948 55.4718C471.901 53.2847 471.831 51.1184 471.812 48.9635L472.095 49.2474C466.913 49.3004 461.731 49.4128 456.55 49.418L441.004 49.4835L441.523 48.9645L441.466 62.1028L441.003 61.639C443.567 61.6577 446.127 61.6473 448.699 61.6962L456.429 61.8127L472.095 62.1018Z" fill="#EEEEEE"/>
<path d="M454.752 78.6682L439.325 78.9584L431.51 79.0749C428.899 79.1237 426.276 79.1133 423.659 79.132L423.197 79.1352L423.195 78.6682L423.139 65.5299L423.137 65.0078L423.659 65.0099L439.205 65.0754C444.387 65.0806 449.568 65.1919 454.751 65.246L455.037 65.2491L455.035 65.5299C455.015 67.7545 454.945 69.9686 454.898 72.1599L454.752 78.6682ZM454.752 78.6682L454.604 72.0382C454.557 69.8511 454.488 67.6848 454.468 65.5299L454.752 65.8138C449.569 65.8669 444.388 65.9792 439.206 65.9844L423.66 66.0499L424.179 65.5309L424.123 78.6692L423.659 78.2054C426.223 78.2241 428.783 78.2137 431.355 78.2626L439.085 78.3791L454.752 78.6682Z" fill="#EEEEEE"/>
<path d="M375.121 232.373L359.695 232.663L351.879 232.78C349.268 232.829 346.646 232.819 344.028 232.837L343.566 232.84L343.564 232.373L343.508 219.235L343.506 218.713L344.028 218.715L359.574 218.78C364.756 218.786 369.937 218.898 375.12 218.951L375.406 218.954L375.404 219.235C375.384 221.46 375.314 223.674 375.267 225.865L375.121 232.373ZM375.121 232.373L374.973 225.743C374.926 223.555 374.857 221.39 374.837 219.235L375.121 219.519C369.938 219.572 364.756 219.684 359.575 219.689L344.029 219.755L344.548 219.236L344.492 232.374L344.028 231.912C346.593 231.929 349.152 231.92 351.724 231.969L359.454 232.085L375.121 232.373Z" fill="#EEEEEE"/>
<path d="M357.775 248.942L342.349 249.232L334.533 249.348C331.923 249.397 329.3 249.387 326.682 249.405L326.22 249.409L326.218 248.942L326.162 235.803L326.16 235.281L326.682 235.283L342.228 235.349C347.41 235.354 352.592 235.466 357.774 235.519L358.06 235.523L358.058 235.803C358.038 238.028 357.969 240.242 357.922 242.433L357.775 248.942ZM357.775 248.942L357.627 242.312C357.581 240.125 357.511 237.958 357.491 235.803L357.775 236.087C352.593 236.14 347.412 236.253 342.229 236.258L326.683 236.323L327.202 235.804L327.146 248.943L326.682 248.479C329.247 248.498 331.806 248.487 334.378 248.536L342.109 248.653L357.775 248.942Z" fill="#EEEEEE"/>
<path d="M340.5 232.373L325.073 232.663L317.258 232.78C314.647 232.829 312.025 232.819 309.407 232.837L308.945 232.84L308.943 232.373L308.887 219.235L308.885 218.713L309.407 218.715L324.953 218.78C330.135 218.786 335.316 218.898 340.499 218.951L340.785 218.954L340.783 219.235C340.763 221.46 340.693 223.674 340.646 225.865L340.5 232.373ZM340.5 232.373L340.352 225.743C340.305 223.555 340.236 221.39 340.216 219.235L340.5 219.519C335.317 219.572 330.135 219.684 324.954 219.689L309.408 219.755L309.927 219.236L309.871 232.374L309.407 231.912C311.972 231.929 314.531 231.92 317.103 231.969L324.833 232.085L340.5 232.373Z" fill="#EEEEEE"/>
<path d="M472.095 346.397L456.669 346.687L448.854 346.803C446.243 346.852 443.62 346.843 441.003 346.861L440.541 346.864L440.539 346.397L440.483 333.258L440.48 332.736L441.003 332.738L456.548 332.804C461.731 332.809 466.913 332.92 472.094 332.974L472.38 332.978L472.378 333.258C472.359 335.483 472.289 337.697 472.242 339.888L472.095 346.397ZM472.095 346.397L471.948 339.767C471.901 337.579 471.831 335.413 471.812 333.258L472.095 333.542C466.913 333.595 461.732 333.708 456.55 333.713L441.004 333.778L441.523 333.259L441.466 346.398L441.003 345.934C443.567 345.953 446.127 345.942 448.699 345.991L456.429 346.108L472.095 346.397Z" fill="#EEEEEE"/>
<path d="M207.924 101.172L192.497 101.462L184.682 101.579C182.071 101.628 179.448 101.617 176.831 101.636L176.369 101.639L176.367 101.172L176.311 88.0338L176.309 87.5117L176.831 87.5138L192.377 87.5793C197.559 87.5845 202.74 87.6958 207.923 87.7499L208.209 87.753L208.206 88.0338C208.187 90.2584 208.117 92.4725 208.07 94.6638L207.924 101.172ZM207.924 101.172L207.776 94.5421C207.729 92.355 207.659 90.1887 207.64 88.0338L207.924 88.3177C202.741 88.3708 197.56 88.4831 192.378 88.4883L176.832 88.5538L177.351 88.0348L177.295 101.173L176.831 100.709C179.395 100.728 181.955 100.718 184.527 100.767L192.257 100.883L207.924 101.172Z" fill="#EEEEEE"/>
<path d="M440.154 188.209L446.276 178.338L443.253 176.466C442.364 175.915 441.882 174.911 441.972 173.869C442.02 173.292 442.039 172.713 442.027 172.132C442.004 171.089 442.549 170.118 443.468 169.625L446.602 167.945L441.11 157.706L437.978 159.387C437.059 159.879 435.949 159.796 435.093 159.2C434.616 158.869 434.123 158.563 433.616 158.285C432.699 157.783 432.128 156.825 432.161 155.781L432.274 152.226L420.664 151.865L420.557 155.432C420.526 156.479 419.884 157.389 418.938 157.836C418.681 157.958 418.426 158.085 418.174 158.221C417.922 158.356 417.674 158.497 417.432 158.644C416.54 159.183 415.433 159.214 414.548 158.666L411.503 156.779L405.38 166.65L408.409 168.529C409.297 169.081 409.778 170.087 409.688 171.129C409.638 171.702 409.619 172.28 409.631 172.859C409.653 173.9 409.108 174.87 408.189 175.362L405.055 177.043L410.546 187.281L413.68 185.601C414.599 185.108 415.707 185.191 416.563 185.785C417.039 186.115 417.531 186.418 418.036 186.694C418.954 187.195 419.526 188.153 419.494 189.198L419.385 192.761L430.994 193.122L431.106 189.558C431.138 188.516 431.777 187.609 432.72 187.163C432.978 187.041 433.235 186.911 433.489 186.775C433.741 186.64 433.99 186.498 434.233 186.352C435.129 185.811 436.241 185.78 437.131 186.332L440.154 188.209ZM430.325 180.879C425.695 183.363 419.933 181.623 417.449 176.993C414.966 172.363 416.701 166.593 421.332 164.109C425.962 161.626 431.736 163.369 434.219 167.999C436.702 172.63 434.955 178.397 430.325 180.879Z" fill="#EEEEEE"/>
<path d="M105.591 300.05L111.714 290.179L108.69 288.306C107.801 287.755 107.32 286.75 107.409 285.708C107.459 285.132 107.477 284.553 107.464 283.972C107.441 282.928 107.986 281.958 108.906 281.465L112.039 279.785L106.548 269.546L103.415 271.226C102.496 271.719 101.386 271.636 100.531 271.04C100.053 270.708 99.5602 270.403 99.0537 270.125C98.1364 269.623 97.5655 268.665 97.5988 267.621L97.7111 264.066L86.1016 263.705L85.9944 267.272C85.9632 268.319 85.3215 269.228 84.3751 269.676C84.1183 269.796 83.8635 269.925 83.6118 270.061C83.3591 270.196 83.1115 270.337 82.8692 270.484C81.9779 271.023 80.8703 271.054 79.9853 270.506L76.9402 268.619L70.8177 278.49L73.8462 280.369C74.7343 280.921 75.2159 281.927 75.1254 282.969C75.0755 283.543 75.0567 284.12 75.0682 284.699C75.09 285.74 74.5451 286.71 73.6267 287.202L70.4922 288.882L75.9834 299.121L79.1179 297.441C80.0363 296.948 81.1449 297.031 82.0008 297.625C82.4761 297.954 82.968 298.258 83.4735 298.534C84.3918 299.035 84.9638 299.993 84.9316 301.038L84.8223 304.601L96.4319 304.962L96.5432 301.398C96.5754 300.356 97.215 299.449 98.1572 299.004C98.4152 298.882 98.672 298.752 98.9268 298.616C99.1796 298.481 99.4271 298.339 99.6704 298.193C100.567 297.652 101.679 297.62 102.569 298.173L105.591 300.05ZM95.7611 292.72C91.131 295.204 85.3694 293.464 82.8859 288.834C80.4023 284.203 82.1371 278.434 86.7682 275.95C91.3983 273.467 97.1723 275.21 99.6559 279.84C102.139 284.471 100.391 290.237 95.7611 292.72Z" fill="#EEEEEE"/>
<path d="M224.502 111.007L220.436 103.959L218.279 105.205C217.645 105.572 216.865 105.537 216.251 105.137C215.912 104.915 215.56 104.712 215.198 104.527C214.546 104.197 214.127 103.538 214.127 102.808V100.318H205.988V102.809C205.988 103.539 205.569 104.198 204.918 104.528C204.555 104.712 204.204 104.916 203.865 105.138C203.251 105.537 202.471 105.573 201.837 105.206L199.68 103.96L195.613 111.009L197.78 112.255C198.415 112.622 198.764 113.318 198.727 114.051C198.717 114.249 198.711 114.449 198.711 114.65C198.711 114.85 198.717 115.05 198.727 115.249C198.764 115.978 198.417 116.671 197.786 117.036L195.613 118.292L199.68 125.34L201.843 124.093C202.477 123.727 203.258 123.763 203.872 124.163C204.21 124.384 204.559 124.587 204.921 124.771C205.571 125.103 205.989 125.76 205.989 126.49V128.982H214.128V126.49C214.128 125.76 214.546 125.103 215.196 124.771C215.557 124.587 215.908 124.384 216.245 124.163C216.858 123.763 217.639 123.727 218.274 124.093L220.437 125.34L224.503 118.292L222.34 117.044C221.707 116.679 221.36 115.984 221.396 115.254C221.406 115.054 221.41 114.853 221.41 114.651C221.41 114.45 221.405 114.25 221.396 114.052C221.358 113.319 221.708 112.622 222.343 112.255L224.502 111.007ZM216.723 114.65C216.723 118.33 213.742 121.312 210.061 121.312C206.38 121.312 203.392 118.33 203.392 114.65C203.392 110.969 206.38 107.981 210.061 107.981C213.742 107.981 216.723 110.969 216.723 114.65Z" fill="#EEEEEE"/>
<path d="M92.3894 315.993C78.7976 329.299 76.5169 349.884 79.3811 367.914C79.4549 368.323 80.0883 368.212 80.0883 367.828C80.0883 363.723 79.9645 359.655 79.977 355.6C80.0508 355.414 80.1132 355.241 80.1881 355.054C83.7345 352.475 86.9959 349.561 89.0177 345.568C91.287 341.104 92.1793 336.068 93.9161 331.406C94.0773 330.96 93.601 331.091 93.29 331.321C85.0231 337.417 82.3877 343.98 80.0155 352.748C80.1267 348.197 80.4741 343.646 81.4538 339.095C83.2395 330.774 86.7734 322.527 92.7513 316.352C92.9728 316.117 92.6255 315.757 92.3894 315.993Z" fill="#344054"/>
<path d="M94.9447 317.544C97.2827 317.623 98.7491 321.36 100.571 322.451C101.535 323.031 102.474 322.996 103.151 322.045C104.957 319.526 102.48 316.416 100.15 314.677C101.816 315.362 103.198 316.566 104.994 316.907C106.082 317.106 106.928 316.703 107.181 315.597C107.973 312.161 103.663 310.633 100.706 310.561C102.139 309.564 106.249 306.855 104.066 305.523C101.853 304.186 97.032 308.06 95.4595 309.335C93.1487 311.21 90.3916 314.013 90.2876 316.945C90.1524 320.37 93.1455 318.263 94.9447 317.544Z" fill="#4444B3"/>
<path opacity="0.1" d="M94.9447 317.544C97.2827 317.623 98.7491 321.36 100.571 322.451C101.535 323.031 102.474 322.996 103.151 322.045C104.957 319.526 102.48 316.416 100.15 314.677C101.816 315.362 103.198 316.566 104.994 316.907C106.082 317.106 106.928 316.703 107.181 315.597C107.973 312.161 103.663 310.633 100.706 310.561C102.139 309.564 106.249 306.855 104.066 305.523C101.853 304.186 97.032 308.06 95.4595 309.335C93.1487 311.21 90.3916 314.013 90.2876 316.945C90.1524 320.37 93.1455 318.263 94.9447 317.544Z" fill="#000407"/>
<path d="M94.2682 318.122C97.2582 316.763 103 318.719 103.489 317.587C104.479 315.285 99.8894 313.704 97.4121 313.398C99.6939 312.78 104.065 311.796 103.931 309.595C103.767 306.909 97.2259 309.218 93.9156 311.757C89.7452 314.955 89.7723 318.041 90.4618 318.659C91.4071 319.507 93.7742 318.346 94.2682 318.122Z" fill="#4444B3"/>
<path d="M61.4363 314.676C75.5231 327.455 78.587 347.938 76.4103 366.065C76.352 366.477 75.7155 366.39 75.701 366.006C75.545 361.904 75.5138 357.835 75.3474 353.784C75.2662 353.601 75.1976 353.43 75.1154 353.246C71.4734 350.803 68.1038 348.016 65.9323 344.103C63.4945 339.728 62.4108 334.731 60.4993 330.138C60.3215 329.698 60.8019 329.81 61.1223 330.028C69.6149 335.807 72.4988 342.264 75.2028 350.934C74.9178 346.391 74.3979 341.856 73.2466 337.346C71.1458 329.099 67.3009 320.993 61.0931 315.049C60.8591 314.823 61.1919 314.449 61.4363 314.676Z" fill="#344054"/>
<path d="M58.944 316.322C56.6103 316.49 55.2884 320.281 53.509 321.439C52.5678 322.056 51.6287 322.056 50.9152 321.132C49.0151 318.682 51.3718 315.481 53.6338 313.655C51.9947 314.403 50.6594 315.658 48.8779 316.068C47.7983 316.308 46.9383 315.938 46.6419 314.842C45.7204 311.439 49.9688 309.747 52.9203 309.563C51.4498 308.622 47.2409 306.071 49.3719 304.657C51.5309 303.236 56.4969 306.923 58.1162 308.139C60.4967 309.924 63.3578 312.62 63.5741 315.547C63.8393 318.963 60.7692 316.971 58.944 316.322Z" fill="#4444B3"/>
<path opacity="0.1" d="M58.944 316.322C56.6103 316.49 55.2884 320.281 53.509 321.439C52.5678 322.056 51.6287 322.056 50.9152 321.132C49.0151 318.682 51.3718 315.481 53.6338 313.655C51.9947 314.403 50.6594 315.658 48.8779 316.068C47.7983 316.308 46.9383 315.938 46.6419 314.842C45.7204 311.439 49.9688 309.747 52.9203 309.563C51.4498 308.622 47.2409 306.071 49.3719 304.657C51.5309 303.236 56.4969 306.923 58.1162 308.139C60.4967 309.924 63.3578 312.62 63.5741 315.547C63.8393 318.963 60.7692 316.971 58.944 316.322Z" fill="#000407"/>
<path d="M59.6424 316.873C56.6035 315.628 50.9386 317.802 50.4082 316.69C49.3318 314.426 53.8569 312.673 56.3206 312.273C54.017 311.743 49.6116 310.925 49.6625 308.721C49.7239 306.031 56.3477 308.09 59.7526 310.501C64.0416 313.538 64.1321 316.622 63.4665 317.266C62.5533 318.149 60.1437 317.079 59.6424 316.873Z" fill="#4444B3"/>
<path d="M75.8431 348.426C76.8831 355.161 78.1727 362.125 80.2174 368.632C80.4129 369.225 81.2927 369.073 81.2022 368.434C80.2766 362.207 78.5898 356.095 77.6652 349.868C76.725 343.568 76.2227 337.18 76.5836 330.808C77.1764 320.316 80.026 309.155 86.8734 300.944C87.0242 300.749 86.7049 300.474 86.5499 300.655C72.8417 316.637 75.0226 336.234 75.035 337.991C73.0944 331.373 71.0945 323.789 63.7542 317.051C63.438 316.76 63.1905 316.898 63.2435 317.392C64.556 329.665 67.9682 336.073 75.0839 342.634C75.2836 344.579 75.5342 346.514 75.8431 348.426Z" fill="#344054"/>
<path d="M86.9945 302.782C89.4604 301.687 92.8622 304.826 95.3021 305.041C96.5937 305.157 97.5505 304.648 97.7752 303.322C98.3805 299.797 94.2444 297.819 90.9517 297.187C93.0255 297.059 95.0649 297.612 97.1002 297.062C98.3295 296.721 99.0034 295.877 98.7112 294.602C97.8022 290.638 92.5617 291.221 89.4573 292.636C90.4432 290.88 93.3417 286 90.4068 285.717C87.4386 285.443 84.3862 291.889 83.3961 294.004C81.9422 297.114 80.4925 301.408 81.8611 304.504C83.445 308.125 85.4897 304.432 86.9945 302.782Z" fill="#4444B3"/>
<path opacity="0.1" d="M86.9945 302.782C89.4604 301.687 92.8622 304.826 95.3021 305.041C96.5937 305.157 97.5505 304.648 97.7752 303.322C98.3805 299.797 94.2444 297.819 90.9517 297.187C93.0255 297.059 95.0649 297.612 97.1002 297.062C98.3295 296.721 99.0034 295.877 98.7112 294.602C97.8022 290.638 92.5617 291.221 89.4573 292.636C90.4432 290.88 93.3417 286 90.4068 285.717C87.4386 285.443 84.3862 291.889 83.3961 294.004C81.9422 297.114 80.4925 301.408 81.8611 304.504C83.445 308.125 85.4897 304.432 86.9945 302.782Z" fill="#000407"/>
<path d="M86.5816 303.721C88.9996 300.806 95.9426 299.944 95.8792 298.525C95.7471 295.638 90.1904 296.309 87.4656 297.237C89.5217 295.448 93.561 292.226 92.3141 290.01C90.7915 287.305 85.1682 292.995 83.0113 297.296C80.2937 302.713 81.8745 305.901 82.9021 306.195C84.3113 306.597 86.1833 304.202 86.5816 303.721Z" fill="#4444B3"/>
<path d="M66.8248 352.119L60.7793 398.312H97.5683C96.8101 394.219 89.9627 352.066 89.9627 352.066L66.8248 352.119Z" fill="#4444B3"/>
<path d="M45.1094 398.468L98.8316 398.215L152.555 398.124L260 397.949L367.446 398.123L421.168 398.214L474.892 398.468L421.168 398.723L367.446 398.814L260 398.987L152.555 398.813L98.8316 398.721L45.1094 398.468Z" fill="#344054"/>
<path d="M260 488.92C345.615 488.92 415.019 479.107 415.019 467.002C415.019 454.897 345.615 445.084 260 445.084C174.385 445.084 104.98 454.897 104.98 467.002C104.98 479.107 174.385 488.92 260 488.92Z" fill="#EEEEEE"/>
<path d="M163.875 236.779L157.417 211.372L106.418 224.333L99.6777 197.813L140.433 104.929L160.648 99.791L180.302 177.124L196.621 172.977L203.408 199.682L187.089 203.83L193.546 229.237L163.875 236.779ZM128.933 190.181L154.155 183.771L145.812 150.945L128.933 190.181Z" fill="#344054"/>
<path d="M309.94 151.962C309.94 160.382 308.663 168.131 306.113 175.211C303.56 182.292 300.052 188.414 295.587 193.581C291.121 198.748 285.859 202.766 279.802 205.636C273.741 208.506 267.139 209.941 259.997 209.941C252.851 209.941 246.22 208.506 240.096 205.636C233.973 202.765 228.678 198.747 224.214 193.581C219.747 188.414 216.273 182.292 213.786 175.211C211.299 168.131 210.055 160.382 210.055 151.962C210.055 143.543 211.299 135.793 213.786 128.714C216.274 121.634 219.747 115.511 224.214 110.345C228.678 105.178 233.973 101.13 240.096 98.1943C246.22 95.2615 252.851 93.793 259.997 93.793C267.139 93.793 273.74 95.2615 279.802 98.1943C285.859 101.13 291.121 105.178 295.587 110.345C300.052 115.511 303.56 121.634 306.113 128.714C308.663 135.793 309.94 143.543 309.94 151.962ZM279.133 151.962C279.133 143.035 277.345 135.793 273.774 130.244C270.201 124.696 265.61 121.921 259.998 121.921C254.129 121.921 249.441 124.696 245.934 130.244C242.424 135.793 240.671 143.035 240.671 151.962C240.671 160.893 242.424 168.102 245.934 173.585C249.441 179.071 254.129 181.813 259.998 181.813C265.61 181.813 270.201 179.072 273.774 173.585C277.346 168.102 279.133 160.893 279.133 151.962Z" fill="#344054"/>
<path d="M364.876 231.881L369.068 206.004L317.125 197.588L321.501 170.578L395.87 101.6L416.459 104.935L403.698 183.7L420.32 186.393L415.914 213.593L399.291 210.9L395.099 236.778L364.876 231.881ZM351.375 175.224L377.063 179.386L382.48 145.954L351.375 175.224Z" fill="#344054"/>
<path d="M217.02 75.3597C214.835 75.3597 212.854 74.9323 211.076 74.0784C209.296 73.2246 207.771 72.09 206.497 70.6756C205.222 69.2622 204.235 67.644 203.535 65.824C202.835 64.004 202.484 62.1413 202.484 60.236C202.484 58.2476 202.855 56.3433 203.597 54.5223C204.339 52.7023 205.362 51.0913 206.664 49.6904C207.966 48.2896 209.514 47.1768 211.307 46.35C213.099 45.5242 215.046 45.1113 217.146 45.1113C219.303 45.1113 221.27 45.5523 223.049 46.4342C224.828 47.3161 226.347 48.4716 227.608 49.9005C228.868 51.3295 229.848 52.954 230.549 54.774C231.249 56.595 231.599 58.4431 231.599 60.3203C231.599 62.3098 231.234 64.2057 230.507 66.0132C229.778 67.8197 228.77 69.4161 227.482 70.8025C226.193 72.1888 224.653 73.2953 222.861 74.1211C221.067 74.9468 219.121 75.3597 217.02 75.3597ZM208.366 60.235C208.366 61.5236 208.561 62.7705 208.953 63.9738C209.345 65.1781 209.912 66.2431 210.655 67.1666C211.396 68.0912 212.307 68.8327 213.386 69.3932C214.463 69.9538 215.689 70.2336 217.062 70.2336C218.462 70.2336 219.702 69.9465 220.78 69.3725C221.859 68.7994 222.769 68.035 223.511 67.0824C224.253 66.1308 224.813 65.0596 225.192 63.8688C225.57 62.678 225.759 61.4674 225.759 60.234C225.759 58.9464 225.555 57.6995 225.149 56.4952C224.742 55.2908 224.168 54.2269 223.427 53.3024C222.684 52.3778 221.774 51.6436 220.697 51.0965C219.618 50.5505 218.407 50.277 217.063 50.277C215.662 50.277 214.416 50.5641 213.323 51.1381C212.231 51.7122 211.321 52.4683 210.593 53.4064C209.864 54.3455 209.312 55.4094 208.933 56.5992C208.555 57.7921 208.366 59.0026 208.366 60.235Z" fill="#344054"/>
<path d="M245.674 75.5693C243.881 75.5693 242.271 75.2615 240.843 74.6447C239.414 74.0291 238.202 73.195 237.208 72.1456C236.214 71.0952 235.45 69.8836 234.918 68.5108C234.385 67.1391 234.119 65.6955 234.119 64.1834C234.119 62.6431 234.385 61.1871 234.918 59.8143C235.449 58.4426 236.214 57.231 237.208 56.1806C238.202 55.1302 239.414 54.2971 240.843 53.6804C242.271 53.0647 243.881 52.7559 245.674 52.7559C247.465 52.7559 249.069 53.0647 250.485 53.6804C251.898 54.2971 253.103 55.1302 254.098 56.1806C255.092 57.231 255.855 58.4426 256.388 59.8143C256.919 61.1871 257.185 62.6431 257.185 64.1834C257.185 65.6955 256.919 67.1391 256.388 68.5108C255.855 69.8836 255.099 71.0942 254.119 72.1456C253.139 73.196 251.934 74.0301 250.506 74.6447C249.076 75.2604 247.465 75.5693 245.674 75.5693ZM239.917 64.1834C239.917 65.1641 240.065 66.0533 240.358 66.851C240.652 67.6497 241.058 68.3423 241.576 68.931C242.094 69.5186 242.703 69.9741 243.403 70.2965C244.103 70.6189 244.859 70.7801 245.673 70.7801C246.485 70.7801 247.241 70.6189 247.941 70.2965C248.641 69.9751 249.25 69.5196 249.768 68.931C250.286 68.3423 250.693 67.6424 250.986 66.8302C251.28 66.0179 251.427 65.1225 251.427 64.1418C251.427 63.1902 251.279 62.3083 250.986 61.495C250.692 60.6827 250.286 59.9828 249.768 59.3942C249.249 58.8055 248.64 58.3511 247.941 58.0287C247.241 57.7063 246.485 57.5451 245.673 57.5451C244.859 57.5451 244.103 57.7135 243.403 58.0495C242.703 58.3854 242.094 58.8482 241.576 59.4358C241.057 60.0244 240.651 60.7243 240.358 61.5366C240.064 62.3499 239.917 63.2318 239.917 64.1834Z" fill="#344054"/>
<path d="M274.156 75.5693C272.419 75.5693 270.907 75.1845 269.62 74.4139C268.331 73.6443 267.322 72.6011 266.594 71.2845V84.0983H260.965V53.1344H265.88V56.9148C266.692 55.6273 267.743 54.6112 269.031 53.8687C270.319 53.1271 271.804 52.7559 273.483 52.7559C274.968 52.7559 276.34 53.0575 277.601 53.6596C278.861 54.2618 279.947 55.074 280.857 56.0963C281.767 57.1187 282.481 58.323 283 59.7093C283.518 61.0956 283.777 62.5599 283.777 64.1002C283.777 65.6966 283.539 67.1952 283.063 68.5951C282.586 69.9959 281.921 71.2148 281.067 72.2507C280.212 73.2875 279.197 74.0987 278.021 74.6874C276.846 75.275 275.557 75.5693 274.156 75.5693ZM272.267 70.7801C273.107 70.7801 273.884 70.5981 274.598 70.2341C275.312 69.8701 275.921 69.3803 276.425 68.7635C276.929 68.1479 277.321 67.4334 277.602 66.6201C277.883 65.8079 278.022 64.9686 278.022 64.1002C278.022 63.1756 277.868 62.3145 277.56 61.5168C277.251 60.7181 276.825 60.0255 276.279 59.4368C275.733 58.8492 275.088 58.3864 274.347 58.0505C273.604 57.7146 272.799 57.5461 271.932 57.5461C271.399 57.5461 270.853 57.6376 270.294 57.8196C269.733 58.0016 269.215 58.2606 268.739 58.5975C268.263 58.9335 267.836 59.3266 267.458 59.7738C267.08 60.222 266.792 60.7129 266.596 61.2443V66.4121C267.101 67.6726 267.871 68.7157 268.907 69.5415C269.941 70.3672 271.062 70.7801 272.267 70.7801Z" fill="#344054"/>
<path d="M295.92 75.569C294.072 75.569 292.264 75.2747 290.5 74.6871C288.736 74.0995 287.223 73.2581 285.963 72.1661L288.064 68.6374C289.408 69.59 290.718 70.3107 291.992 70.8006C293.267 71.2915 294.534 71.5359 295.794 71.5359C296.913 71.5359 297.796 71.3258 298.441 70.9056C299.085 70.4855 299.407 69.8833 299.407 69.0991C299.407 68.315 299.029 67.7409 298.272 67.3769C297.516 67.0129 296.284 66.5927 294.575 66.1164C293.147 65.7243 291.928 65.3458 290.92 64.9818C289.911 64.6178 289.098 64.2049 288.483 63.7421C287.866 63.2803 287.419 62.7479 287.138 62.1457C286.857 61.5435 286.719 60.8218 286.719 59.9814C286.719 58.8614 286.935 57.8536 287.37 56.9561C287.804 56.0606 288.413 55.2962 289.197 54.666C289.981 54.0358 290.9 53.5532 291.949 53.2173C293 52.8814 294.139 52.7129 295.373 52.7129C297.025 52.7129 298.572 52.9511 300.015 53.4274C301.458 53.9037 302.781 54.6733 303.985 55.7383L301.716 59.1411C300.596 58.3008 299.511 57.6851 298.46 57.2931C297.409 56.901 296.366 56.7055 295.33 56.7055C294.378 56.7055 293.579 56.902 292.935 57.2931C292.29 57.6851 291.968 58.3154 291.968 59.1838C291.968 59.5759 292.045 59.8983 292.2 60.1499C292.353 60.4016 292.599 60.6263 292.935 60.8218C293.271 61.0183 293.712 61.2076 294.258 61.3886C294.804 61.5716 295.483 61.7599 296.295 61.9554C297.807 62.3475 299.102 62.7395 300.181 63.1316C301.259 63.5237 302.141 63.9719 302.828 64.4753C303.514 64.9797 304.018 65.5611 304.341 66.2183C304.662 66.8767 304.823 67.6681 304.823 68.5927C304.823 70.7496 304.026 72.451 302.428 73.697C300.836 74.946 298.664 75.569 295.92 75.569Z" fill="#344054"/>
<path d="M309.572 63.9316V45.0254H315.202V63.9316H309.572ZM309.572 75.149V68.805H315.202V75.149H309.572Z" fill="#344054"/>
<path d="M281.425 326.398H244.492V329.424H281.425V326.398Z" fill="#475464"/>
<path d="M281.425 330.34H244.492V333.365H281.425V330.34Z" fill="#475464"/>
<path d="M281.425 334.281H244.492V337.307H281.425V334.281Z" fill="#475464"/>
<path d="M281.425 338.221H244.492V341.246H281.425V338.221Z" fill="#475464"/>
<path d="M281.425 342.162H244.492V345.187H281.425V342.162Z" fill="#475464"/>
<path d="M297.414 420.777H227.197V423.803H297.414V420.777Z" fill="#475464"/>
<path d="M297.414 424.719H227.197V427.744H297.414V424.719Z" fill="#475464"/>
<path d="M297.414 428.658H227.197V431.684H297.414V428.658Z" fill="#475464"/>
<path d="M297.414 432.6H227.197V435.625H297.414V432.6Z" fill="#475464"/>
<path d="M297.414 436.541H227.197V439.566H297.414V436.541Z" fill="#475464"/>
<path d="M196.388 301.39C196.422 300.981 181.02 295.822 181.02 295.822L181.93 242.9L202.354 238.518L196.388 301.39Z" fill="#4444B3"/>
<path opacity="0.2" d="M196.388 301.39C196.422 300.981 181.02 295.822 181.02 295.822L181.93 242.9L202.354 238.518L196.388 301.39Z" fill="#000407"/>
<path d="M337.469 322.162C337.577 321.765 353.815 322.222 353.815 322.222L371.173 272.22L353.504 261.076L337.469 322.162Z" fill="#4444B3"/>
<path opacity="0.2" d="M337.469 322.162C337.577 321.765 353.815 322.222 353.815 322.222L371.173 272.22L353.504 261.076L337.469 322.162Z" fill="#000407"/>
<path d="M193.422 320.877C193.422 320.877 199.133 235.287 204.141 207.131C204.141 207.131 307.535 214.951 363.351 236.284C363.351 236.284 334.575 336.257 333.086 341.218C333.086 341.218 260.277 326.875 193.422 320.877Z" fill="#4444B3"/>
<path opacity="0.1" d="M285.71 218.561C284.029 228.866 282.328 239.168 280.567 249.46L275.238 280.326L274.951 279.89L309.594 288.12L326.898 292.313L344.182 296.59L326.806 292.701L309.451 288.73L274.776 280.631L274.426 280.549L274.489 280.194L280.006 249.361C281.861 239.086 283.775 228.821 285.71 218.561Z" fill="#000407"/>
<path opacity="0.1" d="M281.909 224.434C281.928 225.378 281.175 226.348 280.093 226.443C279.569 226.493 278.999 226.326 278.573 225.954C278.147 225.583 277.892 225.011 277.889 224.434C277.892 223.857 278.145 223.284 278.572 222.912C278.997 222.538 279.569 222.374 280.093 222.422C281.176 222.517 281.928 223.49 281.909 224.434ZM281.909 224.434C281.905 223.958 281.694 223.49 281.339 223.189C280.984 222.888 280.518 222.766 280.095 222.815C279.222 222.915 278.656 223.699 278.669 224.434C278.655 225.169 279.22 225.956 280.095 226.055C280.518 226.103 280.985 225.98 281.34 225.68C281.694 225.378 281.905 224.91 281.909 224.434Z" fill="#000407"/>
<path opacity="0.1" d="M280.093 237.168C280.112 238.113 279.359 239.084 278.277 239.177C277.753 239.227 277.183 239.06 276.757 238.689C276.33 238.317 276.075 237.745 276.072 237.168C276.075 236.591 276.328 236.018 276.756 235.647C277.181 235.272 277.753 235.108 278.277 235.157C279.361 235.253 280.113 236.225 280.093 237.168ZM280.093 237.168C280.089 236.692 279.878 236.224 279.523 235.923C279.167 235.623 278.701 235.5 278.278 235.549C277.406 235.65 276.84 236.433 276.852 237.168C276.839 237.903 277.403 238.691 278.278 238.79C278.701 238.837 279.168 238.715 279.524 238.413C279.879 238.114 280.089 237.645 280.093 237.168Z" fill="#000407"/>
<path opacity="0.1" d="M277.859 250.625C277.877 251.57 277.124 252.541 276.043 252.635C275.519 252.684 274.949 252.518 274.522 252.146C274.096 251.774 273.841 251.202 273.838 250.625C273.841 250.048 274.094 249.475 274.521 249.104C274.947 248.729 275.519 248.565 276.043 248.614C277.126 248.71 277.878 249.681 277.859 250.625ZM277.859 250.625C277.854 250.149 277.643 249.681 277.289 249.38C276.933 249.08 276.467 248.957 276.044 249.006C275.171 249.107 274.605 249.89 274.618 250.625C274.604 251.361 275.169 252.148 276.044 252.247C276.467 252.295 276.934 252.172 277.29 251.871C277.643 251.57 277.854 251.102 277.859 250.625Z" fill="#000407"/>
<path opacity="0.1" d="M275.622 264.082C275.642 265.027 274.888 265.997 273.806 266.092C273.282 266.14 272.712 265.974 272.286 265.603C271.859 265.231 271.605 264.659 271.602 264.082C271.604 263.505 271.858 262.932 272.285 262.561C272.71 262.186 273.282 262.022 273.806 262.071C274.89 262.166 275.642 263.138 275.622 264.082ZM275.622 264.082C275.618 263.606 275.407 263.138 275.051 262.837C274.696 262.537 274.23 262.414 273.806 262.463C272.934 262.564 272.368 263.347 272.381 264.082C272.367 264.818 272.932 265.605 273.806 265.704C274.23 265.751 274.697 265.629 275.052 265.328C275.407 265.027 275.618 264.559 275.622 264.082Z" fill="#000407"/>
<path opacity="0.1" d="M283.241 285.543C283.261 286.488 282.507 287.458 281.426 287.552C280.901 287.601 280.331 287.435 279.905 287.064C279.479 286.692 279.224 286.12 279.221 285.543C279.223 284.966 279.477 284.393 279.904 284.022C280.329 283.647 280.901 283.483 281.426 283.532C282.508 283.626 283.26 284.599 283.241 285.543ZM283.241 285.543C283.237 285.067 283.026 284.599 282.67 284.298C282.315 283.998 281.849 283.875 281.426 283.924C280.553 284.025 279.987 284.808 280 285.543C279.986 286.278 280.551 287.066 281.426 287.165C281.849 287.213 282.316 287.09 282.671 286.788C283.026 286.488 283.236 286.02 283.241 285.543Z" fill="#000407"/>
<path opacity="0.1" d="M295.943 288.641C295.962 289.585 295.208 290.557 294.127 290.65C293.603 290.699 293.033 290.533 292.606 290.161C292.18 289.79 291.925 289.218 291.922 288.641C291.925 288.064 292.179 287.491 292.605 287.119C293.031 286.745 293.603 286.581 294.127 286.63C295.21 286.725 295.962 287.697 295.943 288.641ZM295.943 288.641C295.938 288.165 295.727 287.697 295.373 287.396C295.017 287.095 294.551 286.973 294.128 287.022C293.255 287.122 292.689 287.906 292.702 288.641C292.688 289.376 293.253 290.163 294.128 290.262C294.551 290.31 295.018 290.187 295.374 289.886C295.727 289.585 295.938 289.117 295.943 288.641Z" fill="#000407"/>
<path opacity="0.1" d="M308.646 291.74C308.664 292.685 307.911 293.655 306.83 293.75C306.306 293.799 305.736 293.632 305.309 293.261C304.883 292.89 304.628 292.318 304.625 291.74C304.628 291.163 304.881 290.59 305.308 290.219C305.734 289.845 306.306 289.68 306.83 289.729C307.912 289.824 308.664 290.796 308.646 291.74ZM308.646 291.74C308.641 291.264 308.43 290.796 308.076 290.496C307.72 290.195 307.254 290.072 306.831 290.121C305.958 290.222 305.393 291.005 305.405 291.74C305.391 292.476 305.956 293.263 306.831 293.362C307.254 293.41 307.721 293.287 308.077 292.985C308.43 292.685 308.64 292.216 308.646 291.74Z" fill="#000407"/>
<path opacity="0.1" d="M321.347 294.838C321.367 295.782 320.613 296.753 319.531 296.847C319.007 296.896 318.437 296.731 318.01 296.359C317.584 295.987 317.329 295.415 317.326 294.838C317.329 294.261 317.582 293.688 318.009 293.317C318.435 292.942 319.007 292.778 319.531 292.827C320.615 292.921 321.366 293.894 321.347 294.838ZM321.347 294.838C321.343 294.362 321.132 293.894 320.777 293.593C320.421 293.293 319.955 293.17 319.532 293.219C318.659 293.32 318.094 294.103 318.106 294.838C318.093 295.573 318.657 296.361 319.532 296.46C319.955 296.507 320.422 296.385 320.778 296.084C321.132 295.782 321.343 295.314 321.347 294.838Z" fill="#000407"/>
<path opacity="0.1" d="M334.044 298.075C333.991 299.019 333.165 299.929 332.079 299.939C331.553 299.948 330.998 299.738 330.6 299.335C330.203 298.931 329.993 298.343 330.034 297.766C330.081 297.191 330.379 296.64 330.833 296.302C331.287 295.962 331.869 295.841 332.388 295.931C333.461 296.109 334.135 297.136 334.044 298.075ZM334.044 298.075C334.076 297.6 333.901 297.117 333.57 296.79C333.239 296.462 332.783 296.304 332.358 296.321C331.48 296.354 330.855 297.091 330.811 297.826C330.741 298.558 331.244 299.386 332.108 299.552C332.526 299.633 333.002 299.547 333.379 299.273C333.757 299.001 334.003 298.551 334.044 298.075Z" fill="#000407"/>
<path opacity="0.1" d="M273.386 277.54C273.405 278.484 272.652 279.455 271.57 279.549C271.046 279.599 270.476 279.432 270.05 279.06C269.623 278.689 269.368 278.117 269.365 277.54C269.368 276.962 269.622 276.389 270.048 276.018C270.474 275.644 271.046 275.478 271.57 275.528C272.654 275.623 273.406 276.595 273.386 277.54ZM273.386 277.54C273.382 277.063 273.171 276.595 272.815 276.295C272.459 275.994 271.993 275.871 271.57 275.92C270.697 276.021 270.132 276.804 270.144 277.54C270.131 278.275 270.695 279.062 271.57 279.161C271.993 279.209 272.46 279.086 272.815 278.784C273.172 278.484 273.382 278.016 273.386 277.54Z" fill="#000407"/>
<path opacity="0.2" d="M251.995 299.835C264.053 288.994 265.039 270.43 254.197 258.373C243.356 246.315 224.792 245.329 212.735 256.171C200.677 267.012 199.691 285.575 210.533 297.633C221.374 309.691 239.938 310.677 251.995 299.835Z" fill="#000407"/>
<path d="M254.377 286.34C258.981 274.178 252.854 260.587 240.692 255.983C228.53 251.38 214.939 257.507 210.336 269.669C205.732 281.83 211.859 295.421 224.021 300.025C236.183 304.629 249.774 298.501 254.377 286.34Z" fill="#344054"/>
<path d="M230.946 269.349L225.441 268.457L224.55 273.962L230.054 274.853L230.946 269.349Z" fill="#4444B3"/>
<path d="M226.333 262.952L220.828 262.061L219.936 267.565L225.441 268.457L226.333 262.952Z" fill="#4444B3"/>
<path d="M248.35 266.519L242.846 265.627L241.954 271.131L247.459 272.023L248.35 266.519Z" fill="#4444B3"/>
<path d="M222.786 284.845L217.281 283.953L216.39 289.458L221.894 290.349L222.786 284.845Z" fill="#4444B3"/>
<path d="M244.803 288.413L239.299 287.521L238.407 293.026L243.912 293.918L244.803 288.413Z" fill="#4444B3"/>
<path d="M229.182 280.233L223.678 279.342L222.786 284.846L228.291 285.738L229.182 280.233Z" fill="#4444B3"/>
<path d="M235.569 275.683L230.064 274.791L229.173 280.296L234.677 281.187L235.569 275.683Z" fill="#4444B3"/>
<path d="M241.956 271.132L236.451 270.24L235.559 275.745L241.064 276.636L241.956 271.132Z" fill="#4444B3"/>
<path d="M240.198 282.013L234.693 281.121L233.802 286.626L239.306 287.517L240.198 282.013Z" fill="#4444B3"/>
<path d="M333.869 308.901C344.146 296.359 342.31 277.86 329.767 267.583C317.225 257.306 298.726 259.142 288.448 271.684C278.171 284.227 280.008 302.726 292.55 313.003C305.092 323.28 323.591 321.444 333.869 308.901Z" fill="#4444B3"/>
<path opacity="0.2" d="M333.869 308.901C344.146 296.359 342.31 277.86 329.767 267.583C317.225 257.306 298.726 259.142 288.448 271.684C278.171 284.227 280.008 302.726 292.55 313.003C305.092 323.28 323.591 321.444 333.869 308.901Z" fill="#000407"/>
<path opacity="0.2" d="M339.725 297.1C339.59 297.678 339.436 298.237 339.262 298.795L282.033 286.589C282.168 285.567 282.351 284.546 282.592 283.515C286.34 267.744 302.169 257.994 317.951 261.741C333.723 265.489 343.473 281.318 339.725 297.1Z" fill="#000407"/>
<path d="M320.231 312.038C332.23 307.025 337.893 293.233 332.88 281.234C327.867 269.235 314.075 263.572 302.076 268.585C290.077 273.598 284.414 287.389 289.427 299.389C294.44 311.388 308.231 317.051 320.231 312.038Z" fill="#344054"/>
<path d="M317.086 277.442L311.66 276.152L305.243 303.157L310.668 304.446L317.086 277.442Z" fill="#4444B3"/>
<path d="M341.429 296.547L281.316 282.261C285.261 265.664 301.918 255.41 318.514 259.354C335.111 263.299 345.374 279.951 341.429 296.547Z" fill="#4444B3"/>
<path opacity="0.2" d="M341.429 296.547L281.316 282.261C285.261 265.664 301.918 255.41 318.514 259.354C335.111 263.299 345.374 279.951 341.429 296.547Z" fill="#000407"/>
<path opacity="0.1" d="M260.074 307.758C260.226 305.411 261.088 303.031 262.791 301.148C263.63 300.2 264.75 299.455 265.984 299.002C267.223 298.546 268.563 298.466 269.833 298.574C271.125 298.725 272.445 299.18 273.522 299.996C274.579 300.828 275.389 301.913 275.866 303.08C276.846 305.408 276.953 307.896 276.478 310.202C276.087 307.897 275.491 305.658 274.409 303.82C273.334 301.968 271.635 300.816 269.61 300.638C267.545 300.381 265.529 300.935 263.906 302.307C262.282 303.674 261.042 305.633 260.074 307.758Z" fill="#000407"/>
<path d="M201.465 247.872C201.708 244.736 202.061 241.614 202.358 238.484C202.692 235.36 203.035 232.237 203.415 229.12C203.776 226 204.182 222.886 204.582 219.771C204.973 216.655 205.424 213.547 205.842 210.434L205.953 209.604L206.796 209.657C213.57 210.083 220.33 210.63 227.081 211.325C230.456 211.671 233.827 212.063 237.193 212.496C240.553 212.978 243.919 213.423 247.259 214.035L226.961 212.779L206.685 211.467L207.638 210.689C207.178 213.796 206.749 216.906 206.261 220.009C205.781 223.112 205.308 226.216 204.79 229.315C204.291 232.415 203.755 235.511 203.209 238.605C202.628 241.694 202.1 244.791 201.465 247.872Z" fill="white"/>
<path d="M206.348 271.601C207.029 267.829 208.743 264.236 211.045 261.107C211.618 260.32 212.27 259.593 212.898 258.844C213.577 258.143 214.283 257.465 214.98 256.777C215.74 256.16 216.507 255.547 217.287 254.953C218.116 254.428 218.935 253.88 219.777 253.376C220.664 252.949 221.546 252.51 222.442 252.105L225.231 251.14L228.118 250.544C229.087 250.402 230.072 250.372 231.045 250.299C234.959 250.198 238.812 251.033 242.348 252.466C238.585 251.76 234.834 251.369 231.137 251.722C227.449 252.065 223.865 253.168 220.661 254.973C217.432 256.736 214.572 259.167 212.156 261.992C209.751 264.831 207.759 268.047 206.348 271.601Z" fill="white"/>
<path d="M287.34 279.532C288.536 275.89 290.729 272.569 293.442 269.787C294.118 269.087 294.864 268.457 295.589 267.801C296.358 267.201 297.151 266.627 297.936 266.042C298.775 265.534 299.619 265.034 300.474 264.553C301.367 264.148 302.253 263.717 303.158 263.335C304.096 263.035 305.03 262.722 305.972 262.444L308.869 261.873L311.811 261.682C312.791 261.675 313.769 261.782 314.743 261.843C318.634 262.284 322.334 263.643 325.639 265.55C322.008 264.332 318.348 263.426 314.638 263.266C310.937 263.097 307.236 263.694 303.813 265.04C300.372 266.34 297.203 268.354 294.42 270.817C291.643 273.298 289.227 276.207 287.34 279.532Z" fill="white"/>
<path d="M196.706 373.621C189.185 373.621 172.719 371.93 162.124 358.307C148.568 340.879 153.468 307.437 153.682 306.021L159.567 306.915C159.519 307.236 154.842 339.248 166.823 354.653C178.536 369.713 199.782 367.551 199.995 367.525L200.665 373.439C200.433 373.468 198.976 373.621 196.706 373.621Z" fill="#4444B3"/>
<path opacity="0.4" d="M196.706 373.621C189.185 373.621 172.719 371.93 162.124 358.307C148.568 340.879 153.468 307.437 153.682 306.021L159.567 306.915C159.519 307.236 154.842 339.248 166.823 354.653C178.536 369.713 199.782 367.551 199.995 367.525L200.665 373.439C200.433 373.468 198.976 373.621 196.706 373.621Z" fill="white"/>
<path d="M161.3 310.965C160.227 310.965 159.13 310.875 158.015 310.694C148.087 309.087 143.692 303.146 141.752 298.445C139.808 293.734 139.359 288.035 140.417 281.508L153.007 283.548C152.352 287.592 152.542 291.156 153.543 293.581C154.256 295.312 155.641 297.39 160.054 298.104C162.069 298.431 164.248 298.258 166.53 294.817C168.291 292.161 169.349 288.545 169.72 286.255L182.31 288.295C182.019 290.096 180.784 296.399 177.16 301.865C173.218 307.81 167.67 310.965 161.3 310.965Z" fill="#4444B3"/>
<path d="M209.144 390.657C209.122 390.386 198.477 388.686 198.477 388.686L193.311 353.944L206.203 348.852L209.144 390.657Z" fill="#4444B3"/>
<path opacity="0.2" d="M209.144 390.657C209.122 390.386 198.477 388.686 198.477 388.686L193.311 353.944L206.203 348.852L209.144 390.657Z" fill="#000407"/>
<path d="M314.387 390.723C314.415 390.453 325.095 388.987 325.095 388.987L331.028 354.369L318.25 348.992L314.387 390.723Z" fill="#4444B3"/>
<path opacity="0.2" d="M314.387 390.723C314.415 390.453 325.095 388.987 325.095 388.987L331.028 354.369L318.25 348.992L314.387 390.723Z" fill="#000407"/>
<path d="M204.714 341.073C204.714 341.073 290.812 337.392 319.895 342.239C319.895 342.239 311.355 425.549 310.893 427.165C310.893 427.165 225.248 426.934 211.86 427.165C211.86 427.165 204.604 371.768 204.714 341.073Z" fill="#4444B3"/>
<path opacity="0.2" d="M230.865 363.902C230.865 363.902 277.866 362.045 293.744 364.489C293.744 364.489 289.081 406.499 288.83 407.313C288.83 407.313 242.075 407.197 234.767 407.313C234.765 407.313 231.554 378.561 230.865 363.902Z" fill="#000407"/>
<path opacity="0.2" d="M237.289 407.295C236.212 407.295 235.359 407.309 234.762 407.316C234.762 407.316 231.555 378.559 230.861 363.899C230.861 363.899 231.93 363.857 233.797 363.795L237.289 407.295Z" fill="#000407"/>
<path d="M251.153 374.267C248.518 373.437 245.711 374.899 244.881 377.532C244.05 380.169 245.515 382.973 248.149 383.803C250.781 384.633 253.585 383.171 254.415 380.537C255.245 377.906 253.785 375.097 251.153 374.267ZM253.836 380.354C253.107 382.669 250.643 383.952 248.331 383.223C246.019 382.494 244.735 380.032 245.465 377.717C246.194 375.405 248.658 374.12 250.972 374.85C253.28 375.578 254.565 378.042 253.836 380.354ZM251.153 374.267C248.518 373.437 245.711 374.899 244.881 377.532C244.05 380.169 245.515 382.973 248.149 383.803C250.781 384.633 253.585 383.171 254.415 380.537C255.245 377.906 253.785 375.097 251.153 374.267ZM253.836 380.354C253.107 382.669 250.643 383.952 248.331 383.223C246.019 382.494 244.735 380.032 245.465 377.717C246.194 375.405 248.658 374.12 250.972 374.85C253.28 375.578 254.565 378.042 253.836 380.354ZM251.153 374.267C248.518 373.437 245.711 374.899 244.881 377.532C244.05 380.169 245.515 382.973 248.149 383.803C250.781 384.633 253.585 383.171 254.415 380.537C255.245 377.906 253.785 375.097 251.153 374.267ZM253.836 380.354C253.107 382.669 250.643 383.952 248.331 383.223C246.019 382.494 244.735 380.032 245.465 377.717C246.194 375.405 248.658 374.12 250.972 374.85C253.28 375.578 254.565 378.042 253.836 380.354ZM252.819 368.986C247.264 367.237 241.35 370.322 239.599 375.869C237.851 381.418 240.93 387.337 246.483 389.085C252.029 390.832 257.949 387.751 259.697 382.201C261.448 376.655 258.366 370.733 252.819 368.986ZM255.159 380.77C254.201 383.81 250.952 385.503 247.915 384.545C244.878 383.588 243.185 380.34 244.142 377.3C245.1 374.26 248.351 372.57 251.388 373.526C254.422 374.484 256.115 377.733 255.159 380.77ZM254.415 380.538C255.245 377.906 253.785 375.098 251.153 374.268C248.518 373.438 245.711 374.9 244.881 377.533C244.05 380.17 245.515 382.974 248.149 383.804C250.781 384.634 253.585 383.172 254.415 380.538ZM253.836 380.354C253.107 382.669 250.643 383.952 248.331 383.223C246.019 382.494 244.735 380.032 245.465 377.717C246.194 375.405 248.658 374.12 250.972 374.85C253.28 375.578 254.565 378.042 253.836 380.354ZM251.153 374.267C248.518 373.437 245.711 374.899 244.881 377.532C244.05 380.169 245.515 382.973 248.149 383.803C250.781 384.633 253.585 383.171 254.415 380.537C255.245 377.906 253.785 375.097 251.153 374.267ZM253.836 380.354C253.107 382.669 250.643 383.952 248.331 383.223C246.019 382.494 244.735 380.032 245.465 377.717C246.194 375.405 248.658 374.12 250.972 374.85C253.28 375.578 254.565 378.042 253.836 380.354ZM251.153 374.267C248.518 373.437 245.711 374.899 244.881 377.532C244.05 380.169 245.515 382.973 248.149 383.803C250.781 384.633 253.585 383.171 254.415 380.537C255.245 377.906 253.785 375.097 251.153 374.267ZM253.836 380.354C253.107 382.669 250.643 383.952 248.331 383.223C246.019 382.494 244.735 380.032 245.465 377.717C246.194 375.405 248.658 374.12 250.972 374.85C253.28 375.578 254.565 378.042 253.836 380.354Z" fill="#4444B3"/>
<path d="M248.546 389.276L244.682 388.059L244.033 390.861L247.47 391.944L248.546 389.276Z" fill="#4444B3"/>
<path d="M241.603 385.658L239.731 382.064L237.291 383.588L238.955 386.784L241.603 385.658Z" fill="#4444B3"/>
<path d="M239.251 378.187L240.467 374.324L237.666 373.676L236.582 377.112L239.251 378.187Z" fill="#4444B3"/>
<path d="M242.87 371.243L246.464 369.373L244.94 366.932L241.744 368.597L242.87 371.243Z" fill="#4444B3"/>
<path d="M250.34 368.892L254.204 370.11L254.852 367.307L251.416 366.225L250.34 368.892Z" fill="#4444B3"/>
<path d="M257.283 372.512L259.154 376.105L261.595 374.583L259.93 371.387L257.283 372.512Z" fill="#4444B3"/>
<path d="M259.636 379.982L258.418 383.846L261.221 384.495L262.303 381.058L259.636 379.982Z" fill="#4444B3"/>
<path d="M256.016 386.926L252.422 388.798L253.945 391.238L257.141 389.574L256.016 386.926Z" fill="#4444B3"/>
<path d="M268.145 388.972C266.587 387.957 264.502 388.399 263.488 389.955C262.472 391.515 262.915 393.598 264.473 394.613C266.03 395.627 268.112 395.186 269.127 393.628C270.141 392.072 269.702 389.986 268.145 388.972ZM268.785 393.405C267.894 394.774 266.063 395.161 264.696 394.27C263.328 393.38 262.941 391.549 263.832 390.181C264.723 388.813 266.553 388.426 267.922 389.317C269.288 390.208 269.675 392.037 268.785 393.405ZM268.145 388.972C266.587 387.957 264.502 388.399 263.488 389.955C262.472 391.515 262.915 393.598 264.473 394.613C266.03 395.627 268.112 395.186 269.127 393.628C270.141 392.072 269.702 389.986 268.145 388.972ZM268.785 393.405C267.894 394.774 266.063 395.161 264.696 394.27C263.328 393.38 262.941 391.549 263.832 390.181C264.723 388.813 266.553 388.426 267.922 389.317C269.288 390.208 269.675 392.037 268.785 393.405ZM268.145 388.972C266.587 387.957 264.502 388.399 263.488 389.955C262.472 391.515 262.915 393.598 264.473 394.613C266.03 395.627 268.112 395.186 269.127 393.628C270.141 392.072 269.702 389.986 268.145 388.972ZM268.785 393.405C267.894 394.774 266.063 395.161 264.696 394.27C263.328 393.38 262.941 391.549 263.832 390.181C264.723 388.813 266.553 388.426 267.922 389.317C269.288 390.208 269.675 392.037 268.785 393.405ZM270.181 385.849C266.894 383.711 262.501 384.641 260.363 387.923C258.226 391.206 259.152 395.601 262.437 397.738C265.718 399.874 270.114 398.946 272.251 395.663C274.389 392.382 273.462 387.985 270.181 385.849ZM269.567 393.914C268.396 395.712 265.983 396.223 264.187 395.053C262.391 393.883 261.879 391.47 263.05 389.672C264.221 387.874 266.635 387.365 268.431 388.535C270.226 389.704 270.737 392.117 269.567 393.914ZM269.127 393.628C270.141 392.071 269.702 389.987 268.145 388.973C266.587 387.958 264.502 388.4 263.488 389.956C262.472 391.516 262.915 393.599 264.473 394.614C266.03 395.628 268.112 395.186 269.127 393.628ZM268.785 393.405C267.894 394.774 266.063 395.161 264.696 394.27C263.328 393.38 262.941 391.549 263.832 390.181C264.723 388.813 266.553 388.426 267.922 389.317C269.288 390.208 269.675 392.037 268.785 393.405ZM268.145 388.972C266.587 387.957 264.502 388.399 263.488 389.955C262.472 391.515 262.915 393.598 264.473 394.613C266.03 395.627 268.112 395.186 269.127 393.628C270.141 392.072 269.702 389.986 268.145 388.972ZM268.785 393.405C267.894 394.774 266.063 395.161 264.696 394.27C263.328 393.38 262.941 391.549 263.832 390.181C264.723 388.813 266.553 388.426 267.922 389.317C269.288 390.208 269.675 392.037 268.785 393.405ZM268.145 388.972C266.587 387.957 264.502 388.399 263.488 389.955C262.472 391.515 262.915 393.598 264.473 394.613C266.03 395.627 268.112 395.186 269.127 393.628C270.141 392.072 269.702 389.986 268.145 388.972ZM268.785 393.405C267.894 394.774 266.063 395.161 264.696 394.27C263.328 393.38 262.941 391.549 263.832 390.181C264.723 388.813 266.553 388.426 267.922 389.317C269.288 390.208 269.675 392.037 268.785 393.405Z" fill="#D2D2D2"/>
<path d="M263.742 398.234L261.456 396.746L260.529 398.447L262.562 399.77L263.742 398.234Z" fill="#D2D2D2"/>
<path d="M259.893 394.632L259.329 391.963L257.471 392.51L257.973 394.883L259.893 394.632Z" fill="#D2D2D2"/>
<path d="M259.72 389.361L261.208 387.075L259.508 386.148L258.184 388.182L259.72 389.361Z" fill="#D2D2D2"/>
<path d="M263.322 385.513L265.991 384.949L265.444 383.092L263.07 383.593L263.322 385.513Z" fill="#D2D2D2"/>
<path d="M268.592 385.339L270.877 386.827L271.804 385.127L269.771 383.803L268.592 385.339Z" fill="#D2D2D2"/>
<path d="M272.441 388.941L273.005 391.61L274.863 391.063L274.361 388.689L272.441 388.941Z" fill="#D2D2D2"/>
<path d="M272.613 394.211L271.125 396.497L272.825 397.424L274.149 395.39L272.613 394.211Z" fill="#D2D2D2"/>
<path d="M269.01 398.061L266.342 398.624L266.888 400.482L269.262 399.98L269.01 398.061Z" fill="#D2D2D2"/>
<path d="M317.818 417.47L321.128 418.086L330.591 353.993L326.821 353.301L317.818 417.47Z" fill="#4444B3"/>
<path d="M288.83 407.313L293.744 364.489L326.82 353.301C326.82 353.301 317.818 418.162 317.818 417.47L288.83 407.313Z" fill="#4444B3"/>
<path opacity="0.4" d="M288.83 407.313L293.744 364.489L326.82 353.301C326.82 353.301 317.818 418.162 317.818 417.47L288.83 407.313Z" fill="white"/>
<path d="M208.663 366.224C208.125 362.676 207.833 359.1 207.612 355.52C207.51 353.729 207.464 351.936 207.425 350.143C207.389 348.35 207.358 346.555 207.411 344.761L207.426 344.29L207.884 344.265C214.455 343.912 221.022 343.481 227.597 343.194C234.169 342.869 240.742 342.575 247.32 342.369C240.763 342.963 234.203 343.468 227.64 343.945C221.08 344.457 214.512 344.826 207.949 345.273L208.421 344.777L208.394 350.133L208.456 355.491C208.466 357.279 208.498 359.065 208.55 360.853L208.663 366.224Z" fill="white"/>
<path d="M298.355 365.118C300.404 364.145 302.485 363.24 304.591 362.405C306.691 361.55 308.81 360.741 310.953 359.998C313.1 359.265 315.253 358.548 317.444 357.939C319.63 357.323 321.837 356.755 324.091 356.385L324.646 356.295L324.547 356.824C324.028 359.597 323.485 362.365 322.843 365.118C323.084 362.302 323.423 359.5 323.786 356.704L324.241 357.143C322.056 357.664 319.889 358.273 317.728 358.912C315.569 359.557 313.416 360.238 311.269 360.936L298.355 365.118Z" fill="white"/>
<path opacity="0.1" d="M222.979 341.246L223.536 351.957L224.012 362.671L224.838 384.103L225.484 405.542L225.742 416.263L225.919 426.988L225.36 416.277L224.884 405.563L224.059 384.13L223.415 362.692L223.156 351.971L222.979 341.246Z" fill="#000407"/>
<path opacity="0.1" d="M219.91 347.703C220.116 348.626 219.569 349.726 218.528 350.032C218.024 350.184 217.433 350.134 216.941 349.853C216.449 349.573 216.086 349.064 215.97 348.498C215.858 347.931 215.994 347.319 216.339 346.871C216.682 346.421 217.21 346.145 217.734 346.09C218.813 345.97 219.743 346.774 219.91 347.703ZM219.91 347.703C219.812 347.237 219.512 346.82 219.105 346.596C218.698 346.371 218.216 346.343 217.811 346.475C216.975 346.746 216.575 347.625 216.733 348.345C216.865 349.068 217.574 349.728 218.451 349.652C218.876 349.616 219.309 349.404 219.597 349.038C219.886 348.672 220 348.171 219.91 347.703Z" fill="#000407"/>
<path opacity="0.1" d="M220.649 360.545C220.855 361.467 220.307 362.568 219.266 362.874C218.762 363.025 218.171 362.975 217.679 362.695C217.187 362.415 216.825 361.905 216.708 361.34C216.597 360.773 216.732 360.161 217.077 359.713C217.42 359.263 217.949 358.987 218.472 358.932C219.551 358.811 220.481 359.616 220.649 360.545ZM220.649 360.545C220.55 360.079 220.25 359.662 219.844 359.437C219.436 359.213 218.954 359.185 218.549 359.317C217.714 359.588 217.313 360.468 217.471 361.187C217.603 361.909 218.313 362.57 219.189 362.494C219.614 362.458 220.047 362.244 220.337 361.879C220.625 361.514 220.739 361.013 220.649 360.545Z" fill="#000407"/>
<path opacity="0.1" d="M221.115 374.178C221.321 375.1 220.774 376.201 219.733 376.506C219.229 376.658 218.638 376.608 218.146 376.327C217.654 376.048 217.291 375.538 217.175 374.972C217.064 374.407 217.199 373.794 217.544 373.346C217.887 372.894 218.416 372.62 218.939 372.565C220.018 372.444 220.948 373.249 221.115 374.178ZM221.115 374.178C221.017 373.712 220.717 373.295 220.31 373.07C219.903 372.846 219.421 372.817 219.016 372.95C218.181 373.221 217.78 374.1 217.938 374.818C218.07 375.542 218.78 376.202 219.656 376.126C220.081 376.089 220.514 375.877 220.802 375.511C221.091 375.146 221.205 374.646 221.115 374.178Z" fill="#000407"/>
<path opacity="0.1" d="M221.584 387.811C221.79 388.733 221.243 389.833 220.202 390.139C219.698 390.291 219.107 390.241 218.615 389.96C218.123 389.681 217.76 389.171 217.644 388.605C217.532 388.038 217.668 387.427 218.013 386.979C218.356 386.528 218.883 386.253 219.407 386.198C220.487 386.077 221.417 386.882 221.584 387.811ZM221.584 387.811C221.485 387.345 221.187 386.928 220.779 386.703C220.371 386.478 219.89 386.45 219.484 386.582C218.649 386.854 218.249 387.733 218.407 388.452C218.539 389.175 219.248 389.835 220.125 389.76C220.549 389.723 220.983 389.511 221.271 389.145C221.56 388.78 221.674 388.279 221.584 387.811Z" fill="#000407"/>
<path opacity="0.1" d="M222.051 401.443C222.257 402.366 221.71 403.466 220.669 403.772C220.164 403.924 219.574 403.874 219.082 403.593C218.59 403.313 218.227 402.804 218.11 402.238C217.999 401.671 218.134 401.06 218.48 400.611C218.823 400.161 219.351 399.886 219.874 399.83C220.954 399.71 221.883 400.514 222.051 401.443ZM222.051 401.443C221.952 400.978 221.653 400.56 221.246 400.336C220.838 400.111 220.357 400.083 219.951 400.215C219.116 400.487 218.716 401.365 218.874 402.085C219.006 402.809 219.715 403.468 220.592 403.392C221.016 403.356 221.45 403.144 221.739 402.778C222.027 402.412 222.14 401.91 222.051 401.443Z" fill="#000407"/>
<path opacity="0.1" d="M222.52 415.076C222.726 415.999 222.179 417.099 221.138 417.405C220.633 417.557 220.042 417.507 219.55 417.226C219.059 416.946 218.696 416.437 218.579 415.871C218.468 415.305 218.603 414.692 218.948 414.244C219.292 413.793 219.819 413.518 220.343 413.463C221.422 413.343 222.351 414.148 222.52 415.076ZM222.52 415.076C222.421 414.61 222.121 414.193 221.715 413.969C221.307 413.744 220.826 413.716 220.42 413.848C219.585 414.119 219.184 414.998 219.342 415.718C219.475 416.442 220.184 417.101 221.061 417.025C221.485 416.989 221.919 416.776 222.207 416.411C222.496 416.044 222.609 415.544 222.52 415.076Z" fill="#000407"/>
<path d="M226.728 435.923L177.979 450.695L179.705 456.391L228.454 441.619L226.728 435.923Z" fill="#4444B3"/>
<path opacity="0.4" d="M226.728 435.923L177.979 450.695L179.705 456.391L228.454 441.619L226.728 435.923Z" fill="white"/>
<path d="M203.405 441.057L197.732 442.861L200.412 451.287L206.084 449.483L203.405 441.057Z" fill="#4444B3"/>
<path d="M179.324 464.736L166.744 410.262L128.773 419.264L147.471 472.353L179.324 464.736Z" fill="#4444B3"/>
<path d="M187.749 461.966L179.324 464.736L166.744 410.262L178.862 413.147L187.749 461.966Z" fill="#4444B3"/>
<path opacity="0.2" d="M187.749 461.966L179.324 464.736L166.744 410.262L178.862 413.147L187.749 461.966Z" fill="#000407"/>
<path d="M227.613 445.23C231.182 445.23 234.076 442.336 234.076 438.767C234.076 435.198 231.182 432.305 227.613 432.305C224.044 432.305 221.15 435.198 221.15 438.767C221.15 442.336 224.044 445.23 227.613 445.23Z" fill="#4444B3"/>
<path d="M294.115 435.767L292.377 441.459L341.096 456.334L342.834 450.641L294.115 435.767Z" fill="#4444B3"/>
<path opacity="0.4" d="M294.115 435.767L292.377 441.459L341.096 456.334L342.834 450.641L294.115 435.767Z" fill="white"/>
<path d="M317.474 440.924L314.775 449.344L320.443 451.16L323.142 442.741L317.474 440.924Z" fill="#4444B3"/>
<path d="M341.49 464.69L354.187 410.242L392.137 419.326L373.328 472.375L341.49 464.69Z" fill="#4444B3"/>
<path d="M333.072 461.902L341.491 464.69L354.187 410.242L342.063 413.102L333.072 461.902Z" fill="#4444B3"/>
<path opacity="0.2" d="M333.072 461.902L341.491 464.69L354.187 410.242L342.063 413.102L333.072 461.902Z" fill="#000407"/>
<path d="M286.795 438.605C286.788 442.175 289.675 445.074 293.244 445.082C296.813 445.09 299.713 442.203 299.721 438.633C299.728 435.064 296.841 432.165 293.272 432.156C289.702 432.148 286.802 435.036 286.795 438.605Z" fill="#4444B3"/>
<path d="M335.569 371.417C335.722 371.273 351.381 356.75 369.801 361.718C388.638 366.8 404.19 395.171 404.344 395.459L409.579 392.629C408.899 391.369 392.678 361.716 371.35 355.973C349.658 350.123 332.202 366.408 331.469 367.105L335.569 371.417Z" fill="#4444B3"/>
<path opacity="0.4" d="M335.569 371.417C335.722 371.273 351.381 356.75 369.801 361.718C388.638 366.8 404.19 395.171 404.344 395.459L409.579 392.629C408.899 391.369 392.678 361.716 371.35 355.973C349.658 350.123 332.202 366.408 331.469 367.105L335.569 371.417Z" fill="white"/>
<path d="M397.403 424.02L408.683 418.065C407.6 416.016 406.267 412.492 406.073 409.311C405.823 405.188 407.459 403.738 409.263 402.785C413.215 400.697 415.574 401.525 417.185 402.474C419.445 403.808 421.743 406.538 423.656 410.161L434.935 404.206C431.849 398.359 428.058 394.081 423.668 391.489C419.289 388.908 412.202 386.81 403.308 391.505C396.375 395.165 392.836 401.763 393.343 410.084C393.74 416.632 396.551 422.406 397.403 424.02Z" fill="#4444B3"/>
<path d="M337.947 351.542C340.392 349.853 342.895 348.262 345.406 346.685C347.912 345.099 350.458 343.583 353.005 342.066C355.565 340.572 358.125 339.079 360.727 337.656L364.632 335.524C365.952 334.846 367.254 334.137 368.592 333.486C367.375 334.34 366.124 335.136 364.891 335.963L361.134 338.344C358.628 339.93 356.082 341.446 353.534 342.961C350.973 344.454 348.413 345.947 345.811 347.369C343.215 348.804 340.61 350.222 337.947 351.542Z" fill="#344054"/>
<path d="M331.469 375.879C334.969 377.874 338.288 380.125 341.562 382.439C344.817 384.779 348.027 387.183 351.051 389.845C347.548 387.852 344.231 385.601 340.958 383.285C337.705 380.944 334.495 378.54 331.469 375.879Z" fill="#344054"/>
<path d="M337.219 372.885C339.921 373.705 342.581 374.633 345.234 375.576C347.892 376.508 350.521 377.517 353.149 378.526C355.769 379.557 358.388 380.591 360.978 381.7L364.861 383.366C366.141 383.957 367.435 384.514 368.704 385.135C367.35 384.735 366.018 384.271 364.676 383.841L360.687 382.445C358.029 381.513 355.4 380.505 352.773 379.495C350.154 378.462 347.535 377.428 344.946 376.319C342.352 375.22 339.766 374.106 337.219 372.885Z" fill="#344054"/>
<path d="M344.895 353.824C347.484 353.151 350.092 352.591 352.705 352.047C355.314 351.492 357.939 351.017 360.563 350.542C363.191 350.092 365.82 349.644 368.463 349.274L372.427 348.724C373.756 348.579 375.077 348.398 376.412 348.283C375.119 348.631 373.815 348.911 372.516 349.226L368.601 350.062C365.991 350.616 363.367 351.091 360.743 351.564C358.114 352.013 355.486 352.462 352.843 352.83C350.203 353.212 347.558 353.575 344.895 353.824Z" fill="#344054"/>
<path d="M282.486 370.02C282.925 367.916 283.631 365.865 284.544 363.91C285.459 361.956 286.578 360.083 287.982 358.418C289.39 356.771 291.122 355.318 293.208 354.514C295.293 353.737 297.68 353.744 299.771 354.579C301.888 355.403 303.557 357.182 304.456 359.226C304.923 360.248 305.216 361.343 305.336 362.463C305.441 363.581 305.396 364.744 304.951 365.861C304.725 366.41 304.37 366.964 303.802 367.333C303.528 367.525 303.192 367.634 302.862 367.685C302.538 367.732 302.205 367.717 301.826 367.586C301.13 367.29 300.782 366.73 300.482 366.226C300.215 365.701 300.009 365.165 299.869 364.623C299.284 362.452 299.225 360.245 299.328 358.062C299.638 353.713 300.78 349.364 303.123 345.622C304.306 343.773 305.789 342.071 307.632 340.827C309.452 339.575 311.583 338.712 313.759 338.463C314.829 338.204 315.935 338.228 317.028 338.175C317.576 338.117 318.12 338.25 318.666 338.278C319.208 338.349 319.763 338.34 320.29 338.497C322.451 338.885 324.483 339.752 326.38 340.802C328.265 341.889 329.945 343.284 331.478 344.799C332.997 346.328 334.379 348.002 335.49 349.845C333.03 346.335 329.864 343.287 326.13 341.247C324.251 340.27 322.265 339.469 320.174 339.144C319.663 339.002 319.128 339.027 318.606 338.968C318.08 338.953 317.557 338.833 317.031 338.904C315.982 338.981 314.925 338.976 313.901 339.251C311.804 339.547 309.859 340.39 308.147 341.565C306.427 342.742 305.04 344.358 303.925 346.126C301.717 349.702 300.635 353.927 300.366 358.124C300.248 360.222 300.302 362.366 300.826 364.359C301.076 365.311 301.527 366.385 302.183 366.685C302.267 366.694 302.323 366.738 302.425 366.741C302.527 366.733 302.636 366.756 302.733 366.731C302.931 366.699 303.123 366.646 303.288 366.527C303.63 366.313 303.9 365.932 304.082 365.496C304.447 364.612 304.514 363.563 304.422 362.553C304.32 361.537 304.06 360.528 303.64 359.592C302.817 357.722 301.358 356.105 299.467 355.313C297.587 354.514 295.385 354.45 293.433 355.129C291.472 355.833 289.778 357.185 288.365 358.752C285.531 361.924 283.621 365.892 282.486 370.02Z" fill="#344054"/>
<path d="M186.387 396.972C187.39 395.081 188.866 393.444 190.589 392.15C192.311 390.856 194.287 389.853 196.413 389.361C198.529 388.854 200.801 388.846 202.918 389.489C205.035 390.122 206.942 391.364 208.469 392.946C210.006 394.526 211.155 396.446 211.945 398.488C212.72 400.533 213.184 402.725 213.02 404.966C212.909 406.068 212.685 407.259 211.813 408.213C211.38 408.682 210.712 408.992 210.06 409.002C209.434 408.996 208.842 408.903 208.268 408.597C207.697 408.302 207.24 407.791 206.979 407.225C206.714 406.658 206.615 406.058 206.588 405.478C206.546 404.313 206.798 403.206 207.14 402.154C207.838 400.046 208.984 398.147 210.323 396.425C211.67 394.706 213.255 393.175 215.031 391.9C218.555 389.342 223.044 387.92 227.422 388.493C229.583 388.786 231.728 389.41 233.619 390.512C235.528 391.578 237.182 393.058 238.531 394.749C239.879 396.447 240.93 398.356 241.739 400.344C242.548 402.334 243.145 404.411 243.438 406.53C242.564 402.363 240.85 398.315 238.12 395.085C236.768 393.471 235.139 392.085 233.29 391.109C231.456 390.097 229.399 389.554 227.328 389.322C223.168 388.87 218.948 390.196 215.592 392.679C212.24 395.145 209.498 398.587 208.111 402.479C207.785 403.45 207.557 404.465 207.587 405.442C207.61 406.413 207.951 407.344 208.73 407.737C209.097 407.949 209.595 408.031 210.03 408.038C210.451 408.027 210.826 407.859 211.126 407.548C211.734 406.915 211.994 405.879 212.086 404.885C212.249 402.853 211.829 400.751 211.102 398.809C210.366 396.862 209.272 395.046 207.858 393.527C206.446 392.01 204.668 390.826 202.7 390.182C200.736 389.528 198.582 389.474 196.535 389.908C192.441 390.778 188.647 393.339 186.387 396.972Z" fill="#344054"/>
<path d="M138.272 145.817C138.154 141.537 137.246 137.229 135.255 133.474C134.257 131.615 132.934 129.897 131.198 128.745C129.464 127.62 127.311 127.157 125.294 127.484C123.27 127.802 121.467 129.024 120.221 130.643C119.59 131.452 119.096 132.369 118.755 133.332C118.424 134.291 118.239 135.324 118.383 136.27C118.454 136.737 118.626 137.17 118.907 137.46C119.04 137.615 119.214 137.712 119.398 137.791C119.486 137.838 119.597 137.842 119.694 137.874C119.794 137.895 119.858 137.865 119.943 137.878C120.651 137.742 121.346 136.807 121.816 135.942C122.801 134.132 123.364 132.062 123.75 129.997C124.49 125.857 124.448 121.496 123.157 117.497C122.498 115.513 121.535 113.613 120.145 112.061C118.763 110.511 117.076 109.228 115.111 108.44C114.182 107.929 113.155 107.682 112.154 107.356C111.66 107.162 111.123 107.154 110.61 107.043C110.089 106.975 109.575 106.823 109.044 106.839C106.936 106.655 104.817 106.959 102.759 107.46C98.6455 108.551 94.8433 110.753 91.6172 113.575C93.1356 112.051 94.8765 110.755 96.7173 109.632C98.5675 108.528 100.531 107.574 102.621 106.968C104.713 106.401 106.894 106.043 109.084 106.182C109.634 106.155 110.17 106.298 110.714 106.357C111.25 106.459 111.811 106.46 112.329 106.647C113.377 106.96 114.458 107.201 115.434 107.707C117.487 108.468 119.351 109.814 120.819 111.465C122.313 113.112 123.347 115.119 124.054 117.197C125.436 121.389 125.507 125.886 124.769 130.183C124.349 132.327 123.764 134.457 122.679 136.426C122.413 136.919 122.084 137.391 121.7 137.836C121.289 138.254 120.817 138.715 120.072 138.836C119.672 138.873 119.347 138.807 119.042 138.685C118.734 138.556 118.434 138.37 118.213 138.119C117.75 137.625 117.537 137.002 117.449 136.415C117.282 135.226 117.516 134.086 117.886 133.024C118.269 131.964 118.815 130.971 119.512 130.091C120.873 128.321 122.919 126.992 125.171 126.696C127.402 126.384 129.721 126.948 131.56 128.201C133.393 129.48 134.729 131.305 135.704 133.24C136.67 135.192 137.309 137.278 137.731 139.393C138.151 141.508 138.348 143.668 138.272 145.817Z" fill="#344054"/>
<path d="M367.921 200.067C363.732 199.183 359.329 199.06 355.214 200.121C353.174 200.657 351.194 201.542 349.669 202.962C348.17 204.385 347.217 206.371 347.065 208.408C346.901 210.451 347.669 212.489 348.953 214.078C349.592 214.881 350.369 215.575 351.225 216.131C352.079 216.676 353.043 217.099 353.995 217.18C354.466 217.218 354.928 217.153 355.275 216.948C355.456 216.855 355.592 216.709 355.711 216.548C355.778 216.474 355.808 216.366 355.862 216.28C355.906 216.189 355.891 216.118 355.923 216.04C355.958 215.319 355.21 214.426 354.479 213.768C352.949 212.388 351.067 211.357 349.15 210.5C345.297 208.815 341.046 207.837 336.855 208.159C334.773 208.338 332.7 208.831 330.866 209.819C329.036 210.8 327.395 212.142 326.171 213.869C325.457 214.654 324.977 215.595 324.427 216.491C324.123 216.927 323.99 217.446 323.762 217.92C323.574 218.411 323.307 218.875 323.2 219.394C322.529 221.401 322.33 223.533 322.337 225.651C322.437 229.904 323.693 234.116 325.683 237.912C324.556 236.081 323.702 234.085 323.04 232.033C322.398 229.976 321.928 227.844 321.827 225.669C321.765 223.503 321.925 221.299 322.572 219.202C322.673 218.661 322.937 218.172 323.122 217.657C323.346 217.159 323.478 216.614 323.781 216.154C324.33 215.208 324.816 214.214 325.537 213.382C326.757 211.563 328.5 210.065 330.446 209.022C332.397 207.954 334.59 207.417 336.776 207.214C341.175 206.849 345.565 207.829 349.57 209.548C351.557 210.457 353.492 211.523 355.153 213.038C355.57 213.412 355.952 213.841 356.296 214.32C356.607 214.816 356.944 215.383 356.888 216.137C356.831 216.533 356.691 216.836 356.501 217.103C356.304 217.372 356.052 217.621 355.757 217.777C355.169 218.112 354.513 218.173 353.921 218.122C352.725 218.006 351.672 217.513 350.725 216.906C349.785 216.285 348.946 215.523 348.252 214.64C346.848 212.903 346.034 210.604 346.271 208.346C346.488 206.105 347.578 203.98 349.225 202.484C350.895 200.999 352.981 200.127 355.091 199.631C357.215 199.147 359.393 199.012 361.548 199.095C363.704 199.178 365.849 199.491 367.921 200.067Z" fill="#344054"/>
<path d="M303.534 132.778C302.823 130.315 302.727 127.679 303.128 125.134C303.526 122.589 304.388 120.086 305.796 117.894C307.184 115.699 309.119 113.801 311.46 112.592C313.795 111.373 316.455 110.844 319.074 110.924C321.7 110.995 324.281 111.675 326.658 112.758C329.024 113.858 331.247 115.343 332.968 117.385C333.789 118.414 334.581 119.613 334.629 121.119C334.65 121.863 334.348 122.657 333.815 123.196C333.287 123.701 332.709 124.112 331.982 124.323C331.267 124.543 330.471 124.489 329.79 124.229C329.105 123.971 328.528 123.547 328.027 123.079C327.03 122.129 326.324 120.979 325.74 119.797C324.582 117.421 323.972 114.844 323.679 112.257C323.393 109.666 323.467 107.036 323.917 104.466C324.787 99.3413 327.428 94.3919 331.635 91.222C333.72 89.6651 336.068 88.4047 338.601 87.763C341.118 87.0756 343.766 86.9539 346.332 87.2669C348.904 87.5852 351.4 88.3308 353.76 89.349C356.12 90.3682 358.372 91.6391 360.406 93.1991C356.181 90.3411 351.325 88.2944 346.274 87.7952C343.76 87.5394 341.196 87.711 338.783 88.4213C336.355 89.0869 334.126 90.3443 332.148 91.8814C330.193 93.4466 328.529 95.3716 327.313 97.5608C326.087 99.7448 325.286 102.159 324.863 104.632C324.052 109.57 324.576 114.829 326.661 119.35C327.198 120.462 327.857 121.53 328.716 122.354C329.558 123.176 330.67 123.715 331.711 123.385C332.223 123.252 332.726 122.899 333.119 122.527C333.487 122.15 333.679 121.661 333.672 121.123C333.659 120.031 333.001 118.917 332.241 117.98C330.666 116.087 328.537 114.637 326.278 113.578C324.007 112.524 321.538 111.881 319.043 111.767C316.551 111.653 314.024 112.132 311.789 113.24C309.549 114.336 307.654 116.105 306.264 118.2C303.49 122.395 302.402 127.779 303.534 132.778Z" fill="#344054"/>
<path d="M182.909 397.2C180.579 396.465 178.096 397.759 177.362 400.088C176.627 402.421 177.921 404.901 180.252 405.636C182.581 406.37 185.061 405.078 185.795 402.747C186.529 400.419 185.238 397.933 182.909 397.2ZM185.282 402.584C184.638 404.632 182.458 405.767 180.413 405.122C178.367 404.478 177.232 402.299 177.878 400.251C178.522 398.205 180.701 397.07 182.749 397.716C184.792 398.359 185.927 400.538 185.282 402.584ZM182.909 397.2C180.579 396.465 178.096 397.759 177.362 400.088C176.627 402.421 177.921 404.901 180.252 405.636C182.581 406.37 185.061 405.078 185.795 402.747C186.529 400.419 185.238 397.933 182.909 397.2ZM185.282 402.584C184.638 404.632 182.458 405.767 180.413 405.122C178.367 404.478 177.232 402.299 177.878 400.251C178.522 398.205 180.701 397.07 182.749 397.716C184.792 398.359 185.927 400.538 185.282 402.584ZM182.909 397.2C180.579 396.465 178.096 397.759 177.362 400.088C176.627 402.421 177.921 404.901 180.252 405.636C182.581 406.37 185.061 405.078 185.795 402.747C186.529 400.419 185.238 397.933 182.909 397.2ZM185.282 402.584C184.638 404.632 182.458 405.767 180.413 405.122C178.367 404.478 177.232 402.299 177.878 400.251C178.522 398.205 180.701 397.07 182.749 397.716C184.792 398.359 185.927 400.538 185.282 402.584ZM184.383 392.527C179.469 390.979 174.237 393.709 172.689 398.616C171.143 403.525 173.867 408.761 178.778 410.308C183.685 411.853 188.921 409.127 190.468 404.218C192.016 399.312 189.291 394.072 184.383 392.527ZM186.452 402.952C185.605 405.641 182.731 407.139 180.045 406.292C177.359 405.446 175.86 402.571 176.708 399.883C177.555 397.195 180.431 395.699 183.117 396.546C185.801 397.391 187.299 400.266 186.452 402.952ZM185.795 402.746C186.529 400.417 185.238 397.933 182.909 397.199C180.579 396.464 178.096 397.758 177.362 400.087C176.627 402.419 177.921 404.9 180.252 405.635C182.581 406.369 185.061 405.077 185.795 402.746ZM185.282 402.584C184.638 404.632 182.458 405.767 180.413 405.122C178.367 404.478 177.232 402.299 177.878 400.251C178.522 398.205 180.701 397.07 182.749 397.716C184.792 398.359 185.927 400.538 185.282 402.584ZM182.909 397.2C180.579 396.465 178.096 397.759 177.362 400.088C176.627 402.421 177.921 404.901 180.252 405.636C182.581 406.37 185.061 405.078 185.795 402.747C186.529 400.419 185.238 397.933 182.909 397.2ZM185.282 402.584C184.638 404.632 182.458 405.767 180.413 405.122C178.367 404.478 177.232 402.299 177.878 400.251C178.522 398.205 180.701 397.07 182.749 397.716C184.792 398.359 185.927 400.538 185.282 402.584ZM182.909 397.2C180.579 396.465 178.096 397.759 177.362 400.088C176.627 402.421 177.921 404.901 180.252 405.636C182.581 406.37 185.061 405.078 185.795 402.747C186.529 400.419 185.238 397.933 182.909 397.2ZM185.282 402.584C184.638 404.632 182.458 405.767 180.413 405.122C178.367 404.478 177.232 402.299 177.878 400.251C178.522 398.205 180.701 397.07 182.749 397.716C184.792 398.359 185.927 400.538 185.282 402.584Z" fill="#667085"/>
<path d="M180.603 410.477L177.184 409.4L176.611 411.88L179.651 412.838L180.603 410.477Z" fill="#667085"/>
<path d="M174.46 407.275L172.804 404.096L170.646 405.444L172.118 408.271L174.46 407.275Z" fill="#667085"/>
<path d="M172.379 400.667L173.457 397.249L170.977 396.676L170.02 399.716L172.379 400.667Z" fill="#667085"/>
<path d="M175.582 394.524L178.76 392.868L177.413 390.709L174.586 392.182L175.582 394.524Z" fill="#667085"/>
<path d="M182.189 392.444L185.608 393.52L186.182 391.042L183.141 390.084L182.189 392.444Z" fill="#667085"/>
<path d="M188.332 395.646L189.988 398.825L192.147 397.477L190.674 394.65L188.332 395.646Z" fill="#667085"/>
<path d="M190.413 402.254L189.336 405.672L191.815 406.246L192.773 403.206L190.413 402.254Z" fill="#667085"/>
<path d="M187.211 408.396L184.031 410.052L185.379 412.211L188.207 410.739L187.211 408.396Z" fill="#667085"/>
<path d="M355.342 367.484C360.03 361.167 358.709 352.243 352.392 347.556C346.073 342.866 337.149 344.187 332.462 350.503C327.772 356.822 329.093 365.746 335.412 370.436C341.728 375.124 350.652 373.804 355.342 367.484ZM349.244 362.959C347.053 365.912 342.888 366.528 339.937 364.339C336.985 362.148 336.368 357.983 338.559 355.029C340.748 352.079 344.915 351.462 347.867 353.653C350.817 355.843 351.433 360.009 349.244 362.959Z" fill="#344054"/>
<path d="M337.961 371.593L333.562 368.328L331.494 371.623L335.407 374.527L337.961 371.593Z" fill="#344054"/>
<path d="M330.688 363.896L329.886 358.477L326.094 359.344L326.807 364.164L330.688 363.896Z" fill="#344054"/>
<path d="M330.987 353.31L334.253 348.911L330.958 346.844L328.055 350.756L330.987 353.31Z" fill="#344054"/>
<path d="M338.684 346.038L344.104 345.235L343.236 341.443L338.416 342.157L338.684 346.038Z" fill="#344054"/>
<path d="M349.27 346.337L353.669 349.603L355.736 346.308L351.824 343.404L349.27 346.337Z" fill="#344054"/>
<path d="M356.543 354.034L357.345 359.453L361.137 358.586L360.423 353.766L356.543 354.034Z" fill="#344054"/>
<path d="M356.244 364.619L352.979 369.018L356.273 371.086L359.177 367.173L356.244 364.619Z" fill="#344054"/>
<path d="M348.546 371.891L343.127 372.692L343.994 376.484L348.815 375.772L348.546 371.891Z" fill="#344054"/>
<path d="M338.797 359.678L341.823 363.495L346.643 362.779L348.431 358.252L345.408 354.438L340.589 355.149L338.797 359.678ZM344.534 357.725C345.22 358.235 345.362 359.199 344.853 359.885C344.345 360.568 343.379 360.714 342.693 360.204C342.009 359.697 341.866 358.728 342.373 358.044C342.883 357.359 343.85 357.218 344.534 357.725Z" fill="#344054"/>
<path d="M366.022 90.065C363.983 89.4223 361.81 90.5548 361.167 92.5922C360.525 94.6337 361.657 96.8042 363.697 97.4469C365.734 98.0896 367.905 96.9581 368.547 94.9187C369.19 92.8813 368.059 90.7067 366.022 90.065ZM368.099 94.7762C367.534 96.5681 365.628 97.5613 363.837 96.9976C362.047 96.4339 361.054 94.5266 361.618 92.7347C362.181 90.9448 364.089 89.9516 365.881 90.5153C367.67 91.079 368.664 92.9863 368.099 94.7762ZM366.022 90.065C363.983 89.4223 361.81 90.5548 361.167 92.5922C360.525 94.6337 361.657 96.8042 363.697 97.4469C365.734 98.0896 367.905 96.9581 368.547 94.9187C369.19 92.8813 368.059 90.7067 366.022 90.065ZM368.099 94.7762C367.534 96.5681 365.628 97.5613 363.837 96.9976C362.047 96.4339 361.054 94.5266 361.618 92.7347C362.181 90.9448 364.089 89.9516 365.881 90.5153C367.67 91.079 368.664 92.9863 368.099 94.7762ZM366.022 90.065C363.983 89.4223 361.81 90.5548 361.167 92.5922C360.525 94.6337 361.657 96.8042 363.697 97.4469C365.734 98.0896 367.905 96.9581 368.547 94.9187C369.19 92.8813 368.059 90.7067 366.022 90.065ZM368.099 94.7762C367.534 96.5681 365.628 97.5613 363.837 96.9976C362.047 96.4339 361.054 94.5266 361.618 92.7347C362.181 90.9448 364.089 89.9516 365.881 90.5153C367.67 91.079 368.664 92.9863 368.099 94.7762ZM367.313 85.9767C363.013 84.6227 358.434 87.0115 357.08 91.3047C355.727 95.5999 358.111 100.182 362.409 101.535C366.703 102.888 371.285 100.502 372.638 96.2062C373.992 91.9131 371.606 87.3287 367.313 85.9767ZM369.123 95.0986C368.382 97.4511 365.867 98.7625 363.516 98.021C361.164 97.2795 359.854 94.7647 360.595 92.4123C361.337 90.0598 363.854 88.7504 366.204 89.4919C368.554 90.2324 369.864 92.7471 369.123 95.0986ZM368.548 94.9187C369.191 92.8813 368.061 90.7067 366.023 90.065C363.984 89.4223 361.811 90.5548 361.168 92.5922C360.526 94.6337 361.658 96.8042 363.698 97.4469C365.735 98.0886 367.906 96.9581 368.548 94.9187ZM368.099 94.7762C367.534 96.5681 365.628 97.5613 363.837 96.9976C362.047 96.4339 361.054 94.5266 361.618 92.7347C362.181 90.9448 364.089 89.9516 365.881 90.5153C367.67 91.079 368.664 92.9863 368.099 94.7762ZM366.022 90.065C363.983 89.4223 361.81 90.5548 361.167 92.5922C360.525 94.6337 361.657 96.8042 363.697 97.4469C365.734 98.0896 367.905 96.9581 368.547 94.9187C369.19 92.8813 368.059 90.7067 366.022 90.065ZM368.099 94.7762C367.534 96.5681 365.628 97.5613 363.837 96.9976C362.047 96.4339 361.054 94.5266 361.618 92.7347C362.181 90.9448 364.089 89.9516 365.881 90.5153C367.67 91.079 368.664 92.9863 368.099 94.7762ZM366.022 90.065C363.983 89.4223 361.81 90.5548 361.167 92.5922C360.525 94.6337 361.657 96.8042 363.697 97.4469C365.734 98.0896 367.905 96.9581 368.547 94.9187C369.19 92.8813 368.059 90.7067 366.022 90.065ZM368.099 94.7762C367.534 96.5681 365.628 97.5613 363.837 96.9976C362.047 96.4339 361.054 94.5266 361.618 92.7347C362.181 90.9448 364.089 89.9516 365.881 90.5153C367.67 91.079 368.664 92.9863 368.099 94.7762Z" fill="#344054"/>
<path d="M364.004 101.682L361.013 100.74L360.512 102.91L363.172 103.748L364.004 101.682Z" fill="#344054"/>
<path d="M358.628 98.8806L357.18 96.0996L355.291 97.2779L356.58 99.7521L358.628 98.8806Z" fill="#344054"/>
<path d="M356.809 93.0997L357.752 90.1087L355.582 89.6074L354.744 92.2677L356.809 93.0997Z" fill="#344054"/>
<path d="M359.61 87.7241L362.392 86.2754L361.212 84.3867L358.738 85.6753L359.61 87.7241Z" fill="#344054"/>
<path d="M365.393 85.9033L368.384 86.8456L368.886 84.6761L366.226 83.8379L365.393 85.9033Z" fill="#344054"/>
<path d="M370.768 88.7055L372.216 91.4875L374.105 90.3081L372.816 87.834L370.768 88.7055Z" fill="#344054"/>
<path d="M372.589 94.4883L371.646 97.4793L373.816 97.9816L374.654 95.3213L372.589 94.4883Z" fill="#344054"/>
<path d="M369.787 99.8633L367.006 101.312L368.184 103.201L370.658 101.912L369.787 99.8633Z" fill="#344054"/>
<path d="M326.277 238.645C324.238 238.002 322.065 239.135 321.422 241.172C320.78 243.214 321.912 245.384 323.952 246.027C325.989 246.67 328.159 245.538 328.802 243.499C329.444 241.461 328.314 239.287 326.277 238.645ZM328.353 243.356C327.788 245.148 325.882 246.141 324.092 245.578C322.302 245.014 321.309 243.107 321.873 241.315C322.436 239.525 324.344 238.532 326.136 239.095C327.923 239.659 328.918 241.566 328.353 243.356ZM326.277 238.645C324.238 238.002 322.065 239.135 321.422 241.172C320.78 243.214 321.912 245.384 323.952 246.027C325.989 246.67 328.159 245.538 328.802 243.499C329.444 241.461 328.314 239.287 326.277 238.645ZM328.353 243.356C327.788 245.148 325.882 246.141 324.092 245.578C322.302 245.014 321.309 243.107 321.873 241.315C322.436 239.525 324.344 238.532 326.136 239.095C327.923 239.659 328.918 241.566 328.353 243.356ZM326.277 238.645C324.238 238.002 322.065 239.135 321.422 241.172C320.78 243.214 321.912 245.384 323.952 246.027C325.989 246.67 328.159 245.538 328.802 243.499C329.444 241.461 328.314 239.287 326.277 238.645ZM328.353 243.356C327.788 245.148 325.882 246.141 324.092 245.578C322.302 245.014 321.309 243.107 321.873 241.315C322.436 239.525 324.344 238.532 326.136 239.095C327.923 239.659 328.918 241.566 328.353 243.356ZM327.567 234.557C323.267 233.203 318.688 235.592 317.334 239.885C315.981 244.181 318.365 248.762 322.663 250.115C326.957 251.468 331.538 249.082 332.891 244.786C334.246 240.493 331.86 235.909 327.567 234.557ZM329.377 243.679C328.636 246.031 326.121 247.343 323.77 246.601C321.419 245.861 320.108 243.345 320.849 240.992C321.591 238.64 324.108 237.33 326.458 238.072C328.807 238.812 330.118 241.327 329.377 243.679ZM328.802 243.499C329.444 241.461 328.314 239.287 326.277 238.645C324.238 238.002 322.065 239.135 321.422 241.172C320.78 243.214 321.912 245.384 323.952 246.027C325.989 246.67 328.159 245.538 328.802 243.499ZM328.353 243.356C327.788 245.148 325.882 246.141 324.092 245.578C322.302 245.014 321.309 243.107 321.873 241.315C322.436 239.525 324.344 238.532 326.136 239.095C327.923 239.659 328.918 241.566 328.353 243.356ZM326.277 238.645C324.238 238.002 322.065 239.135 321.422 241.172C320.78 243.214 321.912 245.384 323.952 246.027C325.989 246.67 328.159 245.538 328.802 243.499C329.444 241.461 328.314 239.287 326.277 238.645ZM328.353 243.356C327.788 245.148 325.882 246.141 324.092 245.578C322.302 245.014 321.309 243.107 321.873 241.315C322.436 239.525 324.344 238.532 326.136 239.095C327.923 239.659 328.918 241.566 328.353 243.356ZM326.277 238.645C324.238 238.002 322.065 239.135 321.422 241.172C320.78 243.214 321.912 245.384 323.952 246.027C325.989 246.67 328.159 245.538 328.802 243.499C329.444 241.461 328.314 239.287 326.277 238.645ZM328.353 243.356C327.788 245.148 325.882 246.141 324.092 245.578C322.302 245.014 321.309 243.107 321.873 241.315C322.436 239.525 324.344 238.532 326.136 239.095C327.923 239.659 328.918 241.566 328.353 243.356Z" fill="#344054"/>
<path d="M324.258 250.263L321.267 249.32L320.766 251.49L323.426 252.328L324.258 250.263Z" fill="#344054"/>
<path d="M318.882 247.461L317.435 244.68L315.545 245.858L316.833 248.332L318.882 247.461Z" fill="#344054"/>
<path d="M317.062 241.678L318.006 238.687L315.836 238.186L314.998 240.846L317.062 241.678Z" fill="#344054"/>
<path d="M319.864 236.302L322.646 234.855L321.466 232.965L318.992 234.253L319.864 236.302Z" fill="#344054"/>
<path d="M325.646 234.482L328.637 235.426L329.14 233.256L326.48 232.418L325.646 234.482Z" fill="#344054"/>
<path d="M331.021 237.284L332.47 240.066L334.359 238.886L333.07 236.412L331.021 237.284Z" fill="#344054"/>
<path d="M332.843 243.066L331.9 246.057L334.07 246.56L334.908 243.899L332.843 243.066Z" fill="#344054"/>
<path d="M330.041 248.441L327.26 249.89L328.438 251.779L330.912 250.49L330.041 248.441Z" fill="#344054"/>
<path d="M98.8221 121.672C100.426 115.091 96.3895 108.455 89.8084 106.851C83.2252 105.248 76.5879 109.284 74.9843 115.865C73.3806 122.448 77.4168 129.086 84 130.689C90.5822 132.292 97.2184 128.256 98.8221 121.672ZM92.4698 120.125C91.7199 123.201 88.6228 125.086 85.5486 124.336C82.4723 123.586 80.5878 120.489 81.3376 117.413C82.0864 114.338 85.1846 112.455 88.2609 113.205C91.3341 113.954 93.2186 117.051 92.4698 120.125Z" fill="#344054"/>
<path d="M86.4129 130.752L81.8296 129.635L81.293 132.941L85.3687 133.934L86.4129 130.752Z" fill="#344054"/>
<path d="M78.0653 127.082L75.614 123.051L72.8965 125.009L75.0763 128.594L78.0653 127.082Z" fill="#344054"/>
<path d="M74.7566 118.585L75.8736 114.003L72.5674 113.465L71.5742 117.542L74.7566 118.585Z" fill="#344054"/>
<path d="M78.4262 110.237L82.4562 107.786L80.4989 105.068L76.9141 107.249L78.4262 110.237Z" fill="#344054"/>
<path d="M86.9238 106.93L91.5071 108.047L92.0448 104.741L87.968 103.748L86.9238 106.93Z" fill="#344054"/>
<path d="M95.2715 110.6L97.7228 114.631L100.44 112.673L98.2604 109.088L95.2715 110.6Z" fill="#344054"/>
<path d="M98.5779 119.098L97.4609 123.681L100.767 124.218L101.76 120.141L98.5779 119.098Z" fill="#344054"/>
<path d="M94.9089 127.445L90.8789 129.897L92.8372 132.614L96.4221 130.433L94.9089 127.445Z" fill="#344054"/>
<path d="M83.085 121.021L86.7635 123.036L90.3463 120.854L90.2496 116.664L86.5732 114.65L82.9883 116.828L83.085 121.021ZM86.9819 117.551C87.6974 117.725 88.1332 118.442 87.9584 119.158C87.7848 119.87 87.0672 120.309 86.3516 120.134C85.6392 119.961 85.2014 119.24 85.3751 118.528C85.5498 117.813 86.2695 117.377 86.9819 117.551Z" fill="#344054"/>
<path d="M376.053 248.496C373.256 244.236 371.683 239.444 371.683 234.38C371.683 216.496 391.322 201.996 415.532 201.996C439.742 201.996 459.363 216.497 459.363 234.38C459.363 252.262 439.742 266.763 415.532 266.763C403.792 266.763 393.15 263.362 385.287 257.804L370.184 261.644L376.053 248.496Z" fill="white"/>
<path d="M376.054 248.496C373.414 244.564 371.76 239.92 371.586 235.15C371.455 230.39 372.628 225.573 375.073 221.454C377.463 217.304 380.869 213.806 384.717 210.991C388.569 208.162 392.907 206.024 397.434 204.522C401.962 203.008 406.681 202.102 411.44 201.721C416.206 201.373 421.005 201.668 425.715 202.447C426.885 202.687 428.073 202.847 429.228 203.154L432.691 204.086L436.074 205.281C437.2 205.686 438.269 206.235 439.369 206.705C443.687 208.759 447.736 211.45 451.141 214.848C454.537 218.232 457.277 222.367 458.721 226.994C460.163 231.604 460.268 236.665 458.865 241.301C457.5 245.953 454.824 250.131 451.474 253.56C448.115 257.002 444.099 259.741 439.803 261.842C435.507 263.968 430.88 265.352 426.186 266.205C421.484 267.012 416.687 267.357 411.926 267.021C407.165 266.721 402.437 265.851 397.906 264.356C393.381 262.866 389.027 260.785 385.152 257.998L385.347 258.035L370.213 261.756L369.984 261.812L370.081 261.599L376.054 248.496ZM376.054 248.496L370.288 261.689L370.156 261.532L385.23 257.573L385.334 257.546L385.425 257.609C393.202 262.978 402.582 265.772 411.97 266.275C416.675 266.565 421.407 266.18 426.029 265.345C430.647 264.487 435.196 263.115 439.401 261.017C443.609 258.944 447.529 256.25 450.785 252.891C454.035 249.544 456.604 245.496 457.903 241.023C459.241 236.563 459.113 231.721 457.731 227.299C456.357 222.855 453.73 218.85 450.437 215.549C447.137 212.236 443.189 209.591 438.961 207.565C437.884 207.101 436.838 206.559 435.734 206.159L432.416 204.975L429.014 204.049C427.879 203.744 426.71 203.585 425.56 203.344C420.927 202.558 416.2 202.273 411.5 202.575C406.807 202.909 402.145 203.761 397.667 205.214C393.189 206.657 388.894 208.726 385.074 211.481C381.254 214.22 377.888 217.641 375.461 221.68C372.99 225.697 371.758 230.423 371.812 235.142C371.906 239.871 373.476 244.523 376.054 248.496Z" fill="#344054"/>
<path d="M392.976 239.681V242.089H383.164V227.957H392.798V230.366H385.912V233.769H391.863V235.998H385.912V239.68L392.976 239.681Z" fill="#344054"/>
<path d="M395.127 242.091V227.959H401.377C402.027 227.959 402.627 228.095 403.178 228.368C403.728 228.64 404.202 228.998 404.6 229.442C404.999 229.887 405.311 230.392 405.535 230.955C405.761 231.519 405.873 232.087 405.873 232.657C405.873 233.572 405.644 234.405 405.187 235.155C404.73 235.905 404.109 236.445 403.326 236.776L406.551 242.091H403.466L400.581 237.353H397.874V242.091H395.127ZM397.874 234.945H401.317C401.569 234.945 401.805 234.885 402.023 234.766C402.243 234.646 402.431 234.484 402.591 234.278C402.75 234.073 402.876 233.831 402.969 233.552C403.062 233.273 403.109 232.975 403.109 232.657C403.109 232.325 403.055 232.02 402.95 231.741C402.843 231.463 402.701 231.221 402.521 231.016C402.342 230.81 402.137 230.651 401.905 230.537C401.672 230.425 401.437 230.368 401.197 230.368H397.875V234.945H397.874Z" fill="#344054"/>
<path d="M408.361 242.091V227.959H414.612C415.262 227.959 415.862 228.095 416.412 228.368C416.962 228.64 417.436 228.998 417.835 229.442C418.233 229.887 418.545 230.392 418.77 230.955C418.995 231.519 419.108 232.087 419.108 232.657C419.108 233.572 418.879 234.405 418.421 235.155C417.965 235.905 417.344 236.445 416.561 236.776L419.785 242.091H416.699L413.813 237.353H411.107V242.091H408.361ZM411.109 234.945H414.551C414.803 234.945 415.039 234.885 415.258 234.766C415.477 234.646 415.665 234.484 415.825 234.278C415.985 234.073 416.11 233.831 416.203 233.552C416.297 233.273 416.343 232.975 416.343 232.657C416.343 232.325 416.289 232.02 416.184 231.741C416.077 231.463 415.936 231.221 415.756 231.016C415.577 230.81 415.371 230.651 415.139 230.537C414.906 230.425 414.671 230.368 414.432 230.368H411.109V234.945Z" fill="#344054"/>
<path d="M427.628 242.188C426.593 242.188 425.655 241.987 424.812 241.582C423.968 241.178 423.245 240.64 422.642 239.97C422.038 239.3 421.571 238.534 421.238 237.672C420.908 236.81 420.742 235.927 420.742 235.025C420.742 234.083 420.918 233.181 421.269 232.318C421.621 231.456 422.106 230.692 422.721 230.029C423.339 229.365 424.072 228.838 424.921 228.447C425.77 228.056 426.692 227.859 427.687 227.859C428.709 227.859 429.64 228.068 430.484 228.487C431.327 228.905 432.047 229.452 432.643 230.129C433.24 230.805 433.705 231.575 434.037 232.437C434.368 233.301 434.534 234.175 434.534 235.065C434.534 236.007 434.361 236.905 434.017 237.761C433.671 238.617 433.193 239.373 432.584 240.03C431.973 240.688 431.243 241.212 430.394 241.603C429.545 241.993 428.623 242.188 427.628 242.188ZM423.527 235.024C423.527 235.634 423.62 236.225 423.806 236.795C423.992 237.366 424.262 237.87 424.612 238.308C424.964 238.746 425.395 239.098 425.906 239.363C426.416 239.628 426.997 239.761 427.648 239.761C428.311 239.761 428.898 239.626 429.409 239.353C429.919 239.082 430.35 238.72 430.702 238.269C431.054 237.817 431.319 237.31 431.499 236.746C431.678 236.183 431.767 235.608 431.767 235.025C431.767 234.416 431.671 233.825 431.479 233.254C431.287 232.684 431.015 232.179 430.664 231.741C430.311 231.303 429.881 230.954 429.37 230.697C428.859 230.438 428.285 230.308 427.649 230.308C426.984 230.308 426.395 230.444 425.878 230.716C425.36 230.989 424.928 231.347 424.584 231.791C424.239 232.236 423.977 232.74 423.798 233.304C423.617 233.866 423.527 234.441 423.527 235.024Z" fill="#344054"/>
<path d="M436.645 242.091V227.959H442.895C443.545 227.959 444.145 228.095 444.695 228.368C445.245 228.64 445.72 228.998 446.118 229.442C446.516 229.887 446.828 230.392 447.053 230.955C447.279 231.519 447.391 232.087 447.391 232.657C447.391 233.572 447.162 234.405 446.704 235.155C446.248 235.905 445.627 236.445 444.844 236.776L448.069 242.091H444.983L442.098 237.353H439.391V242.091H436.645ZM439.391 234.945H442.835C443.086 234.945 443.322 234.885 443.541 234.766C443.76 234.646 443.949 234.484 444.109 234.278C444.268 234.073 444.394 233.831 444.486 233.552C444.58 233.273 444.627 232.975 444.627 232.657C444.627 232.325 444.572 232.02 444.467 231.741C444.36 231.463 444.219 231.221 444.039 231.016C443.86 230.81 443.654 230.651 443.422 230.537C443.189 230.425 442.954 230.368 442.715 230.368H439.392V234.945H439.391Z" fill="#344054"/>
</svg>
