<svg xmlns="http://www.w3.org/2000/svg" width="1440" height="1219" fill="none"><path fill="#580F41" d="M0 0h1440v213H0z"/><g clip-path="url(#a)"><path fill="#006766" d="M0 135h1440v1084H0z"/><ellipse cx="1235" cy="438.5" fill="#0FB9A5" rx="179" ry="178.5"/><ellipse cx="1221.5" cy="643" fill="#0FB9A5" rx="32.5" ry="31"/><ellipse cx="1230.5" cy="888" fill="#057B8C" opacity=".5" rx="76.5" ry="72"/><ellipse cx="538.5" cy="1047" fill="#FED813" opacity=".5" rx="57.5" ry="53"/><ellipse cx="182.5" cy="1069.5" fill="#0FB9A5" rx="119.5" ry="109.5"/><ellipse cx="220.5" cy="927.5" fill="#0FB9A5" rx="40.5" ry="37.5"/><ellipse cx="198.5" cy="685" fill="#057B8C" opacity=".5" rx="76.5" ry="72"/><ellipse cx="593" cy="1113.5" fill="#580F41" opacity=".5" rx="14" ry="13.5"/><mask id="b" width="1678" height="1492" x="-190" y="-265" maskUnits="userSpaceOnUse" style="mask-type:luminance"><path fill="#fff" d="M1488-265H-190v1492h1678z"/></mask><g mask="url(#b)"><path fill="#580F41" d="M127.315 199.146c66.323.862 36.235 35.982 97.036 35.11 79.205-1.135 80.282-36.825 141.153-35.907 60.871.914 50.836 63.437 216.642 63.437 234.317 0 256.697-98.152 545.514-98.152 144.42 0 252.15 38.046 312.34 66.372V.001H0v270.624c68.059-.09 50.315-72.478 127.315-71.479"/><path fill="#FFC807" d="M1426.91 1227c15.62 0 31.26-5.2 43.18-15.69 23.88-20.91 23.88-54.82 0-75.76-86.3-75.71-186.83-63.04-267.67-52.85-77.15 9.7-122.79 13.45-163.89-22.57-41.073-36.02-36.8-76.078-25.71-143.765 11.59-70.849 26.01-159.039-60.288-234.728-86.302-75.713-186.858-63.066-267.669-52.875-77.178 9.728-122.824 13.45-163.895-22.546-41.099-36.045-36.828-76.078-25.735-143.765 11.591-70.873 26.04-159.064-60.29-234.752-86.329-75.713-186.885-63.042-267.668-52.876-77.178 9.705-122.824 13.45-163.951-22.594-41.07-36.045-36.8-76.078-25.735-143.765C-10.82-62.41 3.629-150.6-82.728-226.313c-23.822-20.916-62.535-20.916-86.385 0-23.849 20.917-23.849 54.846 0 75.787 41.099 36.02 36.828 76.078 25.763 143.764-11.592 70.874-26.04 159.064 60.29 234.753 86.3 75.713 186.857 63.041 267.667 52.899 77.206-9.729 122.881-13.474 163.952 22.57 41.098 36.045 36.827 76.078 25.735 143.765-11.592 70.849-26.041 159.039 60.289 234.752 86.302 75.689 186.83 63.018 267.64 52.851 77.151-9.728 122.825-13.45 163.896 22.571 41.099 36.02 36.828 76.078 25.735 143.74-11.592 70.873-26.04 159.061 60.289 234.751 86.307 75.71 186.857 63.02 267.667 52.88 77.15-9.73 122.83-13.48 163.9 22.54 11.92 10.46 27.56 15.69 43.2 15.69"/></g></g><defs><clipPath id="a"><path fill="#fff" d="M0 135h1440v1084H0z"/></clipPath></defs></svg>