<svg width="1543" height="1306" viewBox="0 0 1543 1306" fill="none" xmlns="http://www.w3.org/2000/svg">
<g clip-path="url(#clip0_2087_21317)">
<ellipse cx="134.5" cy="426" rx="73.5" ry="66" fill="#0FB9A5"/>
<ellipse cx="1309.5" cy="761.5" rx="59.5" ry="56.5" fill="#0FB9A5"/>
<ellipse opacity="0.5" cx="33.5" cy="977.5" rx="33.5" ry="31.5" fill="#580F41"/>
<path d="M-20.3754 1306C-36.2943 1306 -52.2416 1300.72 -64.3999 1290.1C-88.7449 1268.9 -88.7449 1234.53 -64.3999 1213.31C23.5926 1136.57 126.09 1149.41 208.513 1159.74C287.175 1169.58 333.716 1173.37 375.62 1136.87C417.495 1100.36 413.141 1059.76 401.831 991.15C390.012 919.341 375.308 829.954 463.301 753.239C551.294 676.499 653.82 689.318 736.214 699.647C814.904 709.507 861.445 713.279 903.321 676.795C945.224 640.261 940.87 599.685 929.56 531.08C917.741 459.245 903.01 369.859 991.03 293.144C1079.05 216.404 1181.58 229.247 1263.94 239.551C1342.63 249.387 1389.17 253.184 1431.11 216.65C1472.98 180.117 1468.63 139.54 1457.35 70.9352C1445.53 -0.899239 1430.8 -90.2855 1518.84 -167.026C1543.13 -188.226 1582.61 -188.226 1606.92 -167.026C1631.24 -145.825 1631.24 -111.436 1606.92 -90.2115C1565.02 -53.7027 1569.37 -13.1017 1580.65 55.5034C1592.47 127.338 1607.2 216.724 1519.18 293.439C1431.19 370.18 1328.67 357.336 1246.27 347.056C1167.55 337.196 1120.98 333.4 1079.11 369.933C1037.2 406.467 1041.56 447.043 1052.87 515.648C1064.69 587.458 1079.42 676.844 991.398 753.584C903.405 830.299 800.908 817.456 718.513 807.152C639.852 797.291 593.282 793.519 551.407 830.028C509.503 866.537 513.857 907.138 525.167 975.719C536.986 1047.55 551.718 1136.94 463.697 1213.65C375.704 1290.39 273.178 1277.53 190.784 1267.25C112.122 1257.39 65.5531 1253.59 23.6775 1290.1C11.5191 1300.7 -4.42814 1306 -20.3754 1306Z" fill="#FFC807"/>
<ellipse cx="78" cy="246" rx="128" ry="121" fill="#0FB9A5"/>
<ellipse cx="1341" cy="997" rx="202" ry="190" fill="#0FB9A5"/>
<ellipse opacity="0.5" cx="1.5" cy="898" rx="56.5" ry="51" fill="#FED813"/>
</g>
<defs>
<clipPath id="clip0_2087_21317">
<rect width="1543" height="1306" fill="white"/>
</clipPath>
</defs>
</svg>
