<svg width="1180" height="984" viewBox="0 0 1180 984" fill="none" xmlns="http://www.w3.org/2000/svg">
<path d="M104.328 908.15C158.675 908.889 134.02 938.984 183.843 938.237C248.748 937.264 249.63 906.681 299.51 907.468C349.39 908.251 341.167 961.828 477.036 961.828C669.046 961.828 687.385 877.72 924.054 877.72C1042.39 877.72 1130.67 910.322 1180 934.596V737.5L2.38419e-05 737.5V969.402C55.7705 969.326 41.2303 907.294 104.328 908.15Z" fill="#007A7E"/>
<g clip-path="url(#clip0_2205_18943)">
<rect x="0.819336" width="1179.18" height="861.236" fill="#007A7E"/>
<ellipse cx="110.215" cy="349.083" rx="60.2292" ry="54.0833" fill="#0FB9A5"/>
<ellipse cx="1073.06" cy="624.008" rx="48.7569" ry="46.2986" fill="#0FB9A5"/>
<ellipse opacity="0.5" cx="27.4514" cy="801.008" rx="27.4514" ry="25.8125" fill="#580F41"/>
<ellipse cx="63.9167" cy="201.582" rx="104.889" ry="99.1528" fill="#0FB9A5"/>
<ellipse cx="1098.88" cy="816.985" rx="165.528" ry="155.694" fill="#0FB9A5"/>
<ellipse opacity="0.5" cx="1.22927" cy="735.862" rx="46.2986" ry="41.7917" fill="#FED813"/>
<path d="M-15.5821 983.333C-27.756 983.333 -39.9516 979.361 -49.2496 971.362C-67.8673 955.399 -67.8673 929.525 -49.2496 913.544C18.0422 855.764 96.4268 865.434 159.459 873.211C219.615 880.617 255.207 883.475 287.253 855.987C319.277 828.498 315.947 797.928 307.297 746.273C298.259 692.205 287.015 624.903 354.307 567.141C421.598 509.361 500.005 519.012 563.015 526.789C623.193 534.214 658.785 537.054 690.809 509.583C722.855 482.076 719.525 451.525 710.875 399.869C701.837 345.783 690.571 278.481 757.884 220.719C825.198 162.939 903.604 172.609 966.593 180.367C1026.77 187.773 1062.36 190.632 1094.43 163.124C1126.45 135.617 1123.12 105.066 1114.5 53.4104C1105.46 -0.676283 1094.19 -67.9783 1161.53 -125.759C1180.1 -141.721 1210.29 -141.721 1228.88 -125.759C1247.48 -109.796 1247.48 -83.9037 1228.88 -67.9227C1196.84 -40.4339 1200.17 -9.86396 1208.8 41.7912C1217.83 95.8779 1229.1 163.18 1161.79 220.942C1094.49 278.722 1016.09 269.052 953.078 261.312C892.879 253.887 857.265 251.029 825.241 278.536C793.195 306.044 796.525 336.595 805.175 388.25C814.213 442.318 825.479 509.62 758.166 567.401C690.874 625.162 612.489 615.492 549.479 607.734C489.323 600.309 453.709 597.469 421.685 624.958C389.639 652.447 392.969 683.017 401.618 734.654C410.657 788.74 421.923 856.042 354.609 913.804C287.318 971.584 208.911 961.896 145.901 954.156C85.7448 946.731 50.1312 943.873 18.107 971.362C8.80901 979.343 -3.38654 983.333 -15.5821 983.333Z" fill="#FFC807"/>
</g>
<defs>
<clipPath id="clip0_2205_18943">
<rect width="1180" height="983.333" fill="white"/>
</clipPath>
</defs>
</svg>
