<svg width="1594" height="1369" viewBox="0 0 1594 1369" fill="none" xmlns="http://www.w3.org/2000/svg">
<path d="M58.1257 1368.08C43.2694 1368.08 28.3867 1363.23 17.0399 1353.47C-5.67997 1333.99 -5.67997 1302.41 17.0399 1282.91C99.1587 1212.4 194.814 1224.2 271.735 1233.69C345.146 1242.73 388.58 1246.22 427.687 1212.67C466.767 1179.13 462.703 1141.82 452.148 1078.78C441.118 1012.8 427.396 930.671 509.515 860.182C591.634 789.67 687.316 801.449 764.21 810.939C837.647 820 881.082 823.465 920.162 789.942C959.269 756.374 955.205 719.091 944.65 656.054C933.62 590.05 919.872 507.919 1002.02 437.43C1084.16 366.918 1179.84 378.719 1256.71 388.187C1330.15 397.225 1373.58 400.713 1412.72 367.145C1451.8 333.576 1447.73 296.293 1437.2 233.257C1426.17 167.253 1412.43 85.1212 1494.6 14.6097C1517.27 -4.8699 1554.1 -4.8699 1576.8 14.6097C1599.49 34.0893 1599.49 65.687 1576.8 85.1892C1537.69 118.735 1541.75 156.04 1552.28 219.077C1563.31 285.081 1577.06 367.213 1494.91 437.702C1412.8 508.213 1317.11 496.412 1240.22 486.967C1166.76 477.907 1123.3 474.418 1084.21 507.987C1045.11 541.555 1049.17 578.838 1059.73 641.875C1070.76 707.856 1084.51 789.988 1002.36 860.499C920.241 930.988 824.586 919.187 747.691 909.719C674.281 900.659 630.82 897.193 591.74 930.739C552.633 964.284 556.697 1001.59 567.252 1064.6C578.282 1130.61 592.03 1212.74 509.885 1283.23C427.766 1353.74 332.084 1341.92 255.19 1332.47C181.779 1323.41 138.318 1319.92 99.2379 1353.47C87.8911 1363.21 73.0084 1368.08 58.1257 1368.08Z" fill="#FFC807"/>
</svg>
