<svg width="577" height="453" viewBox="0 0 577 453" fill="none" xmlns="http://www.w3.org/2000/svg">
<rect x="82.5392" width="457.599" height="453" rx="226.5" fill="#F9F9F9"/>
<path d="M2.27997 109L-3.40939e-05 91.816H1.63197L3.16797 103.768C3.23997 104.44 3.33597 105.088 3.38397 106.576C3.81597 105.448 4.27197 104.44 4.58397 103.768L10.2 91.816H12L13.776 103.768C13.896 104.56 14.016 105.448 14.088 106.576C14.4 105.52 14.712 104.8 15.168 103.792L20.568 91.816H22.248L14.496 109H12.96L10.728 94.216L3.86397 109H2.27997ZM22.5528 109.288C20.4888 109.288 19.1448 108.064 19.1448 106.192C19.1448 103.888 20.9208 102.4 24.0168 102.136L27.8088 101.848L27.8568 101.512C28.2408 99.52 27.2808 98.416 25.2168 98.416C23.2488 98.416 22.1208 99.28 21.8568 100.936H20.3448C20.7048 98.488 22.5528 97.072 25.3128 97.072C28.2648 97.072 29.8728 98.776 29.4408 101.464L28.2648 109H26.8968L27.0408 106.96C26.1528 108.4 24.4488 109.288 22.5528 109.288ZM23.0328 107.968C25.4088 107.968 27.1368 106.312 27.5448 103.696L27.6408 103.048L24.1848 103.336C21.9528 103.528 20.7288 104.536 20.7288 106.12C20.7288 107.248 21.6168 107.968 23.0328 107.968ZM30.0415 105.832H31.6255C31.6255 107.104 32.6815 107.968 34.2415 107.968C35.8975 107.968 37.0255 107.128 37.0255 105.856C37.0255 104.944 36.6175 104.464 35.5135 104.056L33.6175 103.408C32.0095 102.856 31.1695 101.872 31.1695 100.408C31.1695 98.416 32.8255 97.072 35.3215 97.072C37.7455 97.072 39.2095 98.416 39.2095 100.576H37.6255C37.5775 99.088 36.8095 98.392 35.2255 98.392C33.6895 98.392 32.7055 99.136 32.7055 100.336C32.7055 101.224 33.2095 101.8 34.3135 102.208L36.1615 102.856C37.8655 103.456 38.5855 104.32 38.5855 105.784C38.5855 107.872 36.8095 109.288 34.1935 109.288C31.7455 109.288 30.0415 107.872 30.0415 105.832ZM41.6765 109H40.0925L41.7245 98.728H39.4685L39.6845 97.384H41.9405L42.5165 93.712H44.0765L43.5005 97.384H45.7805L45.5645 98.728H43.2845L41.6765 109ZM49.9677 109.288C47.0157 109.288 44.9997 107.176 44.9997 104.128C44.9997 100.144 47.7117 97.072 51.2157 97.072C54.4077 97.072 56.3037 99.448 55.7997 102.592L55.6797 103.384H46.5837C46.5597 103.6 46.5597 103.816 46.5597 104.056C46.5597 106.408 47.9037 107.92 49.9917 107.92C51.6957 107.92 53.1597 107.032 53.7357 105.544H55.3197C54.5517 107.872 52.4397 109.288 49.9677 109.288ZM51.1677 98.44C49.1037 98.44 47.3997 100 46.7997 102.232H54.2637C54.6237 99.952 53.3277 98.44 51.1677 98.44ZM63.9292 109H62.2972L65.0092 91.816H71.2492C74.1292 91.816 75.9772 93.544 75.9772 96.28C75.9772 98.872 74.3212 100.888 71.6332 101.584L74.1052 109H72.4012L70.0252 101.848H65.0812L63.9292 109ZM66.4252 93.304L65.2972 100.36H69.9532C72.6172 100.36 74.2972 98.8 74.2972 96.352C74.2972 94.432 73.0732 93.304 71.0092 93.304H66.4252ZM80.0615 109.288C77.1095 109.288 75.0935 107.176 75.0935 104.128C75.0935 100.144 77.8055 97.072 81.3095 97.072C84.5015 97.072 86.3975 99.448 85.8935 102.592L85.7735 103.384H76.6775C76.6535 103.6 76.6535 103.816 76.6535 104.056C76.6535 106.408 77.9975 107.92 80.0855 107.92C81.7895 107.92 83.2535 107.032 83.8295 105.544H85.4135C84.6455 107.872 82.5335 109.288 80.0615 109.288ZM81.2615 98.44C79.1975 98.44 77.4935 100 76.8935 102.232H84.3575C84.7175 99.952 83.4215 98.44 81.2615 98.44ZM91.1239 109.288C88.4119 109.288 86.5159 107.2 86.5159 104.2C86.5159 100.12 89.1799 97.072 92.6839 97.072C94.6759 97.072 96.1879 98.08 96.6919 99.76L97.9879 91.504H99.5479L96.7879 109H95.3719L95.5879 106.696C94.5319 108.424 93.0439 109.288 91.1239 109.288ZM91.4359 107.872C94.1239 107.872 96.2119 105.376 96.2119 102.112C96.2119 99.832 94.9879 98.488 92.8039 98.488C90.1399 98.488 88.0999 100.936 88.0999 104.152C88.0999 106.408 89.3959 107.872 91.4359 107.872ZM109.066 97.384H110.626L108.802 109H107.434L107.578 106.912C106.522 108.52 105.25 109.288 103.474 109.288C100.906 109.288 99.3697 107.32 99.8257 104.464L100.954 97.384H102.514L101.434 104.104C101.05 106.552 101.986 107.848 103.906 107.848C106.138 107.848 107.674 106.168 108.106 103.432L109.066 97.384ZM111.023 104.128C111.023 100.144 113.735 97.072 117.239 97.072C119.855 97.072 121.511 98.512 121.799 101.032H120.167C119.999 99.472 118.871 98.512 117.191 98.512C114.623 98.512 112.631 100.936 112.631 104.056C112.631 106.36 113.975 107.872 116.015 107.872C117.719 107.872 119.111 106.912 119.687 105.352H121.319C120.575 107.776 118.511 109.288 115.991 109.288C113.039 109.288 111.023 107.176 111.023 104.128ZM124.778 109H123.194L124.826 98.728H122.57L122.786 97.384H125.042L125.618 93.712H127.178L126.602 97.384H128.882L128.666 98.728H126.386L124.778 109ZM131.338 94.168C130.738 94.168 130.306 93.736 130.306 93.16C130.306 92.416 130.954 91.744 131.698 91.744C132.274 91.744 132.706 92.176 132.706 92.752C132.706 93.496 132.082 94.168 131.338 94.168ZM128.218 109L130.042 97.384H131.626L129.778 109H128.218ZM132.234 104.008C132.234 100.192 135.21 97.072 138.858 97.072C141.906 97.072 143.97 99.232 143.97 102.352C143.97 106.192 140.994 109.288 137.37 109.288C134.322 109.288 132.234 107.152 132.234 104.008ZM133.842 103.936C133.842 106.36 135.258 107.872 137.514 107.872C140.178 107.872 142.362 105.424 142.362 102.424C142.362 100 140.946 98.488 138.69 98.488C136.026 98.488 133.842 100.936 133.842 103.936ZM146.153 109H144.593L146.417 97.384H147.785L147.665 99.472C148.745 97.864 150.065 97.072 151.841 97.072C154.505 97.072 156.065 99.04 155.609 101.92L154.505 109H152.921L154.001 102.256C154.409 99.832 153.473 98.512 151.433 98.512C149.177 98.512 147.545 100.216 147.113 102.952L146.153 109ZM169.911 102.688H165.351L164.343 109H162.711L165.423 91.816H171.351C174.279 91.816 176.295 93.76 176.295 96.592C176.295 100.264 173.775 102.688 169.911 102.688ZM171.015 93.304H166.815L165.567 101.2H169.839C172.815 101.2 174.615 99.472 174.615 96.664C174.615 94.648 173.199 93.304 171.015 93.304ZM175.508 104.008C175.508 100.192 178.484 97.072 182.132 97.072C185.18 97.072 187.244 99.232 187.244 102.352C187.244 106.192 184.268 109.288 180.644 109.288C177.596 109.288 175.508 107.152 175.508 104.008ZM177.116 103.936C177.116 106.36 178.532 107.872 180.788 107.872C183.452 107.872 185.636 105.424 185.636 102.424C185.636 100 184.22 98.488 181.964 98.488C179.3 98.488 177.116 100.936 177.116 103.936ZM189.499 109H187.939L190.699 91.504H192.259L189.499 109ZM195.167 94.168C194.567 94.168 194.135 93.736 194.135 93.16C194.135 92.416 194.783 91.744 195.527 91.744C196.103 91.744 196.535 92.176 196.535 92.752C196.535 93.496 195.911 94.168 195.167 94.168ZM192.047 109L193.871 97.384H195.455L193.607 109H192.047ZM196.062 104.128C196.062 100.144 198.774 97.072 202.278 97.072C204.894 97.072 206.55 98.512 206.838 101.032H205.206C205.038 99.472 203.91 98.512 202.23 98.512C199.662 98.512 197.67 100.936 197.67 104.056C197.67 106.36 199.014 107.872 201.054 107.872C202.758 107.872 204.15 106.912 204.726 105.352H206.358C205.614 107.776 203.55 109.288 201.03 109.288C198.078 109.288 196.062 107.176 196.062 104.128ZM205.047 114.04L205.263 112.744H206.487C207.423 112.744 208.407 112.624 209.199 111.088L209.991 109.576L207.351 97.384H208.935L211.023 107.56L216.255 97.384H217.959L210.495 111.664C209.631 113.272 208.527 114.208 206.703 114.208C206.031 114.208 205.527 114.16 205.047 114.04Z" fill="#101828"/>
<path d="M98.9282 252H93.8402L96.5522 234.816H101.352C106.008 234.816 108.84 237.936 108.84 242.208C108.84 248.352 104.592 252 98.9282 252ZM101.112 236.328H97.9682L95.7362 250.464H99.1202C103.728 250.464 107.136 247.488 107.136 242.208C107.136 238.728 104.952 236.328 101.112 236.328ZM112.502 252.288C110.438 252.288 109.094 251.064 109.094 249.192C109.094 246.888 110.87 245.4 113.966 245.136L117.758 244.848L117.806 244.512C118.19 242.52 117.23 241.416 115.166 241.416C113.198 241.416 112.07 242.28 111.806 243.936H110.294C110.654 241.488 112.502 240.072 115.262 240.072C118.214 240.072 119.822 241.776 119.39 244.464L118.214 252H116.846L116.99 249.96C116.102 251.4 114.398 252.288 112.502 252.288ZM112.982 250.968C115.358 250.968 117.086 249.312 117.494 246.696L117.59 246.048L114.134 246.336C111.902 246.528 110.678 247.536 110.678 249.12C110.678 250.248 111.566 250.968 112.982 250.968ZM122.876 252H121.292L122.924 241.728H120.668L120.884 240.384H123.14L123.716 236.712H125.276L124.7 240.384H126.98L126.764 241.728H124.484L122.876 252ZM129.393 252.288C127.329 252.288 125.985 251.064 125.985 249.192C125.985 246.888 127.761 245.4 130.857 245.136L134.649 244.848L134.697 244.512C135.081 242.52 134.121 241.416 132.057 241.416C130.089 241.416 128.961 242.28 128.697 243.936H127.185C127.545 241.488 129.393 240.072 132.153 240.072C135.105 240.072 136.713 241.776 136.281 244.464L135.105 252H133.737L133.881 249.96C132.993 251.4 131.289 252.288 129.393 252.288ZM129.873 250.968C132.249 250.968 133.977 249.312 134.385 246.696L134.481 246.048L131.025 246.336C128.793 246.528 127.569 247.536 127.569 249.12C127.569 250.248 128.457 250.968 129.873 250.968ZM150.532 245.688H145.972L144.964 252H143.332L146.044 234.816H151.972C154.9 234.816 156.916 236.76 156.916 239.592C156.916 243.264 154.396 245.688 150.532 245.688ZM151.636 236.304H147.436L146.188 244.2H150.46C153.436 244.2 155.236 242.472 155.236 239.664C155.236 237.648 153.82 236.304 151.636 236.304ZM164.209 240.24L163.993 241.656H163.081C161.041 241.656 159.433 243.096 159.097 245.304L158.017 252H156.457L158.281 240.384H159.697L159.529 242.328C160.177 241.008 161.521 240.12 163.081 240.12C163.465 240.12 163.849 240.168 164.209 240.24ZM166.686 237.168C166.086 237.168 165.654 236.736 165.654 236.16C165.654 235.416 166.302 234.744 167.046 234.744C167.622 234.744 168.054 235.176 168.054 235.752C168.054 236.496 167.43 237.168 166.686 237.168ZM163.566 252L165.39 240.384H166.974L165.126 252H163.566ZM170.726 252L167.894 240.384H169.478L171.278 247.992C171.422 248.712 171.566 249.36 171.71 250.344C172.07 249.6 172.406 248.904 172.91 247.992L177.134 240.384H178.862L172.286 252H170.726ZM180.697 252.288C178.633 252.288 177.289 251.064 177.289 249.192C177.289 246.888 179.065 245.4 182.161 245.136L185.953 244.848L186.001 244.512C186.385 242.52 185.425 241.416 183.361 241.416C181.393 241.416 180.265 242.28 180.001 243.936H178.489C178.849 241.488 180.697 240.072 183.457 240.072C186.409 240.072 188.017 241.776 187.585 244.464L186.409 252H185.041L185.185 249.96C184.297 251.4 182.593 252.288 180.697 252.288ZM181.177 250.968C183.553 250.968 185.281 249.312 185.689 246.696L185.785 246.048L182.329 246.336C180.097 246.528 178.873 247.536 178.873 249.12C178.873 250.248 179.761 250.968 181.177 250.968ZM188.738 247.128C188.738 243.144 191.45 240.072 194.954 240.072C197.57 240.072 199.226 241.512 199.514 244.032H197.882C197.714 242.472 196.586 241.512 194.906 241.512C192.338 241.512 190.346 243.936 190.346 247.056C190.346 249.36 191.69 250.872 193.73 250.872C195.434 250.872 196.826 249.912 197.402 248.352H199.034C198.29 250.776 196.226 252.288 193.706 252.288C190.754 252.288 188.738 250.176 188.738 247.128ZM197.723 257.04L197.939 255.744H199.163C200.099 255.744 201.083 255.624 201.875 254.088L202.667 252.576L200.027 240.384H201.611L203.699 250.56L208.931 240.384H210.635L203.171 254.664C202.307 256.272 201.203 257.208 199.379 257.208C198.707 257.208 198.203 257.16 197.723 257.04ZM226.735 252L225.463 250.2C223.975 251.544 222.055 252.312 219.847 252.312C216.679 252.312 214.543 250.536 214.543 247.872C214.543 245.472 215.983 243.888 219.823 242.112C218.599 240.336 218.239 239.448 218.239 238.32C218.239 236.16 219.967 234.528 222.295 234.528C224.359 234.528 225.775 235.8 225.775 237.624C225.775 239.568 224.623 240.984 221.839 242.496L225.607 247.872C226.255 246.864 226.735 245.616 226.975 244.152H228.535C228.223 246.12 227.503 247.8 226.471 249.12L228.487 252H226.735ZM221.071 241.416L221.167 241.536C223.207 240.552 224.239 239.256 224.239 237.696C224.239 236.568 223.471 235.872 222.199 235.872C220.855 235.872 219.775 236.928 219.775 238.272C219.775 239.304 220.063 239.952 221.071 241.416ZM216.199 247.728C216.199 249.648 217.735 250.92 220.015 250.92C221.863 250.92 223.447 250.248 224.671 249.048L220.543 243.144C217.375 244.584 216.199 245.856 216.199 247.728ZM235.4 239.4C235.4 236.52 237.656 234.504 240.896 234.504C244.04 234.504 246.2 236.304 246.392 239.112H244.736C244.52 237.144 243.128 236.04 240.848 236.04C238.568 236.04 237.056 237.312 237.056 239.28C237.056 240.744 237.8 241.632 239.528 242.232L242.096 243.12C244.4 243.912 245.456 245.256 245.456 247.344C245.456 250.272 243.056 252.312 239.6 252.312C236.216 252.312 234.248 250.728 233.936 247.728H235.616C235.832 249.672 237.248 250.8 239.648 250.8C242.12 250.8 243.8 249.432 243.8 247.416C243.8 245.976 243.152 245.16 241.52 244.608L239 243.72C236.528 242.88 235.4 241.512 235.4 239.4ZM251.456 252.288C248.504 252.288 246.488 250.176 246.488 247.128C246.488 243.144 249.2 240.072 252.704 240.072C255.896 240.072 257.792 242.448 257.288 245.592L257.168 246.384H248.072C248.048 246.6 248.048 246.816 248.048 247.056C248.048 249.408 249.392 250.92 251.48 250.92C253.184 250.92 254.648 250.032 255.224 248.544H256.808C256.04 250.872 253.928 252.288 251.456 252.288ZM252.656 241.44C250.592 241.44 248.888 243 248.288 245.232H255.752C256.112 242.952 254.816 241.44 252.656 241.44ZM257.886 247.128C257.886 243.144 260.598 240.072 264.102 240.072C266.718 240.072 268.374 241.512 268.662 244.032H267.03C266.862 242.472 265.734 241.512 264.054 241.512C261.486 241.512 259.494 243.936 259.494 247.056C259.494 249.36 260.838 250.872 262.878 250.872C264.582 250.872 265.974 249.912 266.55 248.352H268.182C267.438 250.776 265.374 252.288 262.854 252.288C259.902 252.288 257.886 250.176 257.886 247.128ZM278.913 240.384H280.473L278.649 252H277.281L277.425 249.912C276.369 251.52 275.097 252.288 273.321 252.288C270.753 252.288 269.217 250.32 269.673 247.464L270.801 240.384H272.361L271.281 247.104C270.897 249.552 271.833 250.848 273.753 250.848C275.985 250.848 277.521 249.168 277.953 246.432L278.913 240.384ZM288.857 240.24L288.641 241.656H287.729C285.689 241.656 284.081 243.096 283.745 245.304L282.665 252H281.105L282.929 240.384H284.345L284.177 242.328C284.825 241.008 286.169 240.12 287.729 240.12C288.113 240.12 288.497 240.168 288.857 240.24ZM291.335 237.168C290.735 237.168 290.303 236.736 290.303 236.16C290.303 235.416 290.951 234.744 291.695 234.744C292.271 234.744 292.703 235.176 292.703 235.752C292.703 236.496 292.079 237.168 291.335 237.168ZM288.215 252L290.039 240.384H291.623L289.775 252H288.215ZM294.774 252H293.19L294.822 241.728H292.566L292.782 240.384H295.038L295.614 236.712H297.174L296.598 240.384H298.878L298.662 241.728H296.382L294.774 252ZM296.223 257.04L296.439 255.744H297.663C298.599 255.744 299.583 255.624 300.375 254.088L301.167 252.576L298.527 240.384H300.111L302.199 250.56L307.431 240.384H309.135L301.671 254.664C300.807 256.272 299.703 257.208 297.879 257.208C297.207 257.208 296.703 257.16 296.223 257.04Z" fill="#101828"/>
<path d="M447.84 351H446.064L454.992 333.816H457.032L460.56 351H458.904L457.968 346.416H450.216L447.84 351ZM455.52 336.096L450.96 344.952H457.68L455.904 336.096C455.856 335.832 455.808 335.592 455.808 335.424C455.76 335.592 455.64 335.832 455.52 336.096ZM461.058 346.128C461.058 342.144 463.77 339.072 467.274 339.072C469.89 339.072 471.546 340.512 471.834 343.032H470.202C470.034 341.472 468.906 340.512 467.226 340.512C464.658 340.512 462.666 342.936 462.666 346.056C462.666 348.36 464.01 349.872 466.05 349.872C467.754 349.872 469.146 348.912 469.722 347.352H471.354C470.61 349.776 468.546 351.288 466.026 351.288C463.074 351.288 461.058 349.176 461.058 346.128ZM472.269 346.128C472.269 342.144 474.981 339.072 478.485 339.072C481.101 339.072 482.757 340.512 483.045 343.032H481.413C481.245 341.472 480.117 340.512 478.437 340.512C475.869 340.512 473.877 342.936 473.877 346.056C473.877 348.36 475.221 349.872 477.261 349.872C478.965 349.872 480.357 348.912 480.933 347.352H482.565C481.821 349.776 479.757 351.288 477.237 351.288C474.285 351.288 472.269 349.176 472.269 346.128ZM488.448 351.288C485.496 351.288 483.48 349.176 483.48 346.128C483.48 342.144 486.192 339.072 489.696 339.072C492.888 339.072 494.784 341.448 494.28 344.592L494.16 345.384H485.064C485.04 345.6 485.04 345.816 485.04 346.056C485.04 348.408 486.384 349.92 488.472 349.92C490.176 349.92 491.64 349.032 492.216 347.544H493.8C493.032 349.872 490.92 351.288 488.448 351.288ZM489.648 340.44C487.584 340.44 485.88 342 485.28 344.232H492.744C493.104 341.952 491.808 340.44 489.648 340.44ZM494.327 347.832H495.911C495.911 349.104 496.967 349.968 498.527 349.968C500.183 349.968 501.311 349.128 501.311 347.856C501.311 346.944 500.903 346.464 499.799 346.056L497.903 345.408C496.295 344.856 495.455 343.872 495.455 342.408C495.455 340.416 497.111 339.072 499.607 339.072C502.031 339.072 503.495 340.416 503.495 342.576H501.911C501.863 341.088 501.095 340.392 499.511 340.392C497.975 340.392 496.991 341.136 496.991 342.336C496.991 343.224 497.495 343.8 498.599 344.208L500.447 344.856C502.151 345.456 502.871 346.32 502.871 347.784C502.871 349.872 501.095 351.288 498.479 351.288C496.031 351.288 494.327 349.872 494.327 347.832ZM503.498 347.832H505.082C505.082 349.104 506.138 349.968 507.698 349.968C509.354 349.968 510.482 349.128 510.482 347.856C510.482 346.944 510.074 346.464 508.97 346.056L507.074 345.408C505.466 344.856 504.626 343.872 504.626 342.408C504.626 340.416 506.282 339.072 508.778 339.072C511.202 339.072 512.666 340.416 512.666 342.576H511.082C511.034 341.088 510.266 340.392 508.682 340.392C507.146 340.392 506.162 341.136 506.162 342.336C506.162 343.224 506.666 343.8 507.77 344.208L509.618 344.856C511.322 345.456 512.042 346.32 512.042 347.784C512.042 349.872 510.266 351.288 507.65 351.288C505.202 351.288 503.498 349.872 503.498 347.832ZM516.342 336.168C515.742 336.168 515.31 335.736 515.31 335.16C515.31 334.416 515.958 333.744 516.702 333.744C517.278 333.744 517.71 334.176 517.71 334.752C517.71 335.496 517.086 336.168 516.342 336.168ZM513.222 351L515.046 339.384H516.63L514.782 351H513.222ZM518.63 351H517.238L519.998 333.504H521.558L520.262 341.688C521.342 339.936 522.83 339.072 524.75 339.072C527.462 339.072 529.358 341.16 529.358 344.16C529.358 348.24 526.694 351.288 523.19 351.288C521.198 351.288 519.686 350.28 519.158 348.624L518.63 351ZM519.662 346.248C519.662 348.552 520.886 349.872 523.07 349.872C525.734 349.872 527.774 347.424 527.774 344.208C527.774 341.952 526.478 340.488 524.414 340.488C521.75 340.488 519.662 343.008 519.662 346.248ZM533.139 336.168C532.539 336.168 532.107 335.736 532.107 335.16C532.107 334.416 532.755 333.744 533.499 333.744C534.075 333.744 534.507 334.176 534.507 334.752C534.507 335.496 533.883 336.168 533.139 336.168ZM530.019 351L531.843 339.384H533.427L531.579 351H530.019ZM535.667 351H534.107L536.867 333.504H538.427L535.667 351ZM541.335 336.168C540.735 336.168 540.303 335.736 540.303 335.16C540.303 334.416 540.951 333.744 541.695 333.744C542.271 333.744 542.703 334.176 542.703 334.752C542.703 335.496 542.079 336.168 541.335 336.168ZM538.215 351L540.039 339.384H541.623L539.775 351H538.215ZM544.774 351H543.19L544.822 340.728H542.566L542.782 339.384H545.038L545.614 335.712H547.174L546.598 339.384H548.878L548.662 340.728H546.382L544.774 351ZM546.223 356.04L546.439 354.744H547.663C548.599 354.744 549.583 354.624 550.375 353.088L551.167 351.576L548.527 339.384H550.111L552.199 349.56L557.431 339.384H559.135L551.671 353.664C550.807 355.272 549.703 356.208 547.879 356.208C547.207 356.208 546.703 356.16 546.223 356.04Z" fill="#101828"/>
<path d="M349.566 191H347.934L350.646 173.816H352.23L355.998 189.032L364.494 173.816H366.246L363.51 191H361.878L363.246 182.456C363.654 179.888 363.966 178.28 364.206 177.224L356.55 191H354.942L351.582 177.272C351.558 177.944 351.318 179.984 350.91 182.48L349.566 191ZM371.347 191.288C368.395 191.288 366.379 189.176 366.379 186.128C366.379 182.144 369.091 179.072 372.595 179.072C375.787 179.072 377.683 181.448 377.179 184.592L377.059 185.384H367.963C367.939 185.6 367.939 185.816 367.939 186.056C367.939 188.408 369.283 189.92 371.371 189.92C373.075 189.92 374.539 189.032 375.115 187.544H376.699C375.931 189.872 373.819 191.288 371.347 191.288ZM372.547 180.44C370.483 180.44 368.779 182 368.179 184.232H375.643C376.003 181.952 374.707 180.44 372.547 180.44ZM379.337 191H377.777L379.601 179.384H380.969L380.849 181.472C381.929 179.864 383.249 179.072 385.025 179.072C387.689 179.072 389.249 181.04 388.793 183.92L387.689 191H386.105L387.185 184.256C387.593 181.832 386.657 180.512 384.617 180.512C382.361 180.512 380.729 182.216 380.297 184.952L379.337 191ZM392.54 191H390.956L392.588 180.728H390.332L390.548 179.384H392.804L393.38 175.712H394.94L394.364 179.384H396.644L396.428 180.728H394.148L392.54 191ZM399.057 191.288C396.993 191.288 395.649 190.064 395.649 188.192C395.649 185.888 397.425 184.4 400.521 184.136L404.313 183.848L404.361 183.512C404.745 181.52 403.785 180.416 401.721 180.416C399.753 180.416 398.625 181.28 398.361 182.936H396.849C397.209 180.488 399.057 179.072 401.817 179.072C404.769 179.072 406.377 180.776 405.945 183.464L404.769 191H403.401L403.545 188.96C402.657 190.4 400.953 191.288 399.057 191.288ZM399.537 189.968C401.913 189.968 403.641 188.312 404.049 185.696L404.145 185.048L400.689 185.336C398.457 185.528 397.233 186.536 397.233 188.12C397.233 189.248 398.121 189.968 399.537 189.968ZM408.729 191H407.169L409.929 173.504H411.489L408.729 191ZM418.808 191H417.176L419.888 173.816H421.52L420.32 181.52H429.464L430.688 173.816H432.32L429.608 191H427.976L429.2 183.032H420.08L418.808 191ZM437.425 191.288C434.473 191.288 432.457 189.176 432.457 186.128C432.457 182.144 435.169 179.072 438.673 179.072C441.865 179.072 443.761 181.448 443.257 184.592L443.137 185.384H434.041C434.017 185.6 434.017 185.816 434.017 186.056C434.017 188.408 435.361 189.92 437.449 189.92C439.153 189.92 440.617 189.032 441.193 187.544H442.777C442.009 189.872 439.897 191.288 437.425 191.288ZM438.625 180.44C436.561 180.44 434.857 182 434.257 184.232H441.721C442.081 181.952 440.785 180.44 438.625 180.44ZM447.002 191.288C444.938 191.288 443.594 190.064 443.594 188.192C443.594 185.888 445.37 184.4 448.466 184.136L452.258 183.848L452.306 183.512C452.69 181.52 451.73 180.416 449.666 180.416C447.698 180.416 446.57 181.28 446.306 182.936H444.794C445.154 180.488 447.002 179.072 449.762 179.072C452.714 179.072 454.322 180.776 453.89 183.464L452.714 191H451.346L451.49 188.96C450.602 190.4 448.898 191.288 447.002 191.288ZM447.482 189.968C449.858 189.968 451.586 188.312 451.994 185.696L452.09 185.048L448.634 185.336C446.402 185.528 445.178 186.536 445.178 188.12C445.178 189.248 446.066 189.968 447.482 189.968ZM456.675 191H455.115L457.875 173.504H459.435L456.675 191ZM461.766 191H460.182L461.814 180.728H459.558L459.774 179.384H462.03L462.606 175.712H464.166L463.59 179.384H465.87L465.654 180.728H463.374L461.766 191ZM466.767 191H465.207L467.967 173.504H469.527L468.279 181.472C469.359 179.864 470.679 179.072 472.455 179.072C475.119 179.072 476.679 181.04 476.223 183.92L475.095 191H473.535L474.615 184.256C474.999 181.832 474.063 180.512 472.047 180.512C469.791 180.512 468.159 182.216 467.727 184.952L466.767 191ZM483.325 191H481.549L490.477 173.816H492.517L496.045 191H494.389L493.453 186.416H485.701L483.325 191ZM491.005 176.096L486.445 184.952H493.165L491.389 176.096C491.341 175.832 491.293 175.592 491.293 175.424C491.245 175.592 491.125 175.832 491.005 176.096ZM501.175 191.288C498.463 191.288 496.567 189.2 496.567 186.2C496.567 182.12 499.231 179.072 502.735 179.072C504.727 179.072 506.239 180.08 506.743 181.76L508.039 173.504H509.599L506.839 191H505.423L505.639 188.696C504.583 190.424 503.095 191.288 501.175 191.288ZM501.487 189.872C504.175 189.872 506.263 187.376 506.263 184.112C506.263 181.832 505.039 180.488 502.855 180.488C500.191 180.488 498.151 182.936 498.151 186.152C498.151 188.408 499.447 189.872 501.487 189.872ZM512.444 191L509.612 179.384H511.196L512.996 186.992C513.14 187.712 513.284 188.36 513.428 189.344C513.788 188.6 514.124 187.904 514.628 186.992L518.852 179.384H520.58L514.004 191H512.444ZM519.269 186.008C519.269 182.192 522.245 179.072 525.893 179.072C528.941 179.072 531.005 181.232 531.005 184.352C531.005 188.192 528.029 191.288 524.405 191.288C521.357 191.288 519.269 189.152 519.269 186.008ZM520.877 185.936C520.877 188.36 522.293 189.872 524.549 189.872C527.213 189.872 529.397 187.424 529.397 184.424C529.397 182 527.981 180.488 525.725 180.488C523.061 180.488 520.877 182.936 520.877 185.936ZM531.629 186.128C531.629 182.144 534.341 179.072 537.845 179.072C540.461 179.072 542.117 180.512 542.405 183.032H540.773C540.605 181.472 539.477 180.512 537.797 180.512C535.229 180.512 533.237 182.936 533.237 186.056C533.237 188.36 534.581 189.872 536.621 189.872C538.325 189.872 539.717 188.912 540.293 187.352H541.925C541.181 189.776 539.117 191.288 536.597 191.288C533.645 191.288 531.629 189.176 531.629 186.128ZM546.104 191.288C544.04 191.288 542.696 190.064 542.696 188.192C542.696 185.888 544.472 184.4 547.568 184.136L551.36 183.848L551.408 183.512C551.792 181.52 550.832 180.416 548.768 180.416C546.8 180.416 545.672 181.28 545.408 182.936H543.896C544.256 180.488 546.104 179.072 548.864 179.072C551.816 179.072 553.424 180.776 552.992 183.464L551.816 191H550.448L550.592 188.96C549.704 190.4 548 191.288 546.104 191.288ZM546.584 189.968C548.96 189.968 550.688 188.312 551.096 185.696L551.192 185.048L547.736 185.336C545.504 185.528 544.28 186.536 544.28 188.12C544.28 189.248 545.168 189.968 546.584 189.968ZM554.144 186.128C554.144 182.144 556.856 179.072 560.36 179.072C562.976 179.072 564.632 180.512 564.92 183.032H563.288C563.12 181.472 561.992 180.512 560.312 180.512C557.744 180.512 555.752 182.936 555.752 186.056C555.752 188.36 557.096 189.872 559.136 189.872C560.84 189.872 562.232 188.912 562.808 187.352H564.44C563.696 189.776 561.632 191.288 559.112 191.288C556.16 191.288 554.144 189.176 554.144 186.128ZM563.129 196.04L563.345 194.744H564.569C565.505 194.744 566.489 194.624 567.281 193.088L568.073 191.576L565.433 179.384H567.017L569.105 189.56L574.337 179.384H576.041L568.577 193.664C567.713 195.272 566.609 196.208 564.785 196.208C564.113 196.208 563.609 196.16 563.129 196.04Z" fill="#101828"/>
<path d="M296.536 50.328L296.776 48.816H308.728L308.512 50.328H303.328L300.856 66H299.224L301.696 50.328H296.536ZM313.388 54.24L313.172 55.656H312.26C310.22 55.656 308.612 57.096 308.276 59.304L307.196 66H305.636L307.46 54.384H308.876L308.708 56.328C309.356 55.008 310.7 54.12 312.26 54.12C312.644 54.12 313.028 54.168 313.388 54.24ZM315.541 66.288C313.477 66.288 312.133 65.064 312.133 63.192C312.133 60.888 313.909 59.4 317.005 59.136L320.797 58.848L320.845 58.512C321.229 56.52 320.269 55.416 318.205 55.416C316.237 55.416 315.109 56.28 314.845 57.936H313.333C313.693 55.488 315.541 54.072 318.301 54.072C321.253 54.072 322.861 55.776 322.429 58.464L321.253 66H319.885L320.029 63.96C319.141 65.4 317.437 66.288 315.541 66.288ZM316.021 64.968C318.397 64.968 320.125 63.312 320.533 60.696L320.629 60.048L317.173 60.336C314.941 60.528 313.717 61.536 313.717 63.12C313.717 64.248 314.605 64.968 316.021 64.968ZM325.142 66H323.582L325.406 54.384H326.774L326.654 56.472C327.734 54.864 329.054 54.072 330.83 54.072C333.494 54.072 335.054 56.04 334.598 58.92L333.494 66H331.91L332.99 59.256C333.398 56.832 332.462 55.512 330.422 55.512C328.166 55.512 326.534 57.216 326.102 59.952L325.142 66ZM335.108 62.832H336.692C336.692 64.104 337.748 64.968 339.308 64.968C340.964 64.968 342.092 64.128 342.092 62.856C342.092 61.944 341.684 61.464 340.58 61.056L338.684 60.408C337.076 59.856 336.236 58.872 336.236 57.408C336.236 55.416 337.892 54.072 340.388 54.072C342.812 54.072 344.276 55.416 344.276 57.576H342.692C342.644 56.088 341.876 55.392 340.292 55.392C338.756 55.392 337.772 56.136 337.772 57.336C337.772 58.224 338.276 58.8 339.38 59.208L341.228 59.856C342.932 60.456 343.652 61.32 343.652 62.784C343.652 64.872 341.876 66.288 339.26 66.288C336.812 66.288 335.108 64.872 335.108 62.832ZM344.04 71.04L346.656 54.384H348.072L347.856 56.688C348.936 54.936 350.4 54.072 352.32 54.072C355.056 54.072 356.952 56.16 356.952 59.16C356.952 63.24 354.288 66.288 350.784 66.288C348.768 66.288 347.28 65.28 346.752 63.624L345.6 71.04H344.04ZM347.256 61.248C347.256 63.552 348.48 64.872 350.664 64.872C353.328 64.872 355.368 62.424 355.368 59.208C355.368 56.952 354.048 55.488 352.008 55.488C349.32 55.488 347.256 58.008 347.256 61.248ZM360.854 66.288C358.79 66.288 357.446 65.064 357.446 63.192C357.446 60.888 359.222 59.4 362.318 59.136L366.11 58.848L366.158 58.512C366.542 56.52 365.582 55.416 363.518 55.416C361.55 55.416 360.422 56.28 360.158 57.936H358.646C359.006 55.488 360.854 54.072 363.614 54.072C366.566 54.072 368.174 55.776 367.742 58.464L366.566 66H365.198L365.342 63.96C364.454 65.4 362.75 66.288 360.854 66.288ZM361.334 64.968C363.71 64.968 365.438 63.312 365.846 60.696L365.942 60.048L362.486 60.336C360.254 60.528 359.03 61.536 359.03 63.12C359.03 64.248 359.918 64.968 361.334 64.968ZM376.646 54.24L376.43 55.656H375.518C373.478 55.656 371.87 57.096 371.534 59.304L370.454 66H368.894L370.718 54.384H372.134L371.966 56.328C372.614 55.008 373.958 54.12 375.518 54.12C375.902 54.12 376.286 54.168 376.646 54.24ZM380.526 66.288C377.574 66.288 375.558 64.176 375.558 61.128C375.558 57.144 378.27 54.072 381.774 54.072C384.966 54.072 386.862 56.448 386.358 59.592L386.238 60.384H377.142C377.118 60.6 377.118 60.816 377.118 61.056C377.118 63.408 378.462 64.92 380.55 64.92C382.254 64.92 383.718 64.032 384.294 62.544H385.878C385.11 64.872 382.998 66.288 380.526 66.288ZM381.726 55.44C379.662 55.44 377.958 57 377.358 59.232H384.822C385.182 56.952 383.886 55.44 381.726 55.44ZM388.517 66H386.957L388.781 54.384H390.149L390.029 56.472C391.109 54.864 392.429 54.072 394.205 54.072C396.869 54.072 398.429 56.04 397.973 58.92L396.869 66H395.285L396.365 59.256C396.773 56.832 395.837 55.512 393.797 55.512C391.541 55.512 389.909 57.216 389.477 59.952L388.517 66ZM401.719 66H400.135L401.767 55.728H399.511L399.727 54.384H401.983L402.559 50.712H404.119L403.543 54.384H405.823L405.607 55.728H403.327L401.719 66ZM418.259 59.688H413.699L412.691 66H411.059L413.771 48.816H419.699C422.627 48.816 424.643 50.76 424.643 53.592C424.643 57.264 422.123 59.688 418.259 59.688ZM419.363 50.304H415.163L413.915 58.2H418.187C421.163 58.2 422.963 56.472 422.963 53.664C422.963 51.648 421.547 50.304 419.363 50.304ZM423.855 61.008C423.855 57.192 426.831 54.072 430.479 54.072C433.527 54.072 435.591 56.232 435.591 59.352C435.591 63.192 432.615 66.288 428.991 66.288C425.943 66.288 423.855 64.152 423.855 61.008ZM425.463 60.936C425.463 63.36 426.879 64.872 429.135 64.872C431.799 64.872 433.983 62.424 433.983 59.424C433.983 57 432.567 55.488 430.311 55.488C427.647 55.488 425.463 57.936 425.463 60.936ZM437.847 66H436.287L439.047 48.504H440.607L437.847 66ZM443.514 51.168C442.914 51.168 442.482 50.736 442.482 50.16C442.482 49.416 443.13 48.744 443.874 48.744C444.45 48.744 444.882 49.176 444.882 49.752C444.882 50.496 444.258 51.168 443.514 51.168ZM440.394 66L442.218 54.384H443.802L441.954 66H440.394ZM444.41 61.128C444.41 57.144 447.122 54.072 450.626 54.072C453.242 54.072 454.898 55.512 455.186 58.032H453.554C453.386 56.472 452.258 55.512 450.578 55.512C448.01 55.512 446.018 57.936 446.018 61.056C446.018 63.36 447.362 64.872 449.402 64.872C451.106 64.872 452.498 63.912 453.074 62.352H454.706C453.962 64.776 451.898 66.288 449.378 66.288C446.426 66.288 444.41 64.176 444.41 61.128ZM458.741 51.168C458.141 51.168 457.709 50.736 457.709 50.16C457.709 49.416 458.357 48.744 459.101 48.744C459.677 48.744 460.109 49.176 460.109 49.752C460.109 50.496 459.485 51.168 458.741 51.168ZM455.621 66L457.445 54.384H459.029L457.181 66H455.621ZM464.604 66.288C461.652 66.288 459.636 64.176 459.636 61.128C459.636 57.144 462.348 54.072 465.852 54.072C469.044 54.072 470.94 56.448 470.436 59.592L470.316 60.384H461.22C461.196 60.6 461.196 60.816 461.196 61.056C461.196 63.408 462.54 64.92 464.628 64.92C466.332 64.92 467.796 64.032 468.372 62.544H469.956C469.188 64.872 467.076 66.288 464.604 66.288ZM465.804 55.44C463.74 55.44 462.036 57 461.436 59.232H468.9C469.26 56.952 467.964 55.44 465.804 55.44ZM470.483 62.832H472.067C472.067 64.104 473.123 64.968 474.683 64.968C476.339 64.968 477.467 64.128 477.467 62.856C477.467 61.944 477.059 61.464 475.955 61.056L474.059 60.408C472.451 59.856 471.611 58.872 471.611 57.408C471.611 55.416 473.267 54.072 475.763 54.072C478.187 54.072 479.651 55.416 479.651 57.576H478.067C478.019 56.088 477.251 55.392 475.667 55.392C474.131 55.392 473.147 56.136 473.147 57.336C473.147 58.224 473.651 58.8 474.755 59.208L476.603 59.856C478.307 60.456 479.027 61.32 479.027 62.784C479.027 64.872 477.251 66.288 474.635 66.288C472.187 66.288 470.483 64.872 470.483 62.832Z" fill="#101828"/>
<path d="M104.811 420.416H97.8753L96.6753 428H95.0433L97.7553 410.816H107.643L107.403 412.328H99.1473L98.1153 418.904H105.051L104.811 420.416ZM108.807 428.288C106.743 428.288 105.399 427.064 105.399 425.192C105.399 422.888 107.175 421.4 110.271 421.136L114.063 420.848L114.111 420.512C114.495 418.52 113.535 417.416 111.471 417.416C109.503 417.416 108.375 418.28 108.111 419.936H106.599C106.959 417.488 108.807 416.072 111.567 416.072C114.519 416.072 116.127 417.776 115.695 420.464L114.519 428H113.151L113.295 425.96C112.407 427.4 110.703 428.288 108.807 428.288ZM109.287 426.968C111.663 426.968 113.391 425.312 113.799 422.696L113.895 422.048L110.439 422.336C108.207 422.528 106.983 423.536 106.983 425.12C106.983 426.248 107.871 426.968 109.287 426.968ZM119.967 413.168C119.367 413.168 118.935 412.736 118.935 412.16C118.935 411.416 119.583 410.744 120.327 410.744C120.903 410.744 121.335 411.176 121.335 411.752C121.335 412.496 120.711 413.168 119.967 413.168ZM116.847 428L118.671 416.384H120.255L118.407 428H116.847ZM128.615 416.24L128.399 417.656H127.487C125.447 417.656 123.839 419.096 123.503 421.304L122.423 428H120.863L122.687 416.384H124.103L123.935 418.328C124.583 417.008 125.927 416.12 127.487 416.12C127.871 416.12 128.255 416.168 128.615 416.24ZM138.215 410.816L135.743 426.464H143.495L143.255 428H133.871L136.583 410.816H138.215ZM147.775 428.288C145.711 428.288 144.367 427.064 144.367 425.192C144.367 422.888 146.143 421.4 149.239 421.136L153.031 420.848L153.079 420.512C153.463 418.52 152.503 417.416 150.439 417.416C148.471 417.416 147.343 418.28 147.079 419.936H145.567C145.927 417.488 147.775 416.072 150.535 416.072C153.487 416.072 155.095 417.776 154.663 420.464L153.487 428H152.119L152.263 425.96C151.375 427.4 149.671 428.288 147.775 428.288ZM148.255 426.968C150.631 426.968 152.359 425.312 152.767 422.696L152.863 422.048L149.407 422.336C147.175 422.528 145.951 423.536 145.951 425.12C145.951 426.248 146.839 426.968 148.255 426.968ZM157.208 428H155.816L158.576 410.504H160.136L158.84 418.688C159.92 416.936 161.408 416.072 163.328 416.072C166.04 416.072 167.936 418.16 167.936 421.16C167.936 425.24 165.272 428.288 161.768 428.288C159.776 428.288 158.264 427.28 157.736 425.624L157.208 428ZM158.24 423.248C158.24 425.552 159.464 426.872 161.648 426.872C164.312 426.872 166.352 424.424 166.352 421.208C166.352 418.952 165.056 417.488 162.992 417.488C160.328 417.488 158.24 420.008 158.24 423.248ZM168.597 423.008C168.597 419.192 171.573 416.072 175.221 416.072C178.269 416.072 180.333 418.232 180.333 421.352C180.333 425.192 177.357 428.288 173.733 428.288C170.685 428.288 168.597 426.152 168.597 423.008ZM170.205 422.936C170.205 425.36 171.621 426.872 173.877 426.872C176.541 426.872 178.725 424.424 178.725 421.424C178.725 419 177.309 417.488 175.053 417.488C172.389 417.488 170.205 419.936 170.205 422.936ZM188.709 416.24L188.493 417.656H187.581C185.541 417.656 183.933 419.096 183.597 421.304L182.517 428H180.957L182.781 416.384H184.197L184.029 418.328C184.677 417.008 186.021 416.12 187.581 416.12C187.965 416.12 188.349 416.168 188.709 416.24ZM201.165 421.688H196.605L195.597 428H193.965L196.677 410.816H202.605C205.533 410.816 207.549 412.76 207.549 415.592C207.549 419.264 205.029 421.688 201.165 421.688ZM202.269 412.304H198.069L196.821 420.2H201.093C204.069 420.2 205.869 418.472 205.869 415.664C205.869 413.648 204.453 412.304 202.269 412.304ZM214.842 416.24L214.626 417.656H213.714C211.674 417.656 210.066 419.096 209.73 421.304L208.65 428H207.09L208.914 416.384H210.33L210.162 418.328C210.81 417.008 212.154 416.12 213.714 416.12C214.098 416.12 214.482 416.168 214.842 416.24ZM216.994 428.288C214.93 428.288 213.586 427.064 213.586 425.192C213.586 422.888 215.362 421.4 218.458 421.136L222.25 420.848L222.298 420.512C222.682 418.52 221.722 417.416 219.658 417.416C217.69 417.416 216.562 418.28 216.298 419.936H214.786C215.146 417.488 216.994 416.072 219.754 416.072C222.706 416.072 224.314 417.776 223.882 420.464L222.706 428H221.338L221.482 425.96C220.594 427.4 218.89 428.288 216.994 428.288ZM217.474 426.968C219.85 426.968 221.578 425.312 221.986 422.696L222.082 422.048L218.626 422.336C216.394 422.528 215.17 423.536 215.17 425.12C215.17 426.248 216.058 426.968 217.474 426.968ZM225.035 423.128C225.035 419.144 227.747 416.072 231.251 416.072C233.867 416.072 235.523 417.512 235.811 420.032H234.179C234.011 418.472 232.883 417.512 231.203 417.512C228.635 417.512 226.643 419.936 226.643 423.056C226.643 425.36 227.987 426.872 230.027 426.872C231.731 426.872 233.123 425.912 233.699 424.352H235.331C234.587 426.776 232.523 428.288 230.003 428.288C227.051 428.288 225.035 426.176 225.035 423.128ZM238.79 428H237.206L238.838 417.728H236.582L236.798 416.384H239.054L239.63 412.712H241.19L240.614 416.384H242.894L242.678 417.728H240.398L238.79 428ZM245.35 413.168C244.75 413.168 244.318 412.736 244.318 412.16C244.318 411.416 244.966 410.744 245.71 410.744C246.286 410.744 246.718 411.176 246.718 411.752C246.718 412.496 246.094 413.168 245.35 413.168ZM242.23 428L244.054 416.384H245.638L243.79 428H242.23ZM246.246 423.128C246.246 419.144 248.958 416.072 252.462 416.072C255.078 416.072 256.734 417.512 257.022 420.032H255.39C255.222 418.472 254.094 417.512 252.414 417.512C249.846 417.512 247.854 419.936 247.854 423.056C247.854 425.36 249.198 426.872 251.238 426.872C252.942 426.872 254.334 425.912 254.91 424.352H256.542C255.798 426.776 253.734 428.288 251.214 428.288C248.262 428.288 246.246 426.176 246.246 423.128ZM262.425 428.288C259.473 428.288 257.457 426.176 257.457 423.128C257.457 419.144 260.169 416.072 263.673 416.072C266.865 416.072 268.761 418.448 268.257 421.592L268.137 422.384H259.041C259.017 422.6 259.017 422.816 259.017 423.056C259.017 425.408 260.361 426.92 262.449 426.92C264.153 426.92 265.617 426.032 266.193 424.544H267.777C267.009 426.872 264.897 428.288 262.425 428.288ZM263.625 417.44C261.561 417.44 259.857 419 259.257 421.232H266.721C267.081 418.952 265.785 417.44 263.625 417.44ZM268.303 424.832H269.887C269.887 426.104 270.943 426.968 272.503 426.968C274.159 426.968 275.287 426.128 275.287 424.856C275.287 423.944 274.879 423.464 273.775 423.056L271.879 422.408C270.271 421.856 269.431 420.872 269.431 419.408C269.431 417.416 271.087 416.072 273.583 416.072C276.007 416.072 277.471 417.416 277.471 419.576H275.887C275.839 418.088 275.071 417.392 273.487 417.392C271.951 417.392 270.967 418.136 270.967 419.336C270.967 420.224 271.471 420.8 272.575 421.208L274.423 421.856C276.127 422.456 276.847 423.32 276.847 424.784C276.847 426.872 275.071 428.288 272.455 428.288C270.007 428.288 268.303 426.872 268.303 424.832Z" fill="#101828"/>
<rect x="174.539" y="116" width="32" height="32" rx="16" fill="#EDE4FF"/>
<rect x="184.539" y="126" width="12" height="12" rx="6" fill="#A479FF"/>
<rect x="106.539" y="259" width="32" height="32" rx="16" fill="#D3ECFF"/>
<rect x="116.539" y="269" width="12" height="12" rx="6" fill="#229EFF"/>
<rect x="278.539" y="380" width="32" height="32" rx="16" fill="#E5FBEC"/>
<rect x="288.539" y="390" width="12" height="12" rx="6" fill="#00D743"/>
<rect x="480.539" y="291" width="32" height="32" rx="16" fill="#FBEAE9"/>
<rect x="490.539" y="301" width="12" height="12" rx="6" fill="#D92D20"/>
<rect x="395.539" y="198" width="32" height="32" rx="16" fill="#FFF0E7"/>
<rect x="405.539" y="208" width="12" height="12" rx="6" fill="#FB6514"/>
<rect x="430.539" y="73" width="32" height="32" rx="16" fill="#EEEEEE"/>
<rect x="440.539" y="83" width="12" height="12" rx="6" fill="#8C8C8C"/>
</svg>
