<svg width="66" height="66" viewBox="0 0 66 66" fill="none" xmlns="http://www.w3.org/2000/svg">
<rect width="66" height="66" rx="33" fill="#C7C7C7" fill-opacity="0.16"/>
<path d="M47.3897 37.7923C47.3334 35.3779 42.6883 18.6168 41.6181 16.02C40.3414 12.9185 38.952 10.1198 32.666 10.4071C27.1422 10.6555 22.3357 11.525 18.9636 17.3475C16.3914 21.7881 23.5448 43.1684 25.4674 45.0549C26.1734 45.7497 27.7092 46.0719 29.5154 46.1883C30.3791 48.8705 31.5958 52.5426 32.1553 53.711C32.1553 53.711 38.9933 53.1054 40.4841 52.8881C42.9962 52.5193 43.1802 50.2097 42.6132 48.0787C42.3804 47.2053 42.0162 46.1107 41.6707 45.117C44.3856 44.4027 45.8313 43.3275 46.5861 41.9223C47.2583 40.6725 47.4235 39.178 47.3897 37.7923Z" fill="#B9E4EA"/>
<path d="M42.0927 41.6806C38.5554 42.0688 36.9707 41.6573 35.893 40.7024C35.495 40.3492 35.2584 39.8407 35.3222 39.305C35.5325 37.5156 35.709 36.452 34.9317 33.5679L31.3456 19.396C30.0163 13.4182 25.236 12.7466 21.3383 15.0718C18.6797 16.6594 17.3917 19.4775 18.1502 22.9593L22.8741 41.634C23.4636 43.9669 24.4174 45.2246 25.7054 45.7098C26.111 46.0009 26.6968 46.2028 27.4027 46.3425C27.8609 47.6002 28.503 49.3508 29.0662 50.8258C29.8661 52.9142 30.6509 53.706 32.1567 53.706C33.6625 53.706 35.3035 52.5493 34.7252 50.2048C34.4398 49.0364 34.0793 47.7127 33.7413 46.5094C35.6039 46.3969 37.2636 46.2222 38.1085 46.1795C44.9465 45.8457 47.0569 42.6705 47.3385 39.5496C47.3385 39.5574 46.0393 41.2459 42.0927 41.6806Z" fill="#82AEC0"/>
<path d="M32.1559 52.3583C33.0223 52.1907 33.5509 51.0948 33.3365 49.9106C33.1222 48.7263 32.2461 47.9021 31.3797 48.0697C30.5134 48.2372 29.9848 49.3331 30.1991 50.5173C30.4135 51.7016 31.2896 52.5258 32.1559 52.3583Z" fill="#2F7889"/>
<path d="M21.9406 22.6616C22.1227 22.5427 22.2525 22.3549 22.3023 22.1383C22.352 21.9217 22.3178 21.6936 22.2068 21.5027C22.0959 21.3119 21.9171 21.1736 21.7087 21.1174C21.5003 21.0612 21.2789 21.0916 21.0919 21.2021L18.2869 22.9449L18.7112 24.6684L21.9406 22.6616ZM23.2661 25.5922C23.1535 25.3987 22.9712 25.2594 22.7593 25.2048C22.5473 25.1502 22.3231 25.1848 22.1358 25.3011L19.297 27.0634L19.7213 28.7869L22.9845 26.7606C23.3713 26.52 23.4989 25.9959 23.2661 25.5922ZM24.31 29.6952C24.1975 29.5017 24.0152 29.3623 23.8032 29.3077C23.5912 29.2531 23.367 29.2878 23.1798 29.404L20.3109 31.1857L20.7352 32.9092L24.0284 30.8635C24.4152 30.619 24.5429 30.095 24.31 29.6952ZM25.354 33.7942C25.2414 33.6007 25.0591 33.4613 24.8471 33.4067C24.6352 33.3522 24.4109 33.3868 24.2237 33.5031L21.3247 35.3042L21.7491 37.0276L25.0723 34.9626C25.4629 34.7219 25.5868 34.1979 25.354 33.7942ZM26.3979 37.8933C26.2853 37.6998 26.103 37.5604 25.891 37.5058C25.6791 37.4512 25.4548 37.4859 25.2676 37.6021L22.3386 39.4226L22.7629 41.1461L26.12 39.0616C26.5068 38.821 26.6307 38.2969 26.3979 37.8933Z" fill="#424242"/>
<path d="M30.0857 16.2488C28.4109 16.8621 24.9337 19.1562 24.9337 19.1562C24.7465 19.2725 24.6117 19.461 24.5589 19.6801C24.5061 19.8992 24.5396 20.131 24.6521 20.3245C24.7651 20.5176 24.9473 20.6565 25.1591 20.7111C25.3709 20.7656 25.595 20.7313 25.7823 20.6157C25.7823 20.6157 29.0605 18.2828 30.8442 17.8869C32.1923 17.588 35.3316 17.5142 35.3316 17.5142L34.8885 15.8606C34.8847 15.8567 30.8743 15.9577 30.0857 16.2488ZM31.2873 20.5147C29.6013 21.097 26.0865 23.3212 26.0865 23.3212C25.9927 23.3767 25.9105 23.4508 25.8446 23.5393C25.7787 23.6278 25.7304 23.7289 25.7025 23.8368C25.6745 23.9447 25.6676 24.0573 25.6819 24.168C25.6963 24.2787 25.7317 24.3853 25.7861 24.4818C25.9363 24.7496 26.2067 24.901 26.4845 24.9088C26.6272 24.9127 26.7774 24.8739 26.9089 24.7962C26.9089 24.7962 30.2284 22.5293 32.0158 22.1645C33.3676 21.8889 36.5107 21.8035 36.5107 21.8035L36.0976 20.1421C36.0976 20.1421 32.0834 20.2391 31.2873 20.5147ZM32.4927 24.7807C30.7954 25.3319 27.2431 27.4862 27.2431 27.4862C27.0524 27.5959 26.9114 27.779 26.8509 27.9958C26.7904 28.2125 26.8153 28.4452 26.9201 28.643C27.0262 28.8401 27.2034 28.9858 27.4131 29.0484C27.6227 29.1109 27.8478 29.0852 28.0392 28.9768C28.0392 28.9768 31.3962 26.772 33.1911 26.4459C34.5505 26.1975 37.6935 26.0966 37.6935 26.0966L37.3105 24.4275C37.3105 24.4275 33.2925 24.5206 32.4927 24.7807ZM33.6981 29.0467C31.9933 29.5629 28.3996 31.6513 28.3996 31.6513C28.3041 31.7034 28.2194 31.7745 28.1505 31.8605C28.0816 31.9465 28.0298 32.0457 27.998 32.1524C27.9663 32.2592 27.9552 32.3713 27.9655 32.4825C27.9758 32.5937 28.0072 32.7016 28.0579 32.8002C28.1969 33.0758 28.4635 33.235 28.7414 33.2544C28.8841 33.2622 29.0343 33.2311 29.1694 33.1573C29.1694 33.1573 32.564 31.0185 34.3665 30.7235C35.7296 30.5023 38.8801 30.3858 38.8801 30.3858L38.5271 28.709C38.5234 28.709 34.5017 28.8021 33.6981 29.0467ZM34.9035 33.3126C33.1874 33.7978 29.5562 35.8202 29.5562 35.8202C29.4595 35.8706 29.3733 35.9402 29.3027 36.025C29.232 36.1099 29.1782 36.2083 29.1444 36.3146C29.1106 36.421 29.0974 36.5332 29.1055 36.6449C29.1137 36.7565 29.1431 36.8654 29.192 36.9653C29.3272 37.2409 29.59 37.4078 29.8679 37.4311C30.0106 37.4427 30.1608 37.4155 30.2997 37.3418C30.2997 37.3418 33.7356 35.2651 35.5418 35.005C36.9087 34.8071 40.063 34.679 40.063 34.679L39.7363 32.9943C39.7363 32.9943 35.7108 33.0836 34.9035 33.3126ZM41.5537 15.8567H38.944L39.3833 17.5103H42.1358C42.0044 17.0406 41.6138 16.0663 41.5537 15.8567ZM40.5699 21.8035L43.4576 21.8617C43.2961 21.2833 43.1309 20.7438 42.9769 20.2197L40.1343 20.1421L40.5699 21.8035ZM41.7603 26.0927L44.6404 26.0617C44.4902 25.5027 44.34 24.9748 44.1898 24.4275H41.3247L41.7603 26.0927ZM42.9469 30.382H45.7857C45.6468 29.8346 45.4966 29.2757 45.3501 28.709H42.5113L42.9469 30.382ZM44.1335 34.6751H46.8297C46.7095 34.1549 46.5818 33.5921 46.4354 32.9943H43.6979L44.1335 34.6751ZM31.4901 14.1061C30.7804 13.3647 30.7203 12.5185 29.2783 11.7616C27.6787 10.9193 25.8687 11.4937 25.8687 11.4937C25.8687 11.4937 28.8277 10.2943 30.3636 10.8222C31.6666 11.2686 32.4401 12.3244 32.7556 13.19C32.9583 13.7451 32.8231 14.1216 32.4214 14.3429C32.2974 14.4128 31.8656 14.502 31.4901 14.1061ZM34.0811 12.3943C33.1761 10.3991 31.3737 10.4729 31.3737 10.4729C31.3737 10.4729 33.2587 10.205 34.0849 10.5932C35.0199 11.0318 35.4705 11.552 35.8498 12.635C36.0037 13.0775 36.0826 13.7878 35.3278 13.881C34.6707 13.9664 34.3252 12.93 34.0811 12.3943ZM37.0551 12.2856C36.2628 10.5 34.573 10.4302 34.573 10.4302C34.573 10.4302 37.7386 10.2671 38.6961 12.7203C38.8651 13.1551 38.8275 13.6946 38.3769 13.7373C37.701 13.8033 37.2955 12.8213 37.0551 12.2856ZM33.7018 46.5297C34.6181 46.0445 35.3578 45.2604 35.9812 44.4103C36.6796 43.4632 37.1378 42.7994 37.4644 41.6582C37.7123 40.7887 37.7874 39.337 37.6973 38.4325C37.5959 37.4311 37.6973 36.9032 38.4295 36.7945C38.8801 36.7285 39.4321 37.0778 39.5748 38.3083C39.7363 39.7057 39.6499 40.5869 39.1242 42.0891C38.6586 43.4166 37.885 44.3793 36.8524 45.2915C35.4517 46.5297 33.837 46.456 33.7018 46.5297ZM38.1066 46.1842C38.1066 46.1842 42.2071 43.7 41.6626 38.9721C41.565 38.122 41.1857 36.5887 42.1996 36.4607C42.6502 36.4024 43.3637 36.8643 43.4238 38.8052C43.5477 42.8732 41.5425 44.6976 40.7051 45.2682C39.5297 46.06 38.1066 46.1842 38.1066 46.1842Z" fill="#2F7889"/>
<path d="M41.8533 45.6449C41.8533 45.6449 43.7609 44.4183 44.4893 42.3688C44.8573 41.3402 45.0526 40.4707 45 38.8637C44.97 38.0097 44.3692 36.4609 45.3943 36.4493C46.2392 36.4415 46.5246 37.8583 46.5772 38.654C46.6823 40.2222 46.1191 41.7322 45.2329 43.1645C44.0387 45.086 41.8533 45.6449 41.8533 45.6449Z" fill="#2F7889"/>
<path d="M34.5599 56.9623L33.9141 53.5581L36.9407 53.2708C36.9407 53.2708 37.7443 52.2344 37.6917 51.3455C37.6391 50.4566 37.2599 49.2339 37.2599 49.2339L40.3766 48.8457C40.3766 48.8457 40.861 50.5575 40.7558 51.3494C40.6469 52.1839 39.911 52.9642 39.911 52.9642L40.8422 56.9623H34.5599Z" fill="#82AEC0"/>
<path d="M24.6532 20.3239C24.7662 20.5169 24.9485 20.6559 25.1602 20.7104C25.372 20.765 25.5961 20.7307 25.7835 20.615C25.7835 20.615 29.0617 18.2821 30.8453 17.8862C30.8604 17.8823 30.8829 17.8784 30.8979 17.8745C30.6613 17.2612 30.3797 16.7256 30.0605 16.2598C28.3745 16.8886 24.9348 19.1555 24.9348 19.1555C24.8418 19.2128 24.7607 19.2886 24.6962 19.3785C24.6317 19.4683 24.585 19.5705 24.5588 19.6791C24.5326 19.7877 24.5275 19.9006 24.5437 20.0112C24.5599 20.1219 24.5971 20.2281 24.6532 20.3239ZM26.0876 23.3205C25.9939 23.376 25.9117 23.4502 25.8457 23.5387C25.7798 23.6272 25.7315 23.7283 25.7036 23.8362C25.6757 23.9441 25.6687 24.0566 25.683 24.1673C25.6974 24.278 25.7328 24.3847 25.7872 24.4811C25.9374 24.749 26.2078 24.9004 26.4857 24.9081C26.6284 24.912 26.7786 24.8732 26.91 24.7956C26.91 24.7956 30.2257 22.5287 32.0169 22.1638C32.0282 22.1599 32.0395 22.1599 32.047 22.156L31.6114 20.4287C31.4762 20.4559 31.3673 20.483 31.2884 20.5102C29.6024 21.0963 26.0876 23.3205 26.0876 23.3205ZM27.2442 27.4856C27.0535 27.5952 26.9125 27.7784 26.852 27.9951C26.7915 28.2118 26.8164 28.4445 26.9213 28.6423C27.0273 28.8394 27.2045 28.9852 27.4142 29.0477C27.6238 29.1103 27.8489 29.0845 28.0403 28.9761C28.0403 28.9761 31.3297 26.8179 33.1359 26.4569L32.7004 24.7296C32.6177 24.7451 32.5501 24.7645 32.4976 24.78C30.7965 25.3273 27.2442 27.4856 27.2442 27.4856ZM28.4008 31.6506C28.3052 31.7027 28.2206 31.7738 28.1516 31.8598C28.0827 31.9458 28.0309 32.045 27.9992 32.1517C27.9674 32.2585 27.9564 32.3707 27.9666 32.4818C27.9769 32.593 28.0083 32.701 28.0591 32.7996C28.198 33.0752 28.4646 33.2343 28.7425 33.2537C28.8852 33.2615 29.0354 33.2304 29.1706 33.1567C29.1706 33.1567 32.3924 31.1304 34.2249 30.7539L33.7856 29.0227C33.7555 29.0305 33.7255 29.0382 33.6992 29.046C31.9944 29.5623 28.4008 31.6506 28.4008 31.6506ZM34.8708 33.3197C33.1435 33.8204 29.5573 35.8156 29.5573 35.8156C29.4606 35.866 29.3745 35.9356 29.3038 36.0205C29.2331 36.1053 29.1794 36.2037 29.1455 36.3101C29.1117 36.4165 29.0985 36.5287 29.1066 36.6403C29.1148 36.7519 29.1442 36.8608 29.1931 36.9607C29.3283 37.2363 29.5911 37.4032 29.869 37.4265C30.0117 37.4382 30.1619 37.411 30.3008 37.3372C30.3008 37.3372 33.3162 35.5167 35.1825 35.0703C35.1111 34.5696 35.0285 34.0689 34.9384 33.5681L34.8708 33.3197Z" fill="#424242"/>
<path d="M29.6979 16.0303C28.3723 14.1942 27.7152 14.5707 26.8139 14.1515C26.0179 13.7789 26.4459 13.3092 26.8139 13.1112C27.3434 12.824 28.346 12.7968 29.0182 13.185C29.649 13.5499 30.3325 13.8915 30.6179 15.5256C30.738 16.1894 29.9832 16.4223 29.6979 16.0303ZM32.7057 18.6271C32.4541 17.8546 31.8758 17.6179 31.1699 17.843C30.8432 17.9478 30.7906 18.1962 31.0046 18.891C31.3952 20.1604 31.5116 20.5408 32.195 20.3467C32.777 20.1836 32.9873 19.4888 32.7057 18.6271ZM32.5367 22.0701C32.0598 22.1943 31.9396 22.4428 32.1875 23.254C32.4804 24.2089 33.0136 24.0731 33.2464 23.9954C33.6032 23.8751 33.9148 23.4559 33.8247 22.8309C33.7721 22.4894 33.5731 21.7984 32.5367 22.0701Z" fill="white"/>
<path d="M33.7036 46.5292C33.7149 46.5214 33.7412 46.5176 33.7712 46.5137C33.7562 46.5137 33.7412 46.5137 33.7261 46.5176C33.7186 46.5176 33.7149 46.5253 33.7036 46.5292Z" fill="#2F7889"/>
<path d="M39.1279 42.0882C39.1616 41.9912 39.1879 41.9058 39.218 41.8126C38.5345 41.7816 37.9713 41.6962 37.4906 41.5603L37.4681 41.6573C37.1414 42.8024 36.6833 43.4623 35.9848 44.4094C35.3652 45.2518 34.633 46.0281 33.728 46.5172C33.743 46.5172 33.7581 46.5172 33.7731 46.5133C34.111 46.4629 35.5718 46.424 36.856 45.2906C37.8887 44.3784 38.6622 43.4157 39.1279 42.0882ZM43.1458 41.5215C42.8154 41.5836 42.4699 41.6379 42.0944 41.6806C41.8691 41.7039 41.655 41.7272 41.4447 41.7427C40.6111 44.6656 38.1065 46.1834 38.1065 46.1834C38.1065 46.1834 39.5297 46.0592 40.705 45.2634C41.3246 44.8403 42.5825 43.7263 43.1458 41.5215Z" fill="#424242"/>
<path d="M41.8533 45.6449C41.8533 45.6449 42.1349 45.5711 42.5442 45.3926C42.3452 45.4624 42.1424 45.5323 41.9284 45.5944C41.8796 45.6255 41.8533 45.6449 41.8533 45.6449Z" fill="#2F7889"/>
<path d="M45.2268 43.1635C45.7975 42.2397 46.2331 41.2848 46.4434 40.2988C46.0604 40.5473 45.5384 40.819 44.855 41.0635C44.7649 41.5138 44.6447 41.9252 44.487 42.3639C43.8411 44.1766 42.2752 45.3411 41.926 45.5895C42.1401 45.5274 42.3428 45.4576 42.5419 45.3877C43.2854 45.0733 44.4607 44.4018 45.2268 43.1635Z" fill="#424242"/>
</svg>
