<svg width="66" height="66" viewBox="0 0 66 66" fill="none" xmlns="http://www.w3.org/2000/svg">
<rect width="66" height="66" rx="33" fill="#C7C7C7" fill-opacity="0.16"/>
<path d="M50.2703 39.12C55.0107 32.9528 54.6795 24.2032 49.0451 18.3747C43.4108 12.5428 34.3502 11.5714 27.594 15.6554" stroke="#B0BEC5" stroke-width="1.26875" stroke-miterlimit="10" stroke-linecap="round"/>
<path d="M46.7722 35.447C49.5003 31.1816 49.0693 25.5173 45.3475 21.6693C41.6257 17.8212 35.7777 16.9798 31.1477 19.2783" stroke="#B0BEC5" stroke-width="1.26875" stroke-miterlimit="10" stroke-linecap="round"/>
<path d="M43.14 31.5098C43.8915 29.3036 43.4107 26.7827 41.6549 24.963C39.8955 23.1433 37.3134 22.4934 34.9663 23.051" stroke="#B0BEC5" stroke-width="1.26875" stroke-miterlimit="10" stroke-linecap="round"/>
<path d="M43.4827 44.8079C43.4827 44.8079 35.0561 42.6838 28.8056 48.3721C26.1166 50.8211 24.2148 52.6374 23.7553 53.0786C22.32 54.4571 18.6267 54.0911 15.0403 50.6467C11.4538 47.2023 10.8982 43.0874 12.3335 41.7124C12.5472 41.5072 14.9477 39.4583 17.6117 36.7527C20.4574 33.859 19.9445 29.8194 20.1261 27.3258C20.3434 24.3295 20.9168 23.1426 20.9168 23.1426L43.4827 44.8079Z" fill="#8CAFBF"/>
<path d="M43.4872 44.8052C45.9796 42.4114 42.9487 35.6197 36.7175 29.6355C30.4863 23.6513 23.4144 20.7407 20.922 23.1345C18.4297 25.5282 21.4606 32.3199 27.6917 38.3041C33.9229 44.2883 40.9948 47.1989 43.4872 44.8052Z" fill="#54646D"/>
<path d="M38.9572 32.8764C38.9572 32.8764 32.7743 37.5317 36.0474 44.0512L24.5828 34.9458L20.1665 25.7755L20.918 23.1383L24.5329 22.2832L30.1103 24.9614L36.7134 29.6372L38.9572 32.8764Z" fill="#2C3640"/>
<path d="M25.8503 35.0557L28.9489 33.0137L33.2583 37.1525L31.3992 40.3267C28.0442 37.7955 25.8503 35.0557 25.8503 35.0557Z" fill="#8CAFBF"/>
<path d="M33.2568 37.1528C33.8215 36.6105 33.3141 35.2439 32.1235 34.1005C30.9329 32.9571 29.51 32.4698 28.9453 33.0122C28.3806 33.5545 28.888 34.9211 30.0786 36.0645C31.2692 37.2079 32.6922 37.6951 33.2568 37.1528Z" fill="#B2DFEC"/>
<path d="M18.608 38.1373C19.7975 36.6459 19.8901 35.8969 20.2926 34.0566C21.4287 36.4407 23.2878 38.8419 25.4497 40.4427C24.4916 40.7574 24.3777 40.1143 23.4873 40.5795C22.7465 40.966 22.0662 41.4483 21.4038 41.9511C19.9008 43.0833 22.0805 41.2568 20.7627 42.5497C20.549 42.7618 18.608 44.7285 18.608 44.7285C18.608 44.7285 17.4291 44.5336 17.0872 44C16.8807 43.675 16.3286 41.226 16.3286 41.226C16.3286 41.226 18.2554 38.5785 18.608 38.1373Z" fill="#B2DFEC"/>
<path d="M18.6019 53.0951C18.5877 53.0917 18.5699 53.0917 18.5485 53.0848C18.545 53.0848 18.5414 53.0848 18.5378 53.0814C18.5343 53.0814 18.5271 53.078 18.52 53.078C18.5663 53.0985 18.6126 53.119 18.6554 53.1396L18.6197 53.0951C18.6126 53.0985 18.6091 53.0951 18.6019 53.0951ZM29.2972 47.9473C29.137 48.0807 28.9731 48.2175 28.8057 48.3714C28.9696 48.2243 29.1334 48.0841 29.2972 47.9473Z" fill="#8CAFBF"/>
<path d="M17.4943 52.9136C17.4693 52.9102 17.448 52.9067 17.4302 52.9033L17.4943 52.9136ZM17.7828 52.9615C17.683 52.9444 17.5833 52.9307 17.4943 52.9136C17.5762 52.9273 17.6724 52.9444 17.7828 52.9615ZM17.3483 52.8896C17.3055 52.8828 17.2663 52.876 17.2378 52.8725C17.2699 52.8794 17.3055 52.8828 17.3483 52.8896ZM17.4302 52.9033C17.4017 52.8999 17.3732 52.8931 17.3483 52.8896C17.3732 52.8965 17.3981 52.8999 17.4302 52.9033ZM18.2564 53.0401C18.2101 53.0333 18.1674 53.0265 18.1247 53.0196C18.171 53.023 18.2137 53.0333 18.2564 53.0401ZM18.4595 53.0709C18.4025 53.0607 18.3348 53.0504 18.2564 53.0367C18.3206 53.0504 18.3882 53.0607 18.4595 53.0709ZM18.0143 52.9991C17.9288 52.9854 17.8504 52.9717 17.7828 52.9615C17.8611 52.9752 17.9395 52.9854 18.0143 52.9991ZM18.1247 53.0162C18.0891 53.0094 18.0534 53.0059 18.0143 52.9991C18.0499 53.0059 18.0891 53.0128 18.1247 53.0162ZM17.188 52.8657C17.1737 52.8623 17.1666 52.8623 17.1595 52.8623C17.1666 52.8623 17.1773 52.8623 17.188 52.8657ZM29.7638 47.5879C29.6106 47.7008 29.4575 47.8171 29.3008 47.947C29.4503 47.8205 29.6071 47.7076 29.7638 47.5879ZM17.2378 52.8725C17.2165 52.8691 17.2022 52.8657 17.188 52.8657C17.2022 52.8691 17.22 52.8691 17.2378 52.8725ZM17.1631 52.8623C17.1559 52.8589 17.1559 52.8589 17.1631 52.8623V52.8623ZM18.6019 53.0949C18.609 53.0949 18.6126 53.0983 18.6197 53.0983C18.6197 53.0983 18.6126 53.0949 18.6019 53.0949ZM18.52 53.0812C18.5271 53.0812 18.5307 53.0846 18.5378 53.0846C18.5307 53.0846 18.5236 53.0812 18.52 53.0812ZM18.5449 53.0846C18.5699 53.088 18.5877 53.0914 18.5984 53.0949C18.5805 53.0914 18.5663 53.088 18.5449 53.0846Z" fill="#738A97"/>
<path d="M22.7897 53.6351C22.747 53.6488 22.7007 53.6625 22.6579 53.6762C22.7042 53.6625 22.747 53.6488 22.7897 53.6351ZM21.5788 53.8198C21.4079 53.8198 21.2298 53.8164 21.0481 53.7993C21.2298 53.813 21.4079 53.8198 21.5788 53.8198ZM28.8515 48.33C28.8336 48.3436 28.8194 48.3573 28.8016 48.371C28.8194 48.3573 28.8372 48.3436 28.8515 48.33ZM18.6156 53.0981C21.9136 53.6317 22.9393 52.4414 22.9393 52.4414C24.1324 51.1347 26.4973 48.8636 27.5052 47.9058C25.3113 47.1362 23.2883 45.9835 21.5895 44.3554C19.5452 42.392 17.9175 39.5427 17.1589 37.2031C14.6766 39.6864 12.5289 41.5198 12.3259 41.7147C10.8906 43.0932 11.4462 47.2046 15.0327 50.649C17.134 52.6671 19.2638 53.6214 20.9627 53.7925C20.2539 53.7172 19.4704 53.5086 18.6441 53.1426L18.6156 53.0981Z" fill="#427687"/>
<path d="M25.4457 51.4785C25.118 51.7829 24.8331 52.0532 24.5909 52.2857C24.8331 52.0566 25.118 51.7864 25.4457 51.4785ZM23.0737 53.5274C22.9847 53.5684 22.8885 53.6026 22.7924 53.6368C22.8921 53.6026 22.9847 53.5684 23.0737 53.5274ZM23.4227 53.3393C23.3301 53.4008 23.2304 53.4556 23.1271 53.5069C23.2304 53.4556 23.3301 53.3974 23.4227 53.3393ZM21.0508 53.7976C21.0258 53.7942 21.0009 53.7942 20.9724 53.7908C20.9973 53.7942 21.0258 53.7976 21.0508 53.7976ZM21.7096 53.8181H21.5814C21.6242 53.8215 21.6669 53.8215 21.7096 53.8181ZM22.6606 53.6779C22.5715 53.7018 22.4789 53.7258 22.3828 53.7429C22.4789 53.7224 22.5715 53.7018 22.6606 53.6779Z" fill="#54646D"/>
<path d="M22.9475 52.4384C22.9475 52.4384 21.9182 53.6321 18.6238 53.0951L18.6594 53.1396C19.4857 53.5056 20.2692 53.7142 20.978 53.7895C21.0029 53.7929 21.0278 53.7929 21.0563 53.7963C21.2379 53.8134 21.416 53.8203 21.587 53.8168H21.7152C21.7971 53.8134 21.8755 53.8066 21.9503 53.8032C22.0179 53.7963 22.0856 53.7895 22.1533 53.7792C22.2316 53.769 22.31 53.7553 22.3883 53.7416C22.4845 53.7211 22.5771 53.7005 22.6661 53.6766C22.7124 53.6629 22.7552 53.6492 22.7979 53.6356C22.8941 53.6048 22.9902 53.5671 23.0793 53.5261C23.0971 53.5193 23.1149 53.5124 23.1291 53.5056C23.236 53.4543 23.3321 53.3995 23.4247 53.338L23.4995 53.2867C23.5921 53.2217 23.6812 53.1533 23.7595 53.078C23.902 52.9412 24.1869 52.6676 24.5929 52.2845C24.8351 52.0553 25.1236 51.7851 25.4477 51.4772C25.5545 51.3746 25.6685 51.2686 25.786 51.1591C26.6052 50.3929 27.6309 49.442 28.8098 48.3714C28.8276 48.3578 28.8418 48.3441 28.8561 48.3304C28.4002 48.2073 27.955 48.0602 27.5134 47.9062C26.5055 48.864 24.1406 51.1352 22.9475 52.4384Z" fill="#2A4E56"/>
<path d="M35.718 44.8445C35.3547 44.6837 34.9736 44.4956 34.5961 44.2835C32.4521 43.0727 30.4433 41.8652 30.4433 41.8652C30.6357 42.522 30.3792 42.8503 31.3658 43.6747C32.0745 44.263 31.9 45.3678 31.0452 45.727C29.325 46.4521 28.424 47.0199 27.9859 47.4543C27.9859 47.4543 27.8078 47.6253 27.5122 47.9058C27.9538 48.0597 28.4026 48.2068 28.8549 48.3299C29.0045 48.1931 29.1541 48.07 29.2965 47.9503C29.4497 47.8237 29.6064 47.7074 29.7595 47.5911C32.9186 45.2584 34.7849 46.7668 38.6812 45.7954C38.6812 45.792 37.3314 45.5594 35.718 44.8445ZM31.9712 46.1887C31.7291 46.3153 31.4869 46.4487 31.2447 46.5889C31.4833 46.4487 31.7255 46.3153 31.9712 46.1887ZM31.2304 46.5958C30.7354 46.8865 30.2439 47.2183 29.7631 47.5843C30.2439 47.2183 30.7354 46.8899 31.2304 46.5958ZM34.5391 45.1557C34.6816 45.1147 34.8205 45.0668 34.9629 45.0292C34.824 45.0702 34.6816 45.1147 34.5391 45.1557ZM32.014 46.1682C32.2455 46.0485 32.4805 45.939 32.712 45.833C32.4805 45.9356 32.2455 46.0485 32.014 46.1682ZM32.8118 45.7885C33.029 45.6928 33.2427 45.6038 33.46 45.5217C33.2463 45.6038 33.029 45.6962 32.8118 45.7885ZM33.6452 45.4567C33.8339 45.3883 34.0227 45.3165 34.2115 45.2584C34.0227 45.3165 33.8339 45.3849 33.6452 45.4567Z" fill="#738A97"/>
<path d="M17.3288 39.6191C15.2916 41.6954 12.9766 43.9768 12.9766 43.9768C12.9766 43.9768 12.8412 45.8786 14.6861 48.0164C14.6861 48.0164 17.1863 45.6152 19.5013 43.4706C18.1942 41.9074 17.5852 40.4161 17.3288 39.6191Z" fill="#8CAFBF"/>
<path d="M44.1351 45.4297C41.1933 48.255 33.8423 45.4605 27.0433 38.9273C20.2408 32.3942 17.331 25.3378 20.2729 22.5124C23.2147 19.6871 29.9139 23.1042 36.7165 29.6373C43.5154 36.1704 47.077 42.6044 44.1351 45.4297ZM21.5693 23.7609C19.7422 25.5156 22.0714 31.6657 28.3397 37.6823C34.608 43.6989 41.0081 45.9393 42.8352 44.1846C44.6622 42.4299 42.333 36.2799 36.0647 30.2633C29.7964 24.2466 23.3963 22.0062 21.5693 23.7609Z" fill="#B3D0E0"/>
<path d="M21.6066 29.4569C21.9378 30.1513 22.4079 31.9504 25.9374 35.9661C26.0585 36.1029 26.5571 36.722 26.2401 37.0264C26.03 37.2282 25.6453 36.982 25.2037 36.5578C23.4799 34.9023 21.8665 32.8055 20.6556 30.3667C19.9718 28.9883 21.1471 28.4992 21.6066 29.4569Z" fill="#B2DFEC"/>
</svg>
